STARTFONT 2.1
FONT -FontForge-Source Code Pro-Bold-R-Normal--20-200-72-72-M-120-ISO10646-1
SIZE 20 72 72
FONTBOUNDINGBOX 20 30 -4 -9
COMMENT "Generated by fontforge, http://fontforge.sourceforge.net"
COMMENT "Copyright 2010, 2012 Adobe Systems Incorporated (http://www.adobe.com/), with Reserved Font Name `Source'."
STARTPROPERTIES 40
FOUNDRY "FontForge"
FAMILY_NAME "Source Code Pro"
WEIGHT_NAME "Bold"
SLANT "R"
SETWIDTH_NAME "Normal"
ADD_STYLE_NAME ""
PIXEL_SIZE 20
POINT_SIZE 200
RESOLUTION_X 72
RESOLUTION_Y 72
SPACING "M"
AVERAGE_WIDTH 120
CHARSET_REGISTRY "ISO10646"
CHARSET_ENCODING "1"
FONTNAME_REGISTRY ""
CHARSET_COLLECTIONS "ASCII ISOLatin1Encoding ISO8859-2 ISO8859-5 ISO8859-7 ISO8859-9 ISO8859-4 ISO10646-1"
FONT_NAME "SourceCodePro-Bold"
FACE_NAME "Source Code Pro Bold"
COPYRIGHT "Copyright 2010, 2012 Adobe Systems Incorporated (http://www.adobe.com/), with Reserved Font Name `Source'."
FONT_VERSION "2.030;PS 1.000;hotconv 16.6.51;makeotf.lib2.5.65220"
FONT_ASCENT 15
FONT_DESCENT 5
UNDERLINE_POSITION -2
UNDERLINE_THICKNESS 1
X_HEIGHT 9
CAP_HEIGHT 12
RAW_ASCENT 750
RAW_DESCENT 250
NORM_SPACE 12
RELATIVE_WEIGHT 70
RELATIVE_SETWIDTH 50
SUPERSCRIPT_X 0
SUPERSCRIPT_Y 7
SUPERSCRIPT_SIZE 12
SUBSCRIPT_X 0
SUBSCRIPT_Y 1
SUBSCRIPT_SIZE 12
FIGURE_WIDTH 12
AVG_LOWERCASE_WIDTH 120
AVG_UPPERCASE_WIDTH 120
ENDPROPERTIES
CHARS 1564
STARTCHAR space
ENCODING 32
SWIDTH 600 0
DWIDTH 12 0
BBX 1 1 0 0
BITMAP
00
ENDCHAR
STARTCHAR exclam
ENCODING 33
SWIDTH 600 0
DWIDTH 12 0
BBX 4 13 4 0
BITMAP
60
60
60
60
60
60
60
60
00
60
F0
F0
60
ENDCHAR
STARTCHAR quotedbl
ENCODING 34
SWIDTH 600 0
DWIDTH 12 0
BBX 8 8 2 6
BITMAP
E7
E7
E7
E7
E7
E7
C3
C3
ENDCHAR
STARTCHAR numbersign
ENCODING 35
SWIDTH 600 0
DWIDTH 12 0
BBX 10 13 1 0
BITMAP
1980
1900
1100
7FC0
7FC0
3300
3300
FF80
FF80
3200
2200
2600
6600
ENDCHAR
STARTCHAR dollar
ENCODING 36
SWIDTH 600 0
DWIDTH 12 0
BBX 9 17 1 -2
BITMAP
0C00
0C00
0C00
3F00
7F80
7100
7000
7C00
3F00
0F80
0180
6380
FF80
3F00
0C00
0C00
0C00
ENDCHAR
STARTCHAR percent
ENCODING 37
SWIDTH 600 0
DWIDTH 12 0
BBX 12 13 0 0
BITMAP
3820
7C70
6CE0
6D80
6D00
7C00
39C0
0BE0
1B60
7370
E360
43E0
01C0
ENDCHAR
STARTCHAR ampersand
ENCODING 38
SWIDTH 600 0
DWIDTH 12 0
BBX 12 13 0 0
BITMAP
1E00
3F00
3300
3300
3700
3E70
3C60
7EE0
6FE0
E7C0
73E0
7FF0
3E20
ENDCHAR
STARTCHAR quotesingle
ENCODING 39
SWIDTH 600 0
DWIDTH 12 0
BBX 4 8 4 6
BITMAP
F0
F0
F0
F0
60
60
60
60
ENDCHAR
STARTCHAR parenleft
ENCODING 40
SWIDTH 600 0
DWIDTH 12 0
BBX 5 18 4 -3
BITMAP
10
38
30
70
E0
E0
C0
C0
C0
C0
C0
C0
E0
E0
70
30
38
10
ENDCHAR
STARTCHAR parenright
ENCODING 41
SWIDTH 600 0
DWIDTH 12 0
BBX 5 18 3 -3
BITMAP
40
E0
60
70
38
38
18
18
18
18
18
18
38
38
70
60
E0
40
ENDCHAR
STARTCHAR asterisk
ENCODING 42
SWIDTH 600 0
DWIDTH 12 0
BBX 10 9 1 2
BITMAP
0C00
0C00
4C80
FFC0
3F00
1E00
3F00
3300
6180
ENDCHAR
STARTCHAR plus
ENCODING 43
SWIDTH 600 0
DWIDTH 12 0
BBX 10 10 1 2
BITMAP
0C00
0C00
0C00
0C00
FFC0
FFC0
0C00
0C00
0C00
0C00
ENDCHAR
STARTCHAR comma
ENCODING 44
SWIDTH 600 0
DWIDTH 12 0
BBX 5 9 4 -5
BITMAP
70
F0
F8
78
30
30
F0
E0
80
ENDCHAR
STARTCHAR hyphen
ENCODING 45
SWIDTH 600 0
DWIDTH 12 0
BBX 10 2 1 6
BITMAP
FFC0
FFC0
ENDCHAR
STARTCHAR period
ENCODING 46
SWIDTH 600 0
DWIDTH 12 0
BBX 4 5 4 0
BITMAP
60
F0
F0
F0
60
ENDCHAR
STARTCHAR slash
ENCODING 47
SWIDTH 600 0
DWIDTH 12 0
BBX 10 17 1 -3
BITMAP
01C0
0380
0380
0300
0700
0600
0600
0E00
0C00
1C00
1800
1800
3800
3000
7000
7000
E000
ENDCHAR
STARTCHAR zero
ENCODING 48
SWIDTH 600 0
DWIDTH 12 0
BBX 10 13 1 0
BITMAP
1E00
3F00
7380
6180
E1C0
EDC0
FFC0
EDC0
E1C0
6180
7380
3F00
1E00
ENDCHAR
STARTCHAR one
ENCODING 49
SWIDTH 600 0
DWIDTH 12 0
BBX 9 13 2 0
BITMAP
7000
FC00
1C00
1C00
1C00
1C00
1C00
1C00
1C00
1C00
1C00
FF80
FF80
ENDCHAR
STARTCHAR two
ENCODING 50
SWIDTH 600 0
DWIDTH 12 0
BBX 10 13 1 0
BITMAP
3E00
FF00
6380
0380
0380
0380
0700
0700
0E00
1C00
3800
FFC0
FFC0
ENDCHAR
STARTCHAR three
ENCODING 51
SWIDTH 600 0
DWIDTH 12 0
BBX 10 13 1 0
BITMAP
3E00
FF80
6380
0380
0380
1F00
1F00
0380
01C0
01C0
4380
FF80
3E00
ENDCHAR
STARTCHAR four
ENCODING 52
SWIDTH 600 0
DWIDTH 12 0
BBX 10 13 1 0
BITMAP
0780
0F80
1F80
1B80
3B80
7380
6380
E380
FFC0
FFC0
0380
0380
0380
ENDCHAR
STARTCHAR five
ENCODING 53
SWIDTH 600 0
DWIDTH 12 0
BBX 10 13 1 0
BITMAP
7F80
7F80
7000
7000
7000
7F00
7F80
4380
01C0
01C0
4380
FF80
3E00
ENDCHAR
STARTCHAR six
ENCODING 54
SWIDTH 600 0
DWIDTH 12 0
BBX 10 13 1 0
BITMAP
1F00
3FC0
7080
7000
E000
EF00
FF80
F1C0
E1C0
61C0
71C0
3F80
1F00
ENDCHAR
STARTCHAR seven
ENCODING 55
SWIDTH 600 0
DWIDTH 12 0
BBX 10 13 1 0
BITMAP
FFC0
FFC0
0380
0300
0700
0E00
0E00
0C00
1C00
1C00
1C00
1C00
1C00
ENDCHAR
STARTCHAR eight
ENCODING 56
SWIDTH 600 0
DWIDTH 12 0
BBX 10 13 1 0
BITMAP
1E00
7F80
7380
6180
7380
3F00
3F00
6780
E1C0
E1C0
E1C0
7F80
3F00
ENDCHAR
STARTCHAR nine
ENCODING 57
SWIDTH 600 0
DWIDTH 12 0
BBX 10 13 1 0
BITMAP
3E00
7F00
E380
E180
E1C0
E3C0
7FC0
3DC0
01C0
0380
4380
FF00
3E00
ENDCHAR
STARTCHAR colon
ENCODING 58
SWIDTH 600 0
DWIDTH 12 0
BBX 4 11 4 0
BITMAP
60
F0
F0
F0
60
00
60
F0
F0
F0
60
ENDCHAR
STARTCHAR semicolon
ENCODING 59
SWIDTH 600 0
DWIDTH 12 0
BBX 5 16 4 -5
BITMAP
60
F0
F0
F0
60
00
00
70
F0
F8
78
30
30
F0
E0
80
ENDCHAR
STARTCHAR less
ENCODING 60
SWIDTH 600 0
DWIDTH 12 0
BBX 8 10 2 2
BITMAP
01
07
1E
78
F0
F0
78
1E
07
01
ENDCHAR
STARTCHAR equal
ENCODING 61
SWIDTH 600 0
DWIDTH 12 0
BBX 10 6 1 4
BITMAP
FFC0
FFC0
0000
0000
FFC0
FFC0
ENDCHAR
STARTCHAR greater
ENCODING 62
SWIDTH 600 0
DWIDTH 12 0
BBX 8 10 2 2
BITMAP
80
E0
78
1E
0F
0F
1E
78
E0
80
ENDCHAR
STARTCHAR question
ENCODING 63
SWIDTH 600 0
DWIDTH 12 0
BBX 8 13 2 0
BITMAP
7C
FE
47
07
0E
1E
18
38
00
38
3C
3C
38
ENDCHAR
STARTCHAR at
ENCODING 64
SWIDTH 600 0
DWIDTH 12 0
BBX 10 16 1 -3
BITMAP
1F00
3F80
71C0
E0C0
C0C0
C7C0
CFC0
DCC0
D9C0
DFC0
CEC0
C000
6000
7080
3F80
1F00
ENDCHAR
STARTCHAR A
ENCODING 65
SWIDTH 600 0
DWIDTH 12 0
BBX 12 13 0 0
BITMAP
0F00
0F00
1F80
1F80
1B80
1980
39C0
39C0
3FC0
7FE0
70E0
70E0
E070
ENDCHAR
STARTCHAR B
ENCODING 66
SWIDTH 600 0
DWIDTH 12 0
BBX 10 13 1 0
BITMAP
FF00
FF80
E3C0
E1C0
E380
FF00
FF80
E1C0
E1C0
E1C0
E1C0
FF80
FF00
ENDCHAR
STARTCHAR C
ENCODING 67
SWIDTH 600 0
DWIDTH 12 0
BBX 10 13 1 0
BITMAP
0F80
3FC0
7880
7000
E000
E000
E000
E000
E000
7000
7880
3FC0
0F80
ENDCHAR
STARTCHAR D
ENCODING 68
SWIDTH 600 0
DWIDTH 12 0
BBX 10 13 1 0
BITMAP
FE00
FF80
E380
E1C0
E1C0
E1C0
E1C0
E1C0
E1C0
E1C0
E380
FF00
FE00
ENDCHAR
STARTCHAR E
ENCODING 69
SWIDTH 600 0
DWIDTH 12 0
BBX 9 13 2 0
BITMAP
FF00
FF00
E000
E000
E000
E000
FF00
FF00
E000
E000
E000
FF80
FF80
ENDCHAR
STARTCHAR F
ENCODING 70
SWIDTH 600 0
DWIDTH 12 0
BBX 9 13 2 0
BITMAP
FF80
FF80
E000
E000
E000
E000
FF00
FF00
E000
E000
E000
E000
E000
ENDCHAR
STARTCHAR G
ENCODING 71
SWIDTH 600 0
DWIDTH 12 0
BBX 10 13 1 0
BITMAP
1F00
3FC0
7080
F000
E000
E000
E7C0
E7C0
E1C0
F1C0
71C0
3FC0
1F00
ENDCHAR
STARTCHAR H
ENCODING 72
SWIDTH 600 0
DWIDTH 12 0
BBX 10 13 1 0
BITMAP
E1C0
E1C0
E1C0
E1C0
E1C0
E1C0
FFC0
FFC0
E1C0
E1C0
E1C0
E1C0
E1C0
ENDCHAR
STARTCHAR I
ENCODING 73
SWIDTH 600 0
DWIDTH 12 0
BBX 10 13 1 0
BITMAP
FFC0
FFC0
0C00
0C00
0C00
0C00
0C00
0C00
0C00
0C00
0C00
FFC0
FFC0
ENDCHAR
STARTCHAR J
ENCODING 74
SWIDTH 600 0
DWIDTH 12 0
BBX 9 13 1 0
BITMAP
7F80
7F80
0380
0380
0380
0380
0380
0380
0380
0380
6380
FF00
3E00
ENDCHAR
STARTCHAR K
ENCODING 75
SWIDTH 600 0
DWIDTH 12 0
BBX 11 13 1 0
BITMAP
E1E0
E380
E780
E700
EE00
FE00
FE00
FF00
F700
E380
E3C0
E1C0
E1E0
ENDCHAR
STARTCHAR L
ENCODING 76
SWIDTH 600 0
DWIDTH 12 0
BBX 9 13 2 0
BITMAP
E000
E000
E000
E000
E000
E000
E000
E000
E000
E000
E000
FF80
FF80
ENDCHAR
STARTCHAR M
ENCODING 77
SWIDTH 600 0
DWIDTH 12 0
BBX 10 13 1 0
BITMAP
E1C0
F3C0
F3C0
F3C0
D2C0
DEC0
DFC0
EDC0
EDC0
EDC0
E1C0
E1C0
E1C0
ENDCHAR
STARTCHAR N
ENCODING 78
SWIDTH 600 0
DWIDTH 12 0
BBX 10 13 1 0
BITMAP
F1C0
F1C0
F1C0
F9C0
F9C0
EDC0
EDC0
EDC0
E7C0
E7C0
E3C0
E3C0
E3C0
ENDCHAR
STARTCHAR O
ENCODING 79
SWIDTH 600 0
DWIDTH 12 0
BBX 10 13 1 0
BITMAP
1E00
7F80
7380
E1C0
E1C0
E1C0
E1C0
E1C0
E1C0
E1C0
7380
7F80
1E00
ENDCHAR
STARTCHAR P
ENCODING 80
SWIDTH 600 0
DWIDTH 12 0
BBX 10 13 1 0
BITMAP
FF00
FF80
E1C0
E1C0
E1C0
E1C0
E1C0
FF80
FF00
E000
E000
E000
E000
ENDCHAR
STARTCHAR Q
ENCODING 81
SWIDTH 600 0
DWIDTH 12 0
BBX 11 16 1 -3
BITMAP
1E00
7F80
7380
E1C0
E1C0
E1C0
E1C0
E1C0
E1C0
E1C0
7380
7F80
3F00
0E00
07C0
03E0
ENDCHAR
STARTCHAR R
ENCODING 82
SWIDTH 600 0
DWIDTH 12 0
BBX 11 13 1 0
BITMAP
FF00
FF80
E1C0
E1C0
E1C0
E1C0
FF80
FF00
E700
E380
E380
E1C0
E1E0
ENDCHAR
STARTCHAR S
ENCODING 83
SWIDTH 600 0
DWIDTH 12 0
BBX 10 13 1 0
BITMAP
1F00
7FC0
7180
7000
7000
7E00
3F80
0FC0
03C0
01C0
61C0
FF80
3F00
ENDCHAR
STARTCHAR T
ENCODING 84
SWIDTH 600 0
DWIDTH 12 0
BBX 10 13 1 0
BITMAP
FFC0
FFC0
0C00
0C00
0C00
0C00
0C00
0C00
0C00
0C00
0C00
0C00
0C00
ENDCHAR
STARTCHAR U
ENCODING 85
SWIDTH 600 0
DWIDTH 12 0
BBX 10 13 1 0
BITMAP
E1C0
E1C0
E1C0
E1C0
E1C0
E1C0
E1C0
E1C0
E1C0
E1C0
7380
7F80
1F00
ENDCHAR
STARTCHAR V
ENCODING 86
SWIDTH 600 0
DWIDTH 12 0
BBX 12 13 0 0
BITMAP
F070
70E0
70E0
70E0
38C0
39C0
39C0
1980
1D80
1F80
1F80
0F00
0F00
ENDCHAR
STARTCHAR W
ENCODING 87
SWIDTH 600 0
DWIDTH 12 0
BBX 12 13 0 0
BITMAP
E070
E070
E070
6660
6660
6760
7F60
7F60
7F60
7D60
79E0
39C0
39C0
ENDCHAR
STARTCHAR X
ENCODING 88
SWIDTH 600 0
DWIDTH 12 0
BBX 12 13 0 0
BITMAP
70E0
78E0
39C0
1D80
1F80
0F00
0F00
1F00
1F80
39C0
39C0
70E0
F0F0
ENDCHAR
STARTCHAR Y
ENCODING 89
SWIDTH 600 0
DWIDTH 12 0
BBX 12 13 0 0
BITMAP
F0F0
70E0
38C0
39C0
1980
1F80
1F80
0F00
0F00
0600
0600
0600
0600
ENDCHAR
STARTCHAR Z
ENCODING 90
SWIDTH 600 0
DWIDTH 12 0
BBX 10 13 1 0
BITMAP
7FC0
7FC0
0380
0700
0700
0E00
1E00
1C00
3800
3800
7000
FFC0
FFC0
ENDCHAR
STARTCHAR bracketleft
ENCODING 91
SWIDTH 600 0
DWIDTH 12 0
BBX 6 17 4 -3
BITMAP
FC
FC
C0
C0
C0
C0
C0
C0
C0
C0
C0
C0
C0
C0
C0
FC
FC
ENDCHAR
STARTCHAR backslash
ENCODING 92
SWIDTH 600 0
DWIDTH 12 0
BBX 10 17 1 -3
BITMAP
E000
7000
7000
3000
3800
1800
1800
1C00
0C00
0E00
0600
0600
0700
0300
0380
0380
01C0
ENDCHAR
STARTCHAR bracketright
ENCODING 93
SWIDTH 600 0
DWIDTH 12 0
BBX 6 17 2 -3
BITMAP
FC
FC
0C
0C
0C
0C
0C
0C
0C
0C
0C
0C
0C
0C
0C
FC
FC
ENDCHAR
STARTCHAR asciicircum
ENCODING 94
SWIDTH 600 0
DWIDTH 12 0
BBX 8 8 2 5
BITMAP
18
3C
3C
7E
66
66
E7
C3
ENDCHAR
STARTCHAR underscore
ENCODING 95
SWIDTH 600 0
DWIDTH 12 0
BBX 10 2 1 -3
BITMAP
FFC0
FFC0
ENDCHAR
STARTCHAR grave
ENCODING 96
SWIDTH 600 0
DWIDTH 12 0
BBX 6 5 2 11
BITMAP
20
70
F8
38
0C
ENDCHAR
STARTCHAR a
ENCODING 97
SWIDTH 600 0
DWIDTH 12 0
BBX 10 10 1 0
BITMAP
3F00
7F80
6380
01C0
1FC0
7FC0
F1C0
E3C0
7FC0
7DC0
ENDCHAR
STARTCHAR b
ENCODING 98
SWIDTH 600 0
DWIDTH 12 0
BBX 10 14 1 0
BITMAP
E000
E000
E000
E000
EF00
FF80
F3C0
E1C0
E1C0
E1C0
E1C0
F3C0
FF80
EF00
ENDCHAR
STARTCHAR c
ENCODING 99
SWIDTH 600 0
DWIDTH 12 0
BBX 10 10 1 0
BITMAP
1F80
3FC0
7880
7000
E000
E000
7000
7080
3FC0
1F80
ENDCHAR
STARTCHAR d
ENCODING 100
SWIDTH 600 0
DWIDTH 12 0
BBX 10 14 1 0
BITMAP
01C0
01C0
01C0
01C0
3DC0
7FC0
F3C0
E1C0
E1C0
E1C0
E1C0
F3C0
7FC0
3DC0
ENDCHAR
STARTCHAR e
ENCODING 101
SWIDTH 600 0
DWIDTH 12 0
BBX 10 10 1 0
BITMAP
1F00
7F80
71C0
E1C0
FFC0
FFC0
E000
7080
7F80
1F40
ENDCHAR
STARTCHAR f
ENCODING 102
SWIDTH 600 0
DWIDTH 12 0
BBX 10 14 2 0
BITMAP
0FC0
1F80
3C00
3800
FF80
FF80
3800
3800
3800
3800
3800
3800
3800
3800
ENDCHAR
STARTCHAR g
ENCODING 103
SWIDTH 600 0
DWIDTH 12 0
BBX 10 14 1 -4
BITMAP
3FC0
7FC0
7380
E380
7380
7F00
7E00
6000
7F80
3FC0
E0C0
E1C0
FFC0
3F00
ENDCHAR
STARTCHAR h
ENCODING 104
SWIDTH 600 0
DWIDTH 12 0
BBX 10 14 1 0
BITMAP
E000
E000
E000
E000
E700
FF80
F1C0
E1C0
E1C0
E1C0
E1C0
E1C0
E1C0
E1C0
ENDCHAR
STARTCHAR i
ENCODING 105
SWIDTH 600 0
DWIDTH 12 0
BBX 7 15 2 0
BITMAP
0C
1E
1E
0C
00
FE
FE
0E
0E
0E
0E
0E
0E
0E
0E
ENDCHAR
STARTCHAR j
ENCODING 106
SWIDTH 600 0
DWIDTH 12 0
BBX 8 19 1 -4
BITMAP
06
0F
0F
06
00
7F
7F
07
07
07
07
07
07
07
06
06
0E
FE
F8
ENDCHAR
STARTCHAR k
ENCODING 107
SWIDTH 600 0
DWIDTH 12 0
BBX 10 14 2 0
BITMAP
C000
C000
C000
C000
C380
C700
CE00
DC00
FC00
FE00
EE00
C700
C380
C3C0
ENDCHAR
STARTCHAR l
ENCODING 108
SWIDTH 600 0
DWIDTH 12 0
BBX 10 14 1 0
BITMAP
FC00
FC00
1C00
1C00
1C00
1C00
1C00
1C00
1C00
1C00
1C00
1C00
0FC0
07C0
ENDCHAR
STARTCHAR m
ENCODING 109
SWIDTH 600 0
DWIDTH 12 0
BBX 10 10 1 0
BITMAP
DDC0
FFC0
EEC0
ECC0
ECC0
ECC0
ECC0
ECC0
ECC0
ECC0
ENDCHAR
STARTCHAR n
ENCODING 110
SWIDTH 600 0
DWIDTH 12 0
BBX 10 10 1 0
BITMAP
E700
FF80
F1C0
E1C0
E1C0
E1C0
E1C0
E1C0
E1C0
E1C0
ENDCHAR
STARTCHAR o
ENCODING 111
SWIDTH 600 0
DWIDTH 12 0
BBX 10 10 1 0
BITMAP
1E00
7F80
7380
E1C0
E1C0
E1C0
E1C0
7380
7F80
1E00
ENDCHAR
STARTCHAR p
ENCODING 112
SWIDTH 600 0
DWIDTH 12 0
BBX 10 14 1 -4
BITMAP
EF00
FF80
F3C0
E1C0
E1C0
E1C0
E1C0
F3C0
FF80
EF00
E000
E000
E000
E000
ENDCHAR
STARTCHAR q
ENCODING 113
SWIDTH 600 0
DWIDTH 12 0
BBX 10 14 1 -4
BITMAP
3DC0
7FC0
F3C0
E1C0
E1C0
E1C0
E1C0
F3C0
7FC0
3DC0
01C0
01C0
01C0
01C0
ENDCHAR
STARTCHAR r
ENCODING 114
SWIDTH 600 0
DWIDTH 12 0
BBX 9 10 2 0
BITMAP
E780
EF80
F800
F000
E000
E000
E000
E000
E000
E000
ENDCHAR
STARTCHAR s
ENCODING 115
SWIDTH 600 0
DWIDTH 12 0
BBX 10 10 1 0
BITMAP
1F00
7FC0
7180
7000
7F00
1F80
03C0
61C0
FF80
3F00
ENDCHAR
STARTCHAR t
ENCODING 116
SWIDTH 600 0
DWIDTH 12 0
BBX 10 13 1 0
BITMAP
1800
1800
1800
FFC0
FFC0
3800
3800
3800
3800
1800
1C00
1FC0
0FC0
ENDCHAR
STARTCHAR u
ENCODING 117
SWIDTH 600 0
DWIDTH 12 0
BBX 10 10 1 0
BITMAP
E1C0
E1C0
E1C0
E1C0
E1C0
E1C0
E3C0
E3C0
7FC0
39C0
ENDCHAR
STARTCHAR v
ENCODING 118
SWIDTH 600 0
DWIDTH 12 0
BBX 10 10 1 0
BITMAP
E1C0
E1C0
6180
7380
7380
3300
3F00
3F00
1E00
1E00
ENDCHAR
STARTCHAR w
ENCODING 119
SWIDTH 600 0
DWIDTH 12 0
BBX 12 10 0 0
BITMAP
E070
E670
E670
6760
7F60
7F60
7FE0
7DE0
79E0
39C0
ENDCHAR
STARTCHAR x
ENCODING 120
SWIDTH 600 0
DWIDTH 12 0
BBX 10 10 1 0
BITMAP
E1C0
7380
3B00
3F00
1E00
1E00
3F00
7700
7380
E1C0
ENDCHAR
STARTCHAR y
ENCODING 121
SWIDTH 600 0
DWIDTH 12 0
BBX 10 14 1 -4
BITMAP
E1C0
E1C0
7180
7380
3380
3B00
1B00
1F00
0E00
0E00
0C00
1C00
7800
F000
ENDCHAR
STARTCHAR z
ENCODING 122
SWIDTH 600 0
DWIDTH 12 0
BBX 10 10 1 0
BITMAP
7FC0
7F80
0780
0F00
0E00
1C00
3C00
7800
7FC0
FFC0
ENDCHAR
STARTCHAR braceleft
ENCODING 123
SWIDTH 600 0
DWIDTH 12 0
BBX 8 17 2 -3
BITMAP
0F
1F
18
18
18
18
38
F8
F0
38
18
18
18
18
18
1F
0F
ENDCHAR
STARTCHAR bar
ENCODING 124
SWIDTH 600 0
DWIDTH 12 0
BBX 2 20 5 -5
BITMAP
C0
C0
C0
C0
C0
C0
C0
C0
C0
C0
C0
C0
C0
C0
C0
C0
C0
C0
C0
C0
ENDCHAR
STARTCHAR braceright
ENCODING 125
SWIDTH 600 0
DWIDTH 12 0
BBX 8 17 2 -3
BITMAP
F0
F8
18
18
18
18
1C
1F
0F
1C
18
18
18
18
18
F8
F0
ENDCHAR
STARTCHAR asciitilde
ENCODING 126
SWIDTH 600 0
DWIDTH 12 0
BBX 10 3 1 5
BITMAP
38C0
7F80
C700
ENDCHAR
STARTCHAR uni00A0
ENCODING 160
SWIDTH 600 0
DWIDTH 12 0
BBX 1 1 0 0
BITMAP
00
ENDCHAR
STARTCHAR exclamdown
ENCODING 161
SWIDTH 600 0
DWIDTH 12 0
BBX 4 14 4 -4
BITMAP
60
F0
F0
60
00
60
60
60
60
60
60
60
60
60
ENDCHAR
STARTCHAR cent
ENCODING 162
SWIDTH 600 0
DWIDTH 12 0
BBX 8 14 2 -1
BITMAP
0C
0C
1F
7F
FE
EC
EC
EC
EC
FE
7F
3F
0C
0C
ENDCHAR
STARTCHAR sterling
ENCODING 163
SWIDTH 600 0
DWIDTH 12 0
BBX 10 13 1 0
BITMAP
0F80
1FC0
3880
3800
3000
3800
FF00
FF00
1800
1800
3800
7FC0
FFC0
ENDCHAR
STARTCHAR currency
ENCODING 164
SWIDTH 600 0
DWIDTH 12 0
BBX 10 10 1 2
BITMAP
C0C0
FFC0
7F80
7380
6180
6180
7380
7F80
FFC0
C0C0
ENDCHAR
STARTCHAR yen
ENCODING 165
SWIDTH 600 0
DWIDTH 12 0
BBX 10 13 1 0
BITMAP
E1C0
E1C0
7380
7380
3B00
1E00
FFC0
FFC0
0C00
FFC0
FFC0
0C00
0C00
ENDCHAR
STARTCHAR brokenbar
ENCODING 166
SWIDTH 600 0
DWIDTH 12 0
BBX 2 20 5 -5
BITMAP
C0
C0
C0
C0
C0
C0
C0
C0
C0
00
00
C0
C0
C0
C0
C0
C0
C0
C0
C0
ENDCHAR
STARTCHAR section
ENCODING 167
SWIDTH 600 0
DWIDTH 12 0
BBX 10 16 1 -2
BITMAP
1E00
3F80
3100
7800
3C00
7F00
6F80
E3C0
71C0
7D80
3F80
0F00
0700
2300
7F00
3E00
ENDCHAR
STARTCHAR dieresis
ENCODING 168
SWIDTH 600 0
DWIDTH 12 0
BBX 8 3 2 12
BITMAP
66
E7
66
ENDCHAR
STARTCHAR copyright
ENCODING 169
SWIDTH 600 0
DWIDTH 12 0
BBX 12 13 0 0
BITMAP
0F00
3FC0
70E0
6060
4F20
DF30
D830
DF30
4F20
6460
70E0
3FC0
0F00
ENDCHAR
STARTCHAR ordfeminine
ENCODING 170
SWIDTH 600 0
DWIDTH 12 0
BBX 6 7 3 7
BITMAP
78
FC
8C
7C
FC
FC
7C
ENDCHAR
STARTCHAR guillemotleft
ENCODING 171
SWIDTH 600 0
DWIDTH 12 0
BBX 10 9 1 1
BITMAP
1080
39C0
E380
E700
C600
E700
E380
31C0
1880
ENDCHAR
STARTCHAR logicalnot
ENCODING 172
SWIDTH 600 0
DWIDTH 12 0
BBX 10 6 1 2
BITMAP
FFC0
FFC0
01C0
01C0
01C0
01C0
ENDCHAR
STARTCHAR uni00AD
ENCODING 173
SWIDTH 600 0
DWIDTH 12 0
BBX 10 2 1 6
BITMAP
FFC0
FFC0
ENDCHAR
STARTCHAR registered
ENCODING 174
SWIDTH 600 0
DWIDTH 12 0
BBX 8 9 2 5
BITMAP
3C
7E
C3
BD
B9
BD
C3
7E
3C
ENDCHAR
STARTCHAR macron
ENCODING 175
SWIDTH 600 0
DWIDTH 12 0
BBX 6 2 3 12
BITMAP
FC
FC
ENDCHAR
STARTCHAR degree
ENCODING 176
SWIDTH 600 0
DWIDTH 12 0
BBX 6 6 3 8
BITMAP
78
FC
CC
CC
FC
78
ENDCHAR
STARTCHAR plusminus
ENCODING 177
SWIDTH 600 0
DWIDTH 12 0
BBX 10 11 1 0
BITMAP
0C00
0C00
0C00
FFC0
FFC0
0C00
0C00
0C00
0000
FFC0
FFC0
ENDCHAR
STARTCHAR two.sups
ENCODING 178
SWIDTH 600 0
DWIDTH 12 0
BBX 6 8 3 7
BITMAP
78
FC
8C
0C
18
30
FC
FC
ENDCHAR
STARTCHAR three.sups
ENCODING 179
SWIDTH 600 0
DWIDTH 12 0
BBX 6 8 3 7
BITMAP
78
FC
8C
38
3C
8C
FC
78
ENDCHAR
STARTCHAR acute
ENCODING 180
SWIDTH 600 0
DWIDTH 12 0
BBX 6 5 4 11
BITMAP
10
38
7C
70
C0
ENDCHAR
STARTCHAR uni00B5
ENCODING 181
SWIDTH 600 0
DWIDTH 12 0
BBX 11 14 1 -4
BITMAP
E180
E180
E180
E180
E180
E180
E380
F380
FFC0
FDE0
E000
E000
E000
E000
ENDCHAR
STARTCHAR paragraph
ENCODING 182
SWIDTH 600 0
DWIDTH 12 0
BBX 10 15 1 -2
BITMAP
3DC0
7DC0
FDC0
FDC0
FDC0
FDC0
FDC0
7DC0
3DC0
01C0
01C0
01C0
01C0
01C0
01C0
ENDCHAR
STARTCHAR periodcentered
ENCODING 183
SWIDTH 600 0
DWIDTH 12 0
BBX 4 5 4 5
BITMAP
60
F0
F0
F0
60
ENDCHAR
STARTCHAR cedilla
ENCODING 184
SWIDTH 600 0
DWIDTH 12 0
BBX 4 5 4 -5
BITMAP
60
60
B0
30
E0
ENDCHAR
STARTCHAR one.sups
ENCODING 185
SWIDTH 600 0
DWIDTH 12 0
BBX 7 8 3 7
BITMAP
38
78
18
18
18
18
FE
FE
ENDCHAR
STARTCHAR ordmasculine
ENCODING 186
SWIDTH 600 0
DWIDTH 12 0
BBX 6 7 3 7
BITMAP
78
FC
CC
CC
CC
FC
78
ENDCHAR
STARTCHAR guillemotright
ENCODING 187
SWIDTH 600 0
DWIDTH 12 0
BBX 10 9 1 1
BITMAP
4200
E700
71C0
39C0
18C0
39C0
71C0
6300
C600
ENDCHAR
STARTCHAR onequarter
ENCODING 188
SWIDTH 600 0
DWIDTH 12 0
BBX 12 13 0 0
BITMAP
0020
3870
78E0
1980
1900
1800
1800
0980
19E0
7360
E3F0
43F0
0060
ENDCHAR
STARTCHAR onehalf
ENCODING 189
SWIDTH 600 0
DWIDTH 12 0
BBX 12 13 0 0
BITMAP
0020
3870
78E0
1980
1900
1800
19C0
0BE0
1A60
7060
E0C0
41E0
03E0
ENDCHAR
STARTCHAR threequarters
ENCODING 190
SWIDTH 600 0
DWIDTH 12 0
BBX 12 13 0 0
BITMAP
7820
7C70
8CE0
39C0
BC80
7C00
F800
0980
19E0
3360
63F0
C3F0
0060
ENDCHAR
STARTCHAR questiondown
ENCODING 191
SWIDTH 600 0
DWIDTH 12 0
BBX 8 14 2 -4
BITMAP
1C
3C
3C
1C
00
1C
1C
38
70
E0
E0
E2
7F
3E
ENDCHAR
STARTCHAR Agrave
ENCODING 192
SWIDTH 600 0
DWIDTH 12 0
BBX 12 18 0 0
BITMAP
0800
1E00
0F00
0200
0000
0F00
0F00
1F80
1F80
1B80
1980
39C0
39C0
3FC0
7FE0
70E0
70E0
E070
ENDCHAR
STARTCHAR Aacute
ENCODING 193
SWIDTH 600 0
DWIDTH 12 0
BBX 12 18 0 0
BITMAP
0100
0780
0F00
0400
0000
0F00
0F00
1F80
1F80
1B80
1980
39C0
39C0
3FC0
7FE0
70E0
70E0
E070
ENDCHAR
STARTCHAR Acircumflex
ENCODING 194
SWIDTH 600 0
DWIDTH 12 0
BBX 12 17 0 0
BITMAP
0F00
1F80
1080
0000
0F00
0F00
1F80
1F80
1B80
1980
39C0
39C0
3FC0
7FE0
70E0
70E0
E070
ENDCHAR
STARTCHAR Atilde
ENCODING 195
SWIDTH 600 0
DWIDTH 12 0
BBX 12 17 0 0
BITMAP
1CC0
3FC0
3380
0000
0F00
0F00
1F80
1F80
1B80
1980
39C0
39C0
3FC0
7FE0
70E0
70E0
E070
ENDCHAR
STARTCHAR Adieresis
ENCODING 196
SWIDTH 600 0
DWIDTH 12 0
BBX 12 17 0 0
BITMAP
1980
39C0
1980
0000
0F00
0F00
1F80
1F80
1B80
1980
39C0
39C0
3FC0
7FE0
70E0
70E0
E070
ENDCHAR
STARTCHAR Aring
ENCODING 197
SWIDTH 600 0
DWIDTH 12 0
BBX 12 18 0 0
BITMAP
0F00
0900
0900
0F00
0000
0F00
0F00
1F80
1F80
1B80
1980
39C0
39C0
3FC0
7FE0
70E0
70E0
E070
ENDCHAR
STARTCHAR AE
ENCODING 198
SWIDTH 600 0
DWIDTH 12 0
BBX 12 13 0 0
BITMAP
0FF0
0FF0
1F80
1F80
1F80
3B80
3BE0
3BE0
7F80
7F80
7380
E3F0
E3F0
ENDCHAR
STARTCHAR Ccedilla
ENCODING 199
SWIDTH 600 0
DWIDTH 12 0
BBX 10 18 1 -5
BITMAP
0F80
3FC0
7880
7000
E000
E000
E000
E000
E000
7000
7880
3FC0
0F80
0600
0E00
0700
0700
0C00
ENDCHAR
STARTCHAR Egrave
ENCODING 200
SWIDTH 600 0
DWIDTH 12 0
BBX 9 18 2 0
BITMAP
1000
3800
1C00
0E00
0000
FF00
FF00
E000
E000
E000
E000
FF00
FF00
E000
E000
E000
FF80
FF80
ENDCHAR
STARTCHAR Eacute
ENCODING 201
SWIDTH 600 0
DWIDTH 12 0
BBX 9 18 2 0
BITMAP
0400
0E00
1C00
3800
0000
FF00
FF00
E000
E000
E000
E000
FF00
FF00
E000
E000
E000
FF80
FF80
ENDCHAR
STARTCHAR Ecircumflex
ENCODING 202
SWIDTH 600 0
DWIDTH 12 0
BBX 9 17 2 0
BITMAP
3C00
3600
6300
0000
FF00
FF00
E000
E000
E000
E000
FF00
FF00
E000
E000
E000
FF80
FF80
ENDCHAR
STARTCHAR Edieresis
ENCODING 203
SWIDTH 600 0
DWIDTH 12 0
BBX 9 17 2 0
BITMAP
6300
7700
6300
0000
FF00
FF00
E000
E000
E000
E000
FF00
FF00
E000
E000
E000
FF80
FF80
ENDCHAR
STARTCHAR Igrave
ENCODING 204
SWIDTH 600 0
DWIDTH 12 0
BBX 10 18 1 0
BITMAP
1000
3C00
1E00
0400
0000
FFC0
FFC0
0C00
0C00
0C00
0C00
0C00
0C00
0C00
0C00
0C00
FFC0
FFC0
ENDCHAR
STARTCHAR Iacute
ENCODING 205
SWIDTH 600 0
DWIDTH 12 0
BBX 10 18 1 0
BITMAP
0200
0F00
1E00
0800
0000
FFC0
FFC0
0C00
0C00
0C00
0C00
0C00
0C00
0C00
0C00
0C00
FFC0
FFC0
ENDCHAR
STARTCHAR Icircumflex
ENCODING 206
SWIDTH 600 0
DWIDTH 12 0
BBX 10 17 1 0
BITMAP
1E00
3F00
2100
0000
FFC0
FFC0
0C00
0C00
0C00
0C00
0C00
0C00
0C00
0C00
0C00
FFC0
FFC0
ENDCHAR
STARTCHAR Idieresis
ENCODING 207
SWIDTH 600 0
DWIDTH 12 0
BBX 10 17 1 0
BITMAP
3300
7380
3300
0000
FFC0
FFC0
0C00
0C00
0C00
0C00
0C00
0C00
0C00
0C00
0C00
FFC0
FFC0
ENDCHAR
STARTCHAR Eth
ENCODING 208
SWIDTH 600 0
DWIDTH 12 0
BBX 11 13 0 0
BITMAP
7F00
7FC0
71C0
70E0
70E0
FEE0
FEE0
70E0
70E0
70E0
71C0
7F80
7F00
ENDCHAR
STARTCHAR Ntilde
ENCODING 209
SWIDTH 600 0
DWIDTH 12 0
BBX 10 17 1 0
BITMAP
3980
7F80
6700
0000
F1C0
F1C0
F1C0
F9C0
F9C0
EDC0
EDC0
EDC0
E7C0
E7C0
E3C0
E3C0
E3C0
ENDCHAR
STARTCHAR Ograve
ENCODING 210
SWIDTH 600 0
DWIDTH 12 0
BBX 10 18 1 0
BITMAP
1000
3C00
1E00
0400
0000
1E00
7F80
7380
E1C0
E1C0
E1C0
E1C0
E1C0
E1C0
E1C0
7380
7F80
1E00
ENDCHAR
STARTCHAR Oacute
ENCODING 211
SWIDTH 600 0
DWIDTH 12 0
BBX 10 18 1 0
BITMAP
0200
0F00
1E00
0800
0000
1E00
7F80
7380
E1C0
E1C0
E1C0
E1C0
E1C0
E1C0
E1C0
7380
7F80
1E00
ENDCHAR
STARTCHAR Ocircumflex
ENCODING 212
SWIDTH 600 0
DWIDTH 12 0
BBX 10 17 1 0
BITMAP
1E00
3F00
2100
0000
1E00
7F80
7380
E1C0
E1C0
E1C0
E1C0
E1C0
E1C0
E1C0
7380
7F80
1E00
ENDCHAR
STARTCHAR Otilde
ENCODING 213
SWIDTH 600 0
DWIDTH 12 0
BBX 10 17 1 0
BITMAP
3980
7F80
6700
0000
1E00
7F80
7380
E1C0
E1C0
E1C0
E1C0
E1C0
E1C0
E1C0
7380
7F80
1E00
ENDCHAR
STARTCHAR Odieresis
ENCODING 214
SWIDTH 600 0
DWIDTH 12 0
BBX 10 17 1 0
BITMAP
3300
7380
3300
0000
1E00
7F80
7380
E1C0
E1C0
E1C0
E1C0
E1C0
E1C0
E1C0
7380
7F80
1E00
ENDCHAR
STARTCHAR multiply
ENCODING 215
SWIDTH 600 0
DWIDTH 12 0
BBX 8 9 2 2
BITMAP
82
C7
E6
7C
3C
3C
7E
E7
42
ENDCHAR
STARTCHAR Oslash
ENCODING 216
SWIDTH 600 0
DWIDTH 12 0
BBX 12 15 0 -1
BITMAP
0040
0F70
3FE0
39C0
71E0
73E0
73E0
76E0
7CE0
7CE0
78E0
39C0
7FC0
EF00
4000
ENDCHAR
STARTCHAR Ugrave
ENCODING 217
SWIDTH 600 0
DWIDTH 12 0
BBX 10 18 1 0
BITMAP
1000
3C00
1E00
0400
0000
E1C0
E1C0
E1C0
E1C0
E1C0
E1C0
E1C0
E1C0
E1C0
E1C0
7380
7F80
1F00
ENDCHAR
STARTCHAR Uacute
ENCODING 218
SWIDTH 600 0
DWIDTH 12 0
BBX 10 18 1 0
BITMAP
0200
0F00
1E00
0800
0000
E1C0
E1C0
E1C0
E1C0
E1C0
E1C0
E1C0
E1C0
E1C0
E1C0
7380
7F80
1F00
ENDCHAR
STARTCHAR Ucircumflex
ENCODING 219
SWIDTH 600 0
DWIDTH 12 0
BBX 10 17 1 0
BITMAP
1E00
3F00
2100
0000
E1C0
E1C0
E1C0
E1C0
E1C0
E1C0
E1C0
E1C0
E1C0
E1C0
7380
7F80
1F00
ENDCHAR
STARTCHAR Udieresis
ENCODING 220
SWIDTH 600 0
DWIDTH 12 0
BBX 10 17 1 0
BITMAP
3300
7380
3300
0000
E1C0
E1C0
E1C0
E1C0
E1C0
E1C0
E1C0
E1C0
E1C0
E1C0
7380
7F80
1F00
ENDCHAR
STARTCHAR Yacute
ENCODING 221
SWIDTH 600 0
DWIDTH 12 0
BBX 12 18 0 0
BITMAP
0100
0780
0F00
0400
0000
F0F0
70E0
38C0
39C0
1980
1F80
1F80
0F00
0F00
0600
0600
0600
0600
ENDCHAR
STARTCHAR Thorn
ENCODING 222
SWIDTH 600 0
DWIDTH 12 0
BBX 10 13 1 0
BITMAP
E000
E000
FF00
FFC0
E1C0
E1C0
E1C0
E1C0
FF80
FF00
E000
E000
E000
ENDCHAR
STARTCHAR germandbls
ENCODING 223
SWIDTH 600 0
DWIDTH 12 0
BBX 10 14 1 0
BITMAP
3E00
7F00
7300
E380
E700
E700
E600
E700
E780
E3C0
E0C0
E8C0
E7C0
EF80
ENDCHAR
STARTCHAR agrave
ENCODING 224
SWIDTH 600 0
DWIDTH 12 0
BBX 10 16 1 0
BITMAP
1000
3800
1C00
0E00
0400
0000
3F00
7F80
6380
01C0
1FC0
7FC0
F1C0
E3C0
7FC0
7DC0
ENDCHAR
STARTCHAR aacute
ENCODING 225
SWIDTH 600 0
DWIDTH 12 0
BBX 10 16 1 0
BITMAP
0200
0300
0780
0E00
0400
0000
3F00
7F80
6380
01C0
1FC0
7FC0
F1C0
E3C0
7FC0
7DC0
ENDCHAR
STARTCHAR acircumflex
ENCODING 226
SWIDTH 600 0
DWIDTH 12 0
BBX 10 15 1 0
BITMAP
0E00
1F00
3B80
2100
0000
3F00
7F80
6380
01C0
1FC0
7FC0
F1C0
E3C0
7FC0
7DC0
ENDCHAR
STARTCHAR atilde
ENCODING 227
SWIDTH 600 0
DWIDTH 12 0
BBX 10 14 1 0
BITMAP
3D80
3F80
2700
0000
3F00
7F80
6380
01C0
1FC0
7FC0
F1C0
E3C0
7FC0
7DC0
ENDCHAR
STARTCHAR adieresis
ENCODING 228
SWIDTH 600 0
DWIDTH 12 0
BBX 10 15 1 0
BITMAP
3380
3B80
3380
0000
0000
3F00
7F80
6380
01C0
1FC0
7FC0
F1C0
E3C0
7FC0
7DC0
ENDCHAR
STARTCHAR aring
ENCODING 229
SWIDTH 600 0
DWIDTH 12 0
BBX 10 15 1 0
BITMAP
0E00
1B00
1B00
0E00
0000
3F00
7F80
6380
01C0
1FC0
7FC0
F1C0
E3C0
7FC0
7DC0
ENDCHAR
STARTCHAR ae
ENCODING 230
SWIDTH 600 0
DWIDTH 12 0
BBX 12 10 0 0
BITMAP
39C0
7FE0
4770
1E30
7FF0
77F0
E600
E720
7FE0
79F0
ENDCHAR
STARTCHAR ccedilla
ENCODING 231
SWIDTH 600 0
DWIDTH 12 0
BBX 10 15 1 -5
BITMAP
1F80
3FC0
7880
7000
E000
E000
7000
7080
3FC0
1F80
0600
0E00
0700
0700
0C00
ENDCHAR
STARTCHAR egrave
ENCODING 232
SWIDTH 600 0
DWIDTH 12 0
BBX 10 16 1 0
BITMAP
1000
3800
3C00
0E00
0400
0000
1F00
7F80
71C0
E1C0
FFC0
FFC0
E000
7080
7F80
1F40
ENDCHAR
STARTCHAR eacute
ENCODING 233
SWIDTH 600 0
DWIDTH 12 0
BBX 10 16 1 0
BITMAP
0200
0700
0780
0E00
0400
0000
1F00
7F80
71C0
E1C0
FFC0
FFC0
E000
7080
7F80
1F40
ENDCHAR
STARTCHAR ecircumflex
ENCODING 234
SWIDTH 600 0
DWIDTH 12 0
BBX 10 15 1 0
BITMAP
1E00
1F00
3B80
2100
0000
1F00
7F80
71C0
E1C0
FFC0
FFC0
E000
7080
7F80
1F40
ENDCHAR
STARTCHAR edieresis
ENCODING 235
SWIDTH 600 0
DWIDTH 12 0
BBX 10 15 1 0
BITMAP
3380
7B80
3380
0000
0000
1F00
7F80
71C0
E1C0
FFC0
FFC0
E000
7080
7F80
1F40
ENDCHAR
STARTCHAR igrave
ENCODING 236
SWIDTH 600 0
DWIDTH 12 0
BBX 7 16 2 0
BITMAP
10
38
7C
1C
0C
00
FE
FE
0E
0E
0E
0E
0E
0E
0E
0E
ENDCHAR
STARTCHAR iacute
ENCODING 237
SWIDTH 600 0
DWIDTH 12 0
BBX 8 16 2 0
BITMAP
02
07
0F
1E
08
00
FE
FE
0E
0E
0E
0E
0E
0E
0E
0E
ENDCHAR
STARTCHAR icircumflex
ENCODING 238
SWIDTH 600 0
DWIDTH 12 0
BBX 9 15 2 0
BITMAP
1E00
3F00
3300
6180
0000
FE00
FE00
0E00
0E00
0E00
0E00
0E00
0E00
0E00
0E00
ENDCHAR
STARTCHAR idieresis
ENCODING 239
SWIDTH 600 0
DWIDTH 12 0
BBX 9 15 2 0
BITMAP
7300
7380
7300
0000
0000
FE00
FE00
0E00
0E00
0E00
0E00
0E00
0E00
0E00
0E00
ENDCHAR
STARTCHAR eth
ENCODING 240
SWIDTH 600 0
DWIDTH 12 0
BBX 10 14 1 0
BITMAP
1080
3F80
1E00
3F00
6380
3D80
7FC0
E3C0
E1C0
E1C0
E1C0
E380
7F80
1E00
ENDCHAR
STARTCHAR ntilde
ENCODING 241
SWIDTH 600 0
DWIDTH 12 0
BBX 10 14 1 0
BITMAP
3D80
3F80
2700
4000
E700
FF80
F1C0
E1C0
E1C0
E1C0
E1C0
E1C0
E1C0
E1C0
ENDCHAR
STARTCHAR ograve
ENCODING 242
SWIDTH 600 0
DWIDTH 12 0
BBX 10 16 1 0
BITMAP
1000
3800
7C00
1C00
0600
0000
1E00
7F80
7380
E1C0
E1C0
E1C0
E1C0
7380
7F80
1E00
ENDCHAR
STARTCHAR oacute
ENCODING 243
SWIDTH 600 0
DWIDTH 12 0
BBX 10 16 1 0
BITMAP
0200
0700
0F80
0E00
1800
0000
1E00
7F80
7380
E1C0
E1C0
E1C0
E1C0
7380
7F80
1E00
ENDCHAR
STARTCHAR ocircumflex
ENCODING 244
SWIDTH 600 0
DWIDTH 12 0
BBX 10 15 1 0
BITMAP
1E00
3F00
3300
6180
0000
1E00
7F80
7380
E1C0
E1C0
E1C0
E1C0
7380
7F80
1E00
ENDCHAR
STARTCHAR otilde
ENCODING 245
SWIDTH 600 0
DWIDTH 12 0
BBX 10 14 1 0
BITMAP
3980
7F80
6700
0000
1E00
7F80
7380
E1C0
E1C0
E1C0
E1C0
7380
7F80
1E00
ENDCHAR
STARTCHAR odieresis
ENCODING 246
SWIDTH 600 0
DWIDTH 12 0
BBX 10 15 1 0
BITMAP
3300
7380
3300
0000
0000
1E00
7F80
7380
E1C0
E1C0
E1C0
E1C0
7380
7F80
1E00
ENDCHAR
STARTCHAR divide
ENCODING 247
SWIDTH 600 0
DWIDTH 12 0
BBX 10 10 1 2
BITMAP
0C00
1E00
0C00
0000
FFC0
FFC0
0000
0C00
1E00
0C00
ENDCHAR
STARTCHAR oslash
ENCODING 248
SWIDTH 600 0
DWIDTH 12 0
BBX 10 10 1 0
BITMAP
1EC0
7F80
7380
E7C0
EDC0
EDC0
F9C0
7380
7F80
DE00
ENDCHAR
STARTCHAR ugrave
ENCODING 249
SWIDTH 600 0
DWIDTH 12 0
BBX 10 16 1 0
BITMAP
1000
3800
7C00
1C00
0E00
0000
E1C0
E1C0
E1C0
E1C0
E1C0
E1C0
E3C0
E3C0
7FC0
39C0
ENDCHAR
STARTCHAR uacute
ENCODING 250
SWIDTH 600 0
DWIDTH 12 0
BBX 10 16 1 0
BITMAP
0200
0700
0F00
1E00
0800
0000
E1C0
E1C0
E1C0
E1C0
E1C0
E1C0
E3C0
E3C0
7FC0
39C0
ENDCHAR
STARTCHAR ucircumflex
ENCODING 251
SWIDTH 600 0
DWIDTH 12 0
BBX 10 15 1 0
BITMAP
1E00
3F00
3300
6180
0000
E1C0
E1C0
E1C0
E1C0
E1C0
E1C0
E3C0
E3C0
7FC0
39C0
ENDCHAR
STARTCHAR udieresis
ENCODING 252
SWIDTH 600 0
DWIDTH 12 0
BBX 10 15 1 0
BITMAP
3300
7380
3300
0000
0000
E1C0
E1C0
E1C0
E1C0
E1C0
E1C0
E3C0
E3C0
7FC0
39C0
ENDCHAR
STARTCHAR yacute
ENCODING 253
SWIDTH 600 0
DWIDTH 12 0
BBX 10 20 1 -4
BITMAP
0200
0700
0780
0E00
0400
0000
E1C0
E1C0
7180
7380
3380
3B00
1B00
1F00
0E00
0E00
0C00
1C00
7800
F000
ENDCHAR
STARTCHAR thorn
ENCODING 254
SWIDTH 600 0
DWIDTH 12 0
BBX 10 18 1 -4
BITMAP
E000
E000
E000
E000
EF00
FF80
F3C0
E1C0
E1C0
E1C0
E1C0
F380
FF80
EF00
E000
E000
E000
E000
ENDCHAR
STARTCHAR ydieresis
ENCODING 255
SWIDTH 600 0
DWIDTH 12 0
BBX 10 19 1 -4
BITMAP
3380
7B80
3380
0000
0000
E1C0
E1C0
7180
7380
3380
3B00
1B00
1F00
0E00
0E00
0C00
1C00
7800
F000
ENDCHAR
STARTCHAR Amacron
ENCODING 256
SWIDTH 600 0
DWIDTH 12 0
BBX 12 16 0 0
BITMAP
1F80
1F80
0000
0F00
0F00
1F80
1F80
1B80
1980
39C0
39C0
3FC0
7FE0
70E0
70E0
E070
ENDCHAR
STARTCHAR amacron
ENCODING 257
SWIDTH 600 0
DWIDTH 12 0
BBX 10 14 1 0
BITMAP
3F00
3F00
0000
0000
3F00
7F80
6380
01C0
1FC0
7FC0
F1C0
E3C0
7FC0
7DC0
ENDCHAR
STARTCHAR Abreve
ENCODING 258
SWIDTH 600 0
DWIDTH 12 0
BBX 12 17 0 0
BITMAP
1980
1F80
0F00
0000
0F00
0F00
1F80
1F80
1B80
1980
39C0
39C0
3FC0
7FE0
70E0
70E0
E070
ENDCHAR
STARTCHAR abreve
ENCODING 259
SWIDTH 600 0
DWIDTH 12 0
BBX 10 14 1 0
BITMAP
3180
3F00
1E00
0000
3F00
7F80
6380
01C0
1FC0
7FC0
F1C0
E3C0
7FC0
7DC0
ENDCHAR
STARTCHAR Aogonek
ENCODING 260
SWIDTH 600 0
DWIDTH 12 0
BBX 12 18 0 -5
BITMAP
0F00
0F00
1F80
1F80
1B80
1980
39C0
39C0
3FC0
7FE0
70E0
70E0
E070
0060
00C0
00C0
00F0
0070
ENDCHAR
STARTCHAR aogonek
ENCODING 261
SWIDTH 600 0
DWIDTH 12 0
BBX 10 15 1 -5
BITMAP
3F00
7F80
6380
01C0
1FC0
7FC0
F1C0
E3C0
7FC0
7DC0
0180
0300
0300
03C0
03C0
ENDCHAR
STARTCHAR Cacute
ENCODING 262
SWIDTH 600 0
DWIDTH 12 0
BBX 10 18 1 0
BITMAP
0100
0780
0F00
0400
0000
0F80
3FC0
7880
7000
E000
E000
E000
E000
E000
7000
7880
3FC0
0F80
ENDCHAR
STARTCHAR cacute
ENCODING 263
SWIDTH 600 0
DWIDTH 12 0
BBX 10 16 1 0
BITMAP
0100
0380
0780
0E00
0400
0000
1F80
3FC0
7880
7000
E000
E000
7000
7080
3FC0
1F80
ENDCHAR
STARTCHAR Ccircumflex
ENCODING 264
SWIDTH 600 0
DWIDTH 12 0
BBX 10 17 1 0
BITMAP
0F00
1F80
1880
0000
0F80
3FC0
7880
7000
E000
E000
E000
E000
E000
7000
7880
3FC0
0F80
ENDCHAR
STARTCHAR ccircumflex
ENCODING 265
SWIDTH 600 0
DWIDTH 12 0
BBX 10 15 1 0
BITMAP
0F00
1F00
3980
10C0
0000
1F80
3FC0
7880
7000
E000
E000
7000
7080
3FC0
1F80
ENDCHAR
STARTCHAR Cdotaccent
ENCODING 266
SWIDTH 600 0
DWIDTH 12 0
BBX 10 17 1 0
BITMAP
0600
0F00
0600
0000
0F80
3FC0
7880
7000
E000
E000
E000
E000
E000
7000
7880
3FC0
0F80
ENDCHAR
STARTCHAR cdotaccent
ENCODING 267
SWIDTH 600 0
DWIDTH 12 0
BBX 10 15 1 0
BITMAP
0600
0F00
0F00
0E00
0000
1F80
3FC0
7880
7000
E000
E000
7000
7080
3FC0
1F80
ENDCHAR
STARTCHAR Ccaron
ENCODING 268
SWIDTH 600 0
DWIDTH 12 0
BBX 10 17 1 0
BITMAP
1880
1F80
0F00
0000
0F80
3FC0
7880
7000
E000
E000
E000
E000
E000
7000
7880
3FC0
0F80
ENDCHAR
STARTCHAR ccaron
ENCODING 269
SWIDTH 600 0
DWIDTH 12 0
BBX 10 15 1 0
BITMAP
1080
39C0
1F00
0F00
0000
1F80
3FC0
7880
7000
E000
E000
7000
7080
3FC0
1F80
ENDCHAR
STARTCHAR Dcaron
ENCODING 270
SWIDTH 600 0
DWIDTH 12 0
BBX 10 17 1 0
BITMAP
2100
3F00
1E00
0000
FE00
FF80
E380
E1C0
E1C0
E1C0
E1C0
E1C0
E1C0
E1C0
E380
FF00
FE00
ENDCHAR
STARTCHAR dcaron
ENCODING 271
SWIDTH 600 0
DWIDTH 12 0
BBX 12 16 1 0
BITMAP
0070
0070
0370
0360
0360
0300
3B00
7F00
E700
E300
E300
E300
E300
E700
7F00
3B00
ENDCHAR
STARTCHAR Dcroat
ENCODING 272
SWIDTH 600 0
DWIDTH 12 0
BBX 11 13 0 0
BITMAP
7F00
7FC0
71C0
70E0
70E0
FEE0
FEE0
70E0
70E0
70E0
71C0
7F80
7F00
ENDCHAR
STARTCHAR dcroat
ENCODING 273
SWIDTH 600 0
DWIDTH 12 0
BBX 11 14 1 0
BITMAP
01C0
1FE0
1FE0
01C0
3DC0
7FC0
F3C0
E1C0
E1C0
E1C0
E1C0
F3C0
7FC0
3DC0
ENDCHAR
STARTCHAR Emacron
ENCODING 274
SWIDTH 600 0
DWIDTH 12 0
BBX 9 16 2 0
BITMAP
7E00
7E00
0000
FF00
FF00
E000
E000
E000
E000
FF00
FF00
E000
E000
E000
FF80
FF80
ENDCHAR
STARTCHAR emacron
ENCODING 275
SWIDTH 600 0
DWIDTH 12 0
BBX 10 14 1 0
BITMAP
3F00
3F00
0000
0000
1F00
7F80
71C0
E1C0
FFC0
FFC0
E000
7080
7F80
1F40
ENDCHAR
STARTCHAR Ebreve
ENCODING 276
SWIDTH 600 0
DWIDTH 12 0
BBX 9 17 2 0
BITMAP
6300
3E00
3E00
0000
FF00
FF00
E000
E000
E000
E000
FF00
FF00
E000
E000
E000
FF80
FF80
ENDCHAR
STARTCHAR ebreve
ENCODING 277
SWIDTH 600 0
DWIDTH 12 0
BBX 10 14 1 0
BITMAP
3180
3F00
1E00
0000
1F00
7F80
71C0
E1C0
FFC0
FFC0
E000
7080
7F80
1F40
ENDCHAR
STARTCHAR Edotaccent
ENCODING 278
SWIDTH 600 0
DWIDTH 12 0
BBX 9 17 2 0
BITMAP
1C00
1C00
1C00
0000
FF00
FF00
E000
E000
E000
E000
FF00
FF00
E000
E000
E000
FF80
FF80
ENDCHAR
STARTCHAR edotaccent
ENCODING 279
SWIDTH 600 0
DWIDTH 12 0
BBX 10 15 1 0
BITMAP
0E00
1E00
1E00
0E00
0000
1F00
7F80
71C0
E1C0
FFC0
FFC0
E000
7080
7F80
1F40
ENDCHAR
STARTCHAR Eogonek
ENCODING 280
SWIDTH 600 0
DWIDTH 12 0
BBX 9 18 2 -5
BITMAP
FF00
FF00
E000
E000
E000
E000
FF00
FF00
E000
E000
E000
FF80
FF80
0300
0600
0600
0780
0780
ENDCHAR
STARTCHAR eogonek
ENCODING 281
SWIDTH 600 0
DWIDTH 12 0
BBX 10 15 1 -5
BITMAP
1F00
7F80
71C0
E1C0
FFC0
FFC0
E000
7080
7F80
1FC0
0300
0600
0600
0780
03C0
ENDCHAR
STARTCHAR Ecaron
ENCODING 282
SWIDTH 600 0
DWIDTH 12 0
BBX 9 17 2 0
BITMAP
2200
7700
3C00
0000
FF00
FF00
E000
E000
E000
E000
FF00
FF00
E000
E000
E000
FF80
FF80
ENDCHAR
STARTCHAR ecaron
ENCODING 283
SWIDTH 600 0
DWIDTH 12 0
BBX 10 15 1 0
BITMAP
2100
3B80
1F00
1E00
0000
1F00
7F80
71C0
E1C0
FFC0
FFC0
E000
7080
7F80
1F40
ENDCHAR
STARTCHAR Gcircumflex
ENCODING 284
SWIDTH 600 0
DWIDTH 12 0
BBX 10 17 1 0
BITMAP
0F00
1B00
3180
0000
1F00
3FC0
7080
F000
E000
E000
E7C0
E7C0
E1C0
F1C0
71C0
3FC0
1F00
ENDCHAR
STARTCHAR gcircumflex
ENCODING 285
SWIDTH 600 0
DWIDTH 12 0
BBX 10 19 1 -4
BITMAP
1E00
3F00
3300
6180
0000
3FC0
7FC0
7380
E380
7380
7F00
7E00
6000
7F80
3FC0
E0C0
E1C0
FFC0
3F00
ENDCHAR
STARTCHAR Gbreve
ENCODING 286
SWIDTH 600 0
DWIDTH 12 0
BBX 10 17 1 0
BITMAP
3180
1F80
0F00
0000
1F00
3FC0
7080
F000
E000
E000
E7C0
E7C0
E1C0
F1C0
71C0
3FC0
1F00
ENDCHAR
STARTCHAR gbreve
ENCODING 287
SWIDTH 600 0
DWIDTH 12 0
BBX 10 18 1 -4
BITMAP
3300
3F00
1E00
0000
3FC0
7FC0
7380
E380
7380
7F00
7E00
6000
7F80
3FC0
E0C0
E1C0
FFC0
3F00
ENDCHAR
STARTCHAR Gdotaccent
ENCODING 288
SWIDTH 600 0
DWIDTH 12 0
BBX 10 17 1 0
BITMAP
0E00
0E00
0E00
0000
1F00
3FC0
7080
F000
E000
E000
E7C0
E7C0
E1C0
F1C0
71C0
3FC0
1F00
ENDCHAR
STARTCHAR gdotaccent
ENCODING 289
SWIDTH 600 0
DWIDTH 12 0
BBX 10 19 1 -4
BITMAP
0C00
1E00
1E00
0C00
0000
3FC0
7FC0
7380
E380
7380
7F00
7E00
6000
7F80
3FC0
E0C0
E1C0
FFC0
3F00
ENDCHAR
STARTCHAR uni0122
ENCODING 290
SWIDTH 600 0
DWIDTH 12 0
BBX 10 18 1 -5
BITMAP
1F00
3FC0
7080
F000
E000
E000
E7C0
E7C0
E1C0
F1C0
71C0
3FC0
1F00
0000
0E00
0600
1E00
1C00
ENDCHAR
STARTCHAR uni0123
ENCODING 291
SWIDTH 600 0
DWIDTH 12 0
BBX 10 20 1 -4
BITMAP
0600
1E00
1800
1800
0E00
0000
3FC0
7FC0
7380
E380
7380
7F00
7E00
6000
7F80
3FC0
E0C0
E1C0
FFC0
3F00
ENDCHAR
STARTCHAR Hcircumflex
ENCODING 292
SWIDTH 600 0
DWIDTH 12 0
BBX 10 17 1 0
BITMAP
1E00
3F00
2100
0000
E1C0
E1C0
E1C0
E1C0
E1C0
E1C0
FFC0
FFC0
E1C0
E1C0
E1C0
E1C0
E1C0
ENDCHAR
STARTCHAR hcircumflex
ENCODING 293
SWIDTH 600 0
DWIDTH 12 0
BBX 11 18 0 0
BITMAP
7800
FC00
8C00
0000
7000
7000
7000
7000
7380
7FC0
78E0
70E0
70E0
70E0
70E0
70E0
70E0
70E0
ENDCHAR
STARTCHAR Hbar
ENCODING 294
SWIDTH 600 0
DWIDTH 12 0
BBX 12 13 0 0
BITMAP
70E0
70E0
FFF0
FFF0
70E0
70E0
7FE0
7FE0
70E0
70E0
70E0
70E0
70E0
ENDCHAR
STARTCHAR hbar
ENCODING 295
SWIDTH 600 0
DWIDTH 12 0
BBX 11 14 0 0
BITMAP
7000
FF00
FF00
7000
7380
7FC0
78E0
70E0
70E0
70E0
70E0
70E0
70E0
70E0
ENDCHAR
STARTCHAR Itilde
ENCODING 296
SWIDTH 600 0
DWIDTH 12 0
BBX 10 17 1 0
BITMAP
3980
7F80
6700
0000
FFC0
FFC0
0C00
0C00
0C00
0C00
0C00
0C00
0C00
0C00
0C00
FFC0
FFC0
ENDCHAR
STARTCHAR itilde
ENCODING 297
SWIDTH 600 0
DWIDTH 12 0
BBX 9 14 2 0
BITMAP
3980
7F00
6700
0000
FE00
FE00
0E00
0E00
0E00
0E00
0E00
0E00
0E00
0E00
ENDCHAR
STARTCHAR Imacron
ENCODING 298
SWIDTH 600 0
DWIDTH 12 0
BBX 10 16 1 0
BITMAP
3F00
3F00
0000
FFC0
FFC0
0C00
0C00
0C00
0C00
0C00
0C00
0C00
0C00
0C00
FFC0
FFC0
ENDCHAR
STARTCHAR imacron
ENCODING 299
SWIDTH 600 0
DWIDTH 12 0
BBX 8 14 2 0
BITMAP
3F
3F
00
00
FE
FE
0E
0E
0E
0E
0E
0E
0E
0E
ENDCHAR
STARTCHAR Ibreve
ENCODING 300
SWIDTH 600 0
DWIDTH 12 0
BBX 10 17 1 0
BITMAP
3300
3F00
1E00
0000
FFC0
FFC0
0C00
0C00
0C00
0C00
0C00
0C00
0C00
0C00
0C00
FFC0
FFC0
ENDCHAR
STARTCHAR ibreve
ENCODING 301
SWIDTH 600 0
DWIDTH 12 0
BBX 8 14 2 0
BITMAP
33
3F
1E
00
FE
FE
0E
0E
0E
0E
0E
0E
0E
0E
ENDCHAR
STARTCHAR Iogonek
ENCODING 302
SWIDTH 600 0
DWIDTH 12 0
BBX 10 18 1 -5
BITMAP
FFC0
FFC0
0C00
0C00
0C00
0C00
0C00
0C00
0C00
0C00
0C00
FFC0
FFC0
0C00
1800
1800
1E00
0E00
ENDCHAR
STARTCHAR iogonek
ENCODING 303
SWIDTH 600 0
DWIDTH 12 0
BBX 7 20 2 -5
BITMAP
0C
1E
1E
0C
00
FE
FE
0E
0E
0E
0E
0E
0E
0E
0E
0C
18
18
1E
1E
ENDCHAR
STARTCHAR Idotaccent
ENCODING 304
SWIDTH 600 0
DWIDTH 12 0
BBX 10 17 1 0
BITMAP
0C00
1E00
0C00
0000
FFC0
FFC0
0C00
0C00
0C00
0C00
0C00
0C00
0C00
0C00
0C00
FFC0
FFC0
ENDCHAR
STARTCHAR dotlessi
ENCODING 305
SWIDTH 600 0
DWIDTH 12 0
BBX 7 10 2 0
BITMAP
FE
FE
0E
0E
0E
0E
0E
0E
0E
0E
ENDCHAR
STARTCHAR IJ
ENCODING 306
SWIDTH 600 0
DWIDTH 12 0
BBX 10 16 1 -3
BITMAP
E1C0
E1C0
E1C0
E1C0
E1C0
E1C0
E1C0
E1C0
E1C0
E1C0
E1C0
E1C0
E1C0
0380
0F80
0F00
ENDCHAR
STARTCHAR ij
ENCODING 307
SWIDTH 600 0
DWIDTH 12 0
BBX 10 18 1 -4
BITMAP
61C0
F3C0
61C0
0000
61C0
61C0
61C0
61C0
61C0
61C0
61C0
61C0
61C0
61C0
01C0
01C0
0780
0F00
ENDCHAR
STARTCHAR Jcircumflex
ENCODING 308
SWIDTH 600 0
DWIDTH 12 0
BBX 9 17 1 0
BITMAP
0F00
1B00
3180
0000
7F80
7F80
0380
0380
0380
0380
0380
0380
0380
0380
6380
FF00
3E00
ENDCHAR
STARTCHAR jcircumflex
ENCODING 309
SWIDTH 600 0
DWIDTH 12 0
BBX 10 19 1 -4
BITMAP
0F00
1F80
1980
30C0
0000
7F00
7F00
0700
0700
0700
0700
0700
0700
0700
0600
0600
0E00
FE00
F800
ENDCHAR
STARTCHAR uni0136
ENCODING 310
SWIDTH 600 0
DWIDTH 12 0
BBX 11 18 1 -5
BITMAP
E1E0
E380
E780
E700
EE00
FE00
FE00
FF00
F700
E380
E3C0
E1C0
E1E0
0000
0E00
0600
1E00
1C00
ENDCHAR
STARTCHAR uni0137
ENCODING 311
SWIDTH 600 0
DWIDTH 12 0
BBX 10 19 2 -5
BITMAP
C000
C000
C000
C000
C380
C700
CE00
DC00
FC00
FE00
EE00
C700
C380
C380
0040
1C00
0C00
3C00
3800
ENDCHAR
STARTCHAR kgreenlandic
ENCODING 312
SWIDTH 600 0
DWIDTH 12 0
BBX 10 10 2 0
BITMAP
C380
C700
CE00
DC00
FC00
FE00
EE00
C700
C380
C3C0
ENDCHAR
STARTCHAR Lacute
ENCODING 313
SWIDTH 600 0
DWIDTH 12 0
BBX 9 18 2 0
BITMAP
1000
7800
F000
4000
0000
E000
E000
E000
E000
E000
E000
E000
E000
E000
E000
E000
FF80
FF80
ENDCHAR
STARTCHAR lacute
ENCODING 314
SWIDTH 600 0
DWIDTH 12 0
BBX 10 19 1 0
BITMAP
0400
0E00
1C00
3800
0000
FC00
FC00
1C00
1C00
1C00
1C00
1C00
1C00
1C00
1C00
1C00
1C00
0FC0
07C0
ENDCHAR
STARTCHAR uni013B
ENCODING 315
SWIDTH 600 0
DWIDTH 12 0
BBX 9 18 2 -5
BITMAP
E000
E000
E000
E000
E000
E000
E000
E000
E000
E000
E000
FF80
FF80
0000
1C00
0E00
3C00
1800
ENDCHAR
STARTCHAR uni013C
ENCODING 316
SWIDTH 600 0
DWIDTH 12 0
BBX 10 19 1 -5
BITMAP
FC00
FC00
1C00
1C00
1C00
1C00
1C00
1C00
1C00
1C00
1C00
1C00
0FC0
07C0
0000
0700
0300
0F00
0E00
ENDCHAR
STARTCHAR Lcaron
ENCODING 317
SWIDTH 600 0
DWIDTH 12 0
BBX 9 15 2 0
BITMAP
0700
0700
E700
E700
E600
E000
E000
E000
E000
E000
E000
E000
E000
FF80
FF80
ENDCHAR
STARTCHAR lcaron
ENCODING 318
SWIDTH 600 0
DWIDTH 12 0
BBX 10 16 1 0
BITMAP
01C0
01C0
FDC0
FD80
1D80
1C00
1C00
1C00
1C00
1C00
1C00
1C00
1C00
1C00
0FC0
07C0
ENDCHAR
STARTCHAR Ldot
ENCODING 319
SWIDTH 600 0
DWIDTH 12 0
BBX 9 13 2 0
BITMAP
E000
E000
E000
E000
E380
E380
E380
E380
E000
E000
E000
FF80
FF80
ENDCHAR
STARTCHAR ldot
ENCODING 320
SWIDTH 600 0
DWIDTH 12 0
BBX 13 14 0 0
BITMAP
FC00
FC00
1C00
1C00
1C00
1C30
1C78
1C78
1C30
1C00
1C00
1C00
0FC0
07C0
ENDCHAR
STARTCHAR Lslash
ENCODING 321
SWIDTH 600 0
DWIDTH 12 0
BBX 11 13 0 0
BITMAP
3800
3800
3800
3880
3980
3FC0
3E00
FC00
F800
B800
3800
3FE0
3FE0
ENDCHAR
STARTCHAR lslash
ENCODING 322
SWIDTH 600 0
DWIDTH 12 0
BBX 10 14 1 0
BITMAP
FC00
FC00
1C00
1C80
1D80
1FC0
3E00
FC00
7C00
1C00
1C00
1C00
0FC0
07C0
ENDCHAR
STARTCHAR Nacute
ENCODING 323
SWIDTH 600 0
DWIDTH 12 0
BBX 10 18 1 0
BITMAP
0200
0700
1E00
0800
0000
F1C0
F1C0
F1C0
F9C0
F9C0
EDC0
EDC0
EDC0
E7C0
E7C0
E3C0
E3C0
E3C0
ENDCHAR
STARTCHAR nacute
ENCODING 324
SWIDTH 600 0
DWIDTH 12 0
BBX 10 16 1 0
BITMAP
0200
0300
0780
0E00
0400
0000
E700
FF80
F1C0
E1C0
E1C0
E1C0
E1C0
E1C0
E1C0
E1C0
ENDCHAR
STARTCHAR uni0145
ENCODING 325
SWIDTH 600 0
DWIDTH 12 0
BBX 10 18 1 -5
BITMAP
F1C0
F1C0
F1C0
F9C0
F9C0
EDC0
EDC0
EDC0
E7C0
E7C0
E3C0
E3C0
E3C0
0000
0C00
0600
1E00
1C00
ENDCHAR
STARTCHAR uni0146
ENCODING 326
SWIDTH 600 0
DWIDTH 12 0
BBX 10 15 1 -5
BITMAP
E700
FF80
F1C0
E1C0
E1C0
E1C0
E1C0
E1C0
E1C0
E1C0
0000
0C00
0600
1E00
1C00
ENDCHAR
STARTCHAR Ncaron
ENCODING 327
SWIDTH 600 0
DWIDTH 12 0
BBX 10 17 1 0
BITMAP
3100
3F80
1E00
0000
F1C0
F1C0
F1C0
F9C0
F9C0
EDC0
EDC0
EDC0
E7C0
E7C0
E3C0
E3C0
E3C0
ENDCHAR
STARTCHAR ncaron
ENCODING 328
SWIDTH 600 0
DWIDTH 12 0
BBX 10 15 1 0
BITMAP
2100
3B80
1F00
1E00
0000
E700
FF80
F1C0
E1C0
E1C0
E1C0
E1C0
E1C0
E1C0
E1C0
ENDCHAR
STARTCHAR napostrophe
ENCODING 329
SWIDTH 600 0
DWIDTH 12 0
BBX 14 14 -1 0
BITMAP
6000
F000
F000
7000
3778
37F8
679C
C71C
071C
071C
071C
071C
071C
071C
ENDCHAR
STARTCHAR Eng
ENCODING 330
SWIDTH 600 0
DWIDTH 12 0
BBX 10 13 1 0
BITMAP
EF00
FF80
F3C0
E1C0
E1C0
E1C0
E1C0
E1C0
E1C0
E1C0
E1C0
E780
E700
ENDCHAR
STARTCHAR eng
ENCODING 331
SWIDTH 600 0
DWIDTH 12 0
BBX 10 14 1 -4
BITMAP
E700
FF80
F1C0
E1C0
E1C0
E1C0
E1C0
E1C0
E1C0
E1C0
01C0
01C0
0780
0700
ENDCHAR
STARTCHAR Omacron
ENCODING 332
SWIDTH 600 0
DWIDTH 12 0
BBX 10 16 1 0
BITMAP
3F00
3F00
0000
1E00
7F80
7380
E1C0
E1C0
E1C0
E1C0
E1C0
E1C0
E1C0
7380
7F80
1E00
ENDCHAR
STARTCHAR omacron
ENCODING 333
SWIDTH 600 0
DWIDTH 12 0
BBX 10 14 1 0
BITMAP
3F00
3F00
0000
0000
1E00
7F80
7380
E1C0
E1C0
E1C0
E1C0
7380
7F80
1E00
ENDCHAR
STARTCHAR Obreve
ENCODING 334
SWIDTH 600 0
DWIDTH 12 0
BBX 10 17 1 0
BITMAP
3300
3F00
1E00
0000
1E00
7F80
7380
E1C0
E1C0
E1C0
E1C0
E1C0
E1C0
E1C0
7380
7F80
1E00
ENDCHAR
STARTCHAR obreve
ENCODING 335
SWIDTH 600 0
DWIDTH 12 0
BBX 10 14 1 0
BITMAP
3300
3F00
1E00
0000
1E00
7F80
7380
E1C0
E1C0
E1C0
E1C0
7380
7F80
1E00
ENDCHAR
STARTCHAR Ohungarumlaut
ENCODING 336
SWIDTH 600 0
DWIDTH 12 0
BBX 10 18 1 0
BITMAP
0880
1DC0
1B80
3300
0000
1E00
7F80
7380
E1C0
E1C0
E1C0
E1C0
E1C0
E1C0
E1C0
7380
7F80
1E00
ENDCHAR
STARTCHAR ohungarumlaut
ENCODING 337
SWIDTH 600 0
DWIDTH 12 0
BBX 10 15 1 0
BITMAP
0980
1DC0
1B80
3300
0000
1E00
7F80
7380
E1C0
E1C0
E1C0
E1C0
7380
7F80
1E00
ENDCHAR
STARTCHAR OE
ENCODING 338
SWIDTH 600 0
DWIDTH 12 0
BBX 12 13 0 0
BITMAP
1FF0
3FF0
7380
7380
7380
E380
E3E0
E3E0
7380
7380
7380
3FF0
1FF0
ENDCHAR
STARTCHAR oe
ENCODING 339
SWIDTH 600 0
DWIDTH 12 0
BBX 12 10 0 0
BITMAP
39C0
7FE0
6770
E630
E7F0
E7F0
E600
6700
7FE0
39F0
ENDCHAR
STARTCHAR Racute
ENCODING 340
SWIDTH 600 0
DWIDTH 12 0
BBX 11 18 1 0
BITMAP
0200
0F00
1E00
0800
0000
FF00
FF80
E1C0
E1C0
E1C0
E1C0
FF80
FF00
E700
E380
E380
E1C0
E1E0
ENDCHAR
STARTCHAR racute
ENCODING 341
SWIDTH 600 0
DWIDTH 12 0
BBX 9 16 2 0
BITMAP
0200
0700
0F00
1E00
0800
0000
E780
EF80
F800
F000
E000
E000
E000
E000
E000
E000
ENDCHAR
STARTCHAR uni0156
ENCODING 342
SWIDTH 600 0
DWIDTH 12 0
BBX 11 18 1 -5
BITMAP
FF00
FF80
E1C0
E1C0
E1C0
E1C0
FF80
FF00
E700
E380
E380
E1C0
E1C0
0020
0E00
0600
1E00
1C00
ENDCHAR
STARTCHAR uni0157
ENCODING 343
SWIDTH 600 0
DWIDTH 12 0
BBX 9 15 2 -5
BITMAP
E780
EF80
F800
F000
E000
E000
E000
E000
E000
E000
0000
6000
B000
F000
E000
ENDCHAR
STARTCHAR Rcaron
ENCODING 344
SWIDTH 600 0
DWIDTH 12 0
BBX 11 17 1 0
BITMAP
3100
3F00
1E00
0000
FF00
FF80
E1C0
E1C0
E1C0
E1C0
FF80
FF00
E700
E380
E380
E1C0
E1E0
ENDCHAR
STARTCHAR rcaron
ENCODING 345
SWIDTH 600 0
DWIDTH 12 0
BBX 9 15 2 0
BITMAP
2100
7380
3F00
1E00
0000
E780
EF80
F800
F000
E000
E000
E000
E000
E000
E000
ENDCHAR
STARTCHAR Sacute
ENCODING 346
SWIDTH 600 0
DWIDTH 12 0
BBX 10 18 1 0
BITMAP
0200
0700
1E00
0800
0000
1F00
7FC0
7180
7000
7000
7E00
3F80
0FC0
03C0
01C0
61C0
FF80
3F00
ENDCHAR
STARTCHAR sacute
ENCODING 347
SWIDTH 600 0
DWIDTH 12 0
BBX 10 16 1 0
BITMAP
0200
0700
0780
0E00
0400
0000
1F00
7FC0
7180
7000
7F00
1F80
03C0
61C0
FF80
3F00
ENDCHAR
STARTCHAR Scircumflex
ENCODING 348
SWIDTH 600 0
DWIDTH 12 0
BBX 10 17 1 0
BITMAP
1E00
1B00
3180
0000
1F00
7FC0
7180
7000
7000
7E00
3F80
0FC0
03C0
01C0
61C0
FF80
3F00
ENDCHAR
STARTCHAR scircumflex
ENCODING 349
SWIDTH 600 0
DWIDTH 12 0
BBX 10 15 1 0
BITMAP
1E00
1F00
3B80
2100
0000
1F00
7FC0
7180
7000
7F00
1F80
03C0
61C0
FF80
3F00
ENDCHAR
STARTCHAR uni015E
ENCODING 350
SWIDTH 600 0
DWIDTH 12 0
BBX 10 18 1 -5
BITMAP
1F00
7FC0
7180
7000
7000
7E00
3F80
0FC0
03C0
01C0
61C0
FF80
3F00
0C00
0E00
1600
0600
1C00
ENDCHAR
STARTCHAR uni015F
ENCODING 351
SWIDTH 600 0
DWIDTH 12 0
BBX 10 15 1 -5
BITMAP
1F00
7FC0
7180
7000
7F00
1F80
03C0
61C0
FF80
3F00
0C00
0E00
1600
0600
1C00
ENDCHAR
STARTCHAR Scaron
ENCODING 352
SWIDTH 600 0
DWIDTH 12 0
BBX 10 17 1 0
BITMAP
3100
1B80
1E00
0000
1F00
7FC0
7180
7000
7000
7E00
3F80
0FC0
03C0
01C0
61C0
FF80
3F00
ENDCHAR
STARTCHAR scaron
ENCODING 353
SWIDTH 600 0
DWIDTH 12 0
BBX 10 15 1 0
BITMAP
2100
3B80
1F00
1E00
0000
1F00
7FC0
7180
7000
7F00
1F80
03C0
61C0
FF80
3F00
ENDCHAR
STARTCHAR uni0162
ENCODING 354
SWIDTH 600 0
DWIDTH 12 0
BBX 10 18 1 -5
BITMAP
FFC0
FFC0
0C00
0C00
0C00
0C00
0C00
0C00
0C00
0C00
0C00
0C00
0C00
0C00
0C00
1600
0600
1C00
ENDCHAR
STARTCHAR uni0163
ENCODING 355
SWIDTH 600 0
DWIDTH 12 0
BBX 10 18 1 -5
BITMAP
1800
1800
1800
FFC0
FFC0
3800
3800
3800
3800
1800
1C00
1FC0
0FC0
0200
0700
0300
0300
0E00
ENDCHAR
STARTCHAR Tcaron
ENCODING 356
SWIDTH 600 0
DWIDTH 12 0
BBX 10 17 1 0
BITMAP
2100
3F00
1E00
0000
FFC0
FFC0
0C00
0C00
0C00
0C00
0C00
0C00
0C00
0C00
0C00
0C00
0C00
ENDCHAR
STARTCHAR tcaron
ENCODING 357
SWIDTH 600 0
DWIDTH 12 0
BBX 10 16 1 0
BITMAP
0180
0180
0180
1980
1980
1800
FFC0
FFC0
3800
3800
3800
3800
1800
1C00
1FC0
0FC0
ENDCHAR
STARTCHAR Tbar
ENCODING 358
SWIDTH 600 0
DWIDTH 12 0
BBX 10 13 1 0
BITMAP
FFC0
FFC0
0C00
0C00
0C00
7F80
7F80
0C00
0C00
0C00
0C00
0C00
0C00
ENDCHAR
STARTCHAR tbar
ENCODING 359
SWIDTH 600 0
DWIDTH 12 0
BBX 10 13 1 0
BITMAP
1800
1800
1800
FFC0
FFC0
3800
FF80
FF80
3800
1C00
1C00
1FC0
0FC0
ENDCHAR
STARTCHAR Utilde
ENCODING 360
SWIDTH 600 0
DWIDTH 12 0
BBX 10 17 1 0
BITMAP
3980
7F80
6700
0000
E1C0
E1C0
E1C0
E1C0
E1C0
E1C0
E1C0
E1C0
E1C0
E1C0
7380
7F80
1F00
ENDCHAR
STARTCHAR utilde
ENCODING 361
SWIDTH 600 0
DWIDTH 12 0
BBX 10 14 1 0
BITMAP
3980
7F80
6700
0000
E1C0
E1C0
E1C0
E1C0
E1C0
E1C0
E3C0
E3C0
7FC0
39C0
ENDCHAR
STARTCHAR Umacron
ENCODING 362
SWIDTH 600 0
DWIDTH 12 0
BBX 10 16 1 0
BITMAP
3F00
3F00
0000
E1C0
E1C0
E1C0
E1C0
E1C0
E1C0
E1C0
E1C0
E1C0
E1C0
7380
7F80
1F00
ENDCHAR
STARTCHAR umacron
ENCODING 363
SWIDTH 600 0
DWIDTH 12 0
BBX 10 14 1 0
BITMAP
3F00
3F00
0000
0000
E1C0
E1C0
E1C0
E1C0
E1C0
E1C0
E3C0
E3C0
7FC0
39C0
ENDCHAR
STARTCHAR Ubreve
ENCODING 364
SWIDTH 600 0
DWIDTH 12 0
BBX 10 17 1 0
BITMAP
3300
3F00
1E00
0000
E1C0
E1C0
E1C0
E1C0
E1C0
E1C0
E1C0
E1C0
E1C0
E1C0
7380
7F80
1F00
ENDCHAR
STARTCHAR ubreve
ENCODING 365
SWIDTH 600 0
DWIDTH 12 0
BBX 10 14 1 0
BITMAP
3300
3F00
1E00
0000
E1C0
E1C0
E1C0
E1C0
E1C0
E1C0
E3C0
E3C0
7FC0
39C0
ENDCHAR
STARTCHAR Uring
ENCODING 366
SWIDTH 600 0
DWIDTH 12 0
BBX 10 18 1 0
BITMAP
1E00
1200
1200
1E00
0000
E1C0
E1C0
E1C0
E1C0
E1C0
E1C0
E1C0
E1C0
E1C0
E1C0
7380
7F80
1F00
ENDCHAR
STARTCHAR uring
ENCODING 367
SWIDTH 600 0
DWIDTH 12 0
BBX 10 15 1 0
BITMAP
1E00
3300
3300
1E00
0000
E1C0
E1C0
E1C0
E1C0
E1C0
E1C0
E3C0
E3C0
7FC0
39C0
ENDCHAR
STARTCHAR Uhungarumlaut
ENCODING 368
SWIDTH 600 0
DWIDTH 12 0
BBX 10 18 1 0
BITMAP
0880
1DC0
1B80
3300
0000
E1C0
E1C0
E1C0
E1C0
E1C0
E1C0
E1C0
E1C0
E1C0
E1C0
7380
7F80
1F00
ENDCHAR
STARTCHAR uhungarumlaut
ENCODING 369
SWIDTH 600 0
DWIDTH 12 0
BBX 10 15 1 0
BITMAP
0980
1DC0
1B00
3300
0000
E1C0
E1C0
E1C0
E1C0
E1C0
E1C0
E3C0
E3C0
7FC0
39C0
ENDCHAR
STARTCHAR Uogonek
ENCODING 370
SWIDTH 600 0
DWIDTH 12 0
BBX 10 18 1 -5
BITMAP
E1C0
E1C0
E1C0
E1C0
E1C0
E1C0
E1C0
E1C0
E1C0
E1C0
7380
7F80
3E00
0C00
1800
1800
1E00
0F00
ENDCHAR
STARTCHAR uogonek
ENCODING 371
SWIDTH 600 0
DWIDTH 12 0
BBX 10 15 1 -5
BITMAP
E1C0
E1C0
E1C0
E1C0
E1C0
E1C0
E3C0
E3C0
7FC0
39C0
0300
0200
0600
07C0
03C0
ENDCHAR
STARTCHAR Wcircumflex
ENCODING 372
SWIDTH 600 0
DWIDTH 12 0
BBX 12 17 0 0
BITMAP
0F00
1F80
1080
0000
E070
E070
E070
6660
6660
6760
7F60
7F60
7F60
7D60
79E0
39C0
39C0
ENDCHAR
STARTCHAR wcircumflex
ENCODING 373
SWIDTH 600 0
DWIDTH 12 0
BBX 12 15 0 0
BITMAP
0F00
1F80
1980
30C0
0000
E070
E670
E670
6760
7F60
7F60
7FE0
7DE0
79E0
39C0
ENDCHAR
STARTCHAR Ycircumflex
ENCODING 374
SWIDTH 600 0
DWIDTH 12 0
BBX 12 17 0 0
BITMAP
0F00
1F80
1080
0000
F0F0
70E0
38C0
39C0
1980
1F80
1F80
0F00
0F00
0600
0600
0600
0600
ENDCHAR
STARTCHAR ycircumflex
ENCODING 375
SWIDTH 600 0
DWIDTH 12 0
BBX 10 19 1 -4
BITMAP
1E00
1F00
3380
6100
0000
E1C0
E1C0
7180
7380
3380
3B00
1B00
1F00
0E00
0E00
0C00
1C00
7800
F000
ENDCHAR
STARTCHAR Ydieresis
ENCODING 376
SWIDTH 600 0
DWIDTH 12 0
BBX 12 17 0 0
BITMAP
1980
39C0
1980
0000
F0F0
70E0
38C0
39C0
1980
1F80
1F80
0F00
0F00
0600
0600
0600
0600
ENDCHAR
STARTCHAR Zacute
ENCODING 377
SWIDTH 600 0
DWIDTH 12 0
BBX 10 18 1 0
BITMAP
0200
0700
1E00
0800
0000
7FC0
7FC0
0380
0700
0700
0E00
1E00
1C00
3800
3800
7000
FFC0
FFC0
ENDCHAR
STARTCHAR zacute
ENCODING 378
SWIDTH 600 0
DWIDTH 12 0
BBX 10 16 1 0
BITMAP
0100
0380
0700
0E00
0400
0000
7FC0
7F80
0780
0F00
0E00
1C00
3C00
7800
7FC0
FFC0
ENDCHAR
STARTCHAR Zdotaccent
ENCODING 379
SWIDTH 600 0
DWIDTH 12 0
BBX 10 17 1 0
BITMAP
0E00
0E00
0E00
0000
7FC0
7FC0
0380
0700
0700
0E00
1E00
1C00
3800
3800
7000
FFC0
FFC0
ENDCHAR
STARTCHAR zdotaccent
ENCODING 380
SWIDTH 600 0
DWIDTH 12 0
BBX 10 15 1 0
BITMAP
0E00
0E00
0F00
0E00
0000
7FC0
7F80
0780
0F00
0E00
1C00
3C00
7800
7FC0
FFC0
ENDCHAR
STARTCHAR Zcaron
ENCODING 381
SWIDTH 600 0
DWIDTH 12 0
BBX 10 17 1 0
BITMAP
3100
1B80
1E00
0000
7FC0
7FC0
0380
0700
0700
0E00
1E00
1C00
3800
3800
7000
FFC0
FFC0
ENDCHAR
STARTCHAR zcaron
ENCODING 382
SWIDTH 600 0
DWIDTH 12 0
BBX 10 15 1 0
BITMAP
1180
3B80
1F00
0E00
0000
7FC0
7F80
0780
0F00
0E00
1C00
3C00
7800
7FC0
FFC0
ENDCHAR
STARTCHAR longs
ENCODING 383
SWIDTH 600 0
DWIDTH 12 0
BBX 10 14 2 0
BITMAP
0FC0
1F80
3C00
3800
F800
F800
3800
3800
3800
3800
3800
3800
3800
3800
ENDCHAR
STARTCHAR uni0180
ENCODING 384
SWIDTH 600 0
DWIDTH 12 0
BBX 11 14 0 0
BITMAP
7000
FF00
FF00
7000
7780
7FC0
79E0
70E0
70E0
70E0
70E0
79E0
7FC0
7780
ENDCHAR
STARTCHAR uni018A
ENCODING 394
SWIDTH 600 0
DWIDTH 12 0
BBX 12 13 0 0
BITMAP
3F00
7FC0
ECE0
CCE0
CC60
EC70
6C70
4C70
0C60
0CE0
0CE0
0FC0
0F80
ENDCHAR
STARTCHAR uni018F
ENCODING 399
SWIDTH 600 0
DWIDTH 12 0
BBX 10 13 1 0
BITMAP
3E00
7F80
2380
01C0
01C0
01C0
FFC0
FFC0
E1C0
E1C0
7380
3F80
1E00
ENDCHAR
STARTCHAR uni0192
ENCODING 402
SWIDTH 600 0
DWIDTH 12 0
BBX 10 15 1 -2
BITMAP
03C0
07C0
0E00
0E00
0E00
3F80
3F80
1C00
1C00
1C00
1C00
1C00
3800
F800
F000
ENDCHAR
STARTCHAR uni0193
ENCODING 403
SWIDTH 600 0
DWIDTH 12 0
BBX 11 16 1 0
BITMAP
00E0
01E0
0180
1F80
3FC0
7080
F000
E000
E000
E7C0
E7C0
E1C0
F1C0
71C0
3FC0
1F00
ENDCHAR
STARTCHAR Ohorn
ENCODING 416
SWIDTH 600 0
DWIDTH 12 0
BBX 11 16 1 0
BITMAP
0060
00E0
00E0
1FC0
7F80
7380
E1C0
E1C0
E1C0
E1C0
E1C0
E1C0
E1C0
7380
7F80
1E00
ENDCHAR
STARTCHAR ohorn
ENCODING 417
SWIDTH 600 0
DWIDTH 12 0
BBX 11 14 1 0
BITMAP
0060
00E0
00E0
00E0
1FC0
7F80
73C0
E1C0
E1C0
E1C0
E1C0
7380
7F80
1E00
ENDCHAR
STARTCHAR Uhorn
ENCODING 431
SWIDTH 600 0
DWIDTH 12 0
BBX 12 17 1 0
BITMAP
0030
0070
0030
0070
E1E0
E1C0
E1C0
E1C0
E1C0
E1C0
E1C0
E1C0
E1C0
E1C0
7380
7F80
1E00
ENDCHAR
STARTCHAR uhorn
ENCODING 432
SWIDTH 600 0
DWIDTH 12 0
BBX 11 14 1 0
BITMAP
0020
0060
0060
0060
E1C0
E1C0
E1C0
E1C0
E1C0
E1C0
E3C0
E3C0
7FC0
39C0
ENDCHAR
STARTCHAR uni01C2
ENCODING 450
SWIDTH 600 0
DWIDTH 12 0
BBX 10 18 1 -4
BITMAP
0C00
0C00
0C00
0C00
0C00
0C00
FFC0
FFC0
0C00
0C00
FFC0
FFC0
0C00
0C00
0C00
0C00
0C00
0C00
ENDCHAR
STARTCHAR uni01CD
ENCODING 461
SWIDTH 600 0
DWIDTH 12 0
BBX 12 17 0 0
BITMAP
1080
1F80
0F00
0000
0F00
0F00
1F80
1F80
1B80
1980
39C0
39C0
3FC0
7FE0
70E0
70E0
E070
ENDCHAR
STARTCHAR uni01CE
ENCODING 462
SWIDTH 600 0
DWIDTH 12 0
BBX 10 15 1 0
BITMAP
2100
3B80
1F00
0E00
0000
3F00
7F80
6380
01C0
1FC0
7FC0
F1C0
E3C0
7FC0
7DC0
ENDCHAR
STARTCHAR uni01CF
ENCODING 463
SWIDTH 600 0
DWIDTH 12 0
BBX 10 17 1 0
BITMAP
2100
3F00
1E00
0000
FFC0
FFC0
0C00
0C00
0C00
0C00
0C00
0C00
0C00
0C00
0C00
FFC0
FFC0
ENDCHAR
STARTCHAR uni01D0
ENCODING 464
SWIDTH 600 0
DWIDTH 12 0
BBX 9 15 2 0
BITMAP
2100
7380
3F00
1E00
0000
FE00
FE00
0E00
0E00
0E00
0E00
0E00
0E00
0E00
0E00
ENDCHAR
STARTCHAR uni01D1
ENCODING 465
SWIDTH 600 0
DWIDTH 12 0
BBX 10 17 1 0
BITMAP
2100
3F00
1E00
0000
1E00
7F80
7380
E1C0
E1C0
E1C0
E1C0
E1C0
E1C0
E1C0
7380
7F80
1E00
ENDCHAR
STARTCHAR uni01D2
ENCODING 466
SWIDTH 600 0
DWIDTH 12 0
BBX 10 15 1 0
BITMAP
2100
7380
3F00
1E00
0000
1E00
7F80
7380
E1C0
E1C0
E1C0
E1C0
7380
7F80
1E00
ENDCHAR
STARTCHAR uni01D3
ENCODING 467
SWIDTH 600 0
DWIDTH 12 0
BBX 10 17 1 0
BITMAP
2100
3F00
1E00
0000
E1C0
E1C0
E1C0
E1C0
E1C0
E1C0
E1C0
E1C0
E1C0
E1C0
7380
7F80
1F00
ENDCHAR
STARTCHAR uni01D4
ENCODING 468
SWIDTH 600 0
DWIDTH 12 0
BBX 10 15 1 0
BITMAP
2100
7380
3F00
1E00
0000
E1C0
E1C0
E1C0
E1C0
E1C0
E1C0
E3C0
E3C0
7FC0
39C0
ENDCHAR
STARTCHAR uni01D5
ENCODING 469
SWIDTH 600 0
DWIDTH 12 0
BBX 10 18 1 0
BITMAP
3F00
0000
3300
3300
0000
E1C0
E1C0
E1C0
E1C0
E1C0
E1C0
E1C0
E1C0
E1C0
E1C0
7380
7F80
1F00
ENDCHAR
STARTCHAR uni01D6
ENCODING 470
SWIDTH 600 0
DWIDTH 12 0
BBX 10 16 1 0
BITMAP
3F00
0000
3300
3300
0000
0000
E1C0
E1C0
E1C0
E1C0
E1C0
E1C0
E3C0
E3C0
7FC0
39C0
ENDCHAR
STARTCHAR uni01D7
ENCODING 471
SWIDTH 600 0
DWIDTH 12 0
BBX 10 20 1 0
BITMAP
0600
0700
0E00
0C00
3300
3300
0000
E1C0
E1C0
E1C0
E1C0
E1C0
E1C0
E1C0
E1C0
E1C0
E1C0
7380
7F80
1F00
ENDCHAR
STARTCHAR uni01D8
ENCODING 472
SWIDTH 600 0
DWIDTH 12 0
BBX 10 17 1 0
BITMAP
0400
0600
0C00
3300
3300
0000
0000
E1C0
E1C0
E1C0
E1C0
E1C0
E1C0
E3C0
E3C0
7FC0
39C0
ENDCHAR
STARTCHAR uni01D9
ENCODING 473
SWIDTH 600 0
DWIDTH 12 0
BBX 10 20 1 0
BITMAP
3300
3F00
1E00
0000
3300
3300
0000
E1C0
E1C0
E1C0
E1C0
E1C0
E1C0
E1C0
E1C0
E1C0
E1C0
7380
7F80
1F00
ENDCHAR
STARTCHAR uni01DA
ENCODING 474
SWIDTH 600 0
DWIDTH 12 0
BBX 10 18 1 0
BITMAP
3200
3F00
1E00
0000
3300
3300
0000
0000
E1C0
E1C0
E1C0
E1C0
E1C0
E1C0
E3C0
E3C0
7FC0
39C0
ENDCHAR
STARTCHAR uni01DB
ENCODING 475
SWIDTH 600 0
DWIDTH 12 0
BBX 10 20 1 0
BITMAP
1800
3800
1C00
0C00
3300
3300
0000
E1C0
E1C0
E1C0
E1C0
E1C0
E1C0
E1C0
E1C0
E1C0
E1C0
7380
7F80
1F00
ENDCHAR
STARTCHAR uni01DC
ENCODING 476
SWIDTH 600 0
DWIDTH 12 0
BBX 10 17 1 0
BITMAP
0800
1800
0C00
3300
3300
0000
0000
E1C0
E1C0
E1C0
E1C0
E1C0
E1C0
E3C0
E3C0
7FC0
39C0
ENDCHAR
STARTCHAR uni01E2
ENCODING 482
SWIDTH 600 0
DWIDTH 12 0
BBX 12 16 0 0
BITMAP
07E0
07E0
0000
0FF0
0FF0
1F80
1F80
1F80
3B80
3BE0
3BE0
7F80
7F80
7380
E3F0
E3F0
ENDCHAR
STARTCHAR uni01E3
ENCODING 483
SWIDTH 600 0
DWIDTH 12 0
BBX 12 14 0 0
BITMAP
1F80
1F80
0000
0000
39C0
7FE0
4770
1E30
7FF0
77F0
E600
E720
7FE0
79F0
ENDCHAR
STARTCHAR Gcaron
ENCODING 486
SWIDTH 600 0
DWIDTH 12 0
BBX 10 17 1 0
BITMAP
1180
3B00
0F00
0000
1F00
3FC0
7080
F000
E000
E000
E7C0
E7C0
E1C0
F1C0
71C0
3FC0
1F00
ENDCHAR
STARTCHAR gcaron
ENCODING 487
SWIDTH 600 0
DWIDTH 12 0
BBX 10 19 1 -4
BITMAP
2100
7380
3F00
1E00
0000
3FC0
7FC0
7380
E380
7380
7F00
7E00
6000
7F80
3FC0
E0C0
E1C0
FFC0
3F00
ENDCHAR
STARTCHAR uni01EA
ENCODING 490
SWIDTH 600 0
DWIDTH 12 0
BBX 10 18 1 -5
BITMAP
1E00
7F80
7380
E1C0
E1C0
E1C0
E1C0
E1C0
E1C0
E1C0
7380
7F80
1E00
0C00
1800
1800
1E00
0F00
ENDCHAR
STARTCHAR uni01EB
ENCODING 491
SWIDTH 600 0
DWIDTH 12 0
BBX 10 15 1 -5
BITMAP
1E00
7F80
7380
E1C0
E1C0
E1C0
E1C0
7380
7F80
1E00
0C00
1800
1800
1E00
0F00
ENDCHAR
STARTCHAR uni01F4
ENCODING 500
SWIDTH 600 0
DWIDTH 12 0
BBX 10 18 1 0
BITMAP
0200
0700
0E80
0C00
0000
1F00
3FC0
7080
F000
E000
E000
E7C0
E7C0
E1C0
F1C0
71C0
3FC0
1F00
ENDCHAR
STARTCHAR uni01F5
ENCODING 501
SWIDTH 600 0
DWIDTH 12 0
BBX 10 20 1 -4
BITMAP
0200
0700
0F80
0E00
0C00
0000
3FC0
7FC0
7380
E380
7380
7F00
7E00
6000
7F80
3FC0
E0C0
E1C0
FFC0
3F00
ENDCHAR
STARTCHAR uni01F8
ENCODING 504
SWIDTH 600 0
DWIDTH 12 0
BBX 10 18 1 0
BITMAP
1000
1C00
3E00
0400
0000
F1C0
F1C0
F1C0
F9C0
F9C0
EDC0
EDC0
EDC0
E7C0
E7C0
E3C0
E3C0
E3C0
ENDCHAR
STARTCHAR uni01F9
ENCODING 505
SWIDTH 600 0
DWIDTH 12 0
BBX 10 16 1 0
BITMAP
1000
3800
3C00
0E00
0400
0000
E700
FF80
F1C0
E1C0
E1C0
E1C0
E1C0
E1C0
E1C0
E1C0
ENDCHAR
STARTCHAR Aringacute
ENCODING 506
SWIDTH 600 0
DWIDTH 12 0
BBX 12 20 0 0
BITMAP
0100
0380
0F00
0900
0900
0F00
0000
0F00
0F00
1F80
1F80
1980
1980
39C0
39C0
3FC0
7FE0
70E0
70E0
E070
ENDCHAR
STARTCHAR aringacute
ENCODING 507
SWIDTH 600 0
DWIDTH 12 0
BBX 10 17 1 0
BITMAP
0200
0700
1E00
1B00
1B00
0E00
0000
3F00
7F80
6180
1FC0
7FC0
F1C0
E1C0
E3C0
7FC0
3DC0
ENDCHAR
STARTCHAR AEacute
ENCODING 508
SWIDTH 600 0
DWIDTH 12 0
BBX 12 18 0 0
BITMAP
0040
01E0
03C0
0100
0000
0FF0
0FF0
1F80
1F80
1F80
3B80
3BE0
3BE0
7F80
7F80
7380
E3F0
E3F0
ENDCHAR
STARTCHAR aeacute
ENCODING 509
SWIDTH 600 0
DWIDTH 12 0
BBX 12 16 0 0
BITMAP
0100
0380
03C0
0700
0200
0000
39C0
7FE0
4770
1E30
7FF0
77F0
E600
E720
7FE0
79F0
ENDCHAR
STARTCHAR Oslashacute
ENCODING 510
SWIDTH 600 0
DWIDTH 12 0
BBX 12 19 0 -1
BITMAP
0100
0780
0F00
0400
0040
0F70
3FE0
39C0
71E0
73E0
73E0
76E0
7CE0
7CE0
78E0
39C0
7FC0
EF00
4000
ENDCHAR
STARTCHAR oslashacute
ENCODING 511
SWIDTH 600 0
DWIDTH 12 0
BBX 10 16 1 0
BITMAP
0200
0700
0F80
0E00
1800
0000
1EC0
7F80
7380
E7C0
EDC0
EDC0
F9C0
7380
7F80
DE00
ENDCHAR
STARTCHAR uni0218
ENCODING 536
SWIDTH 600 0
DWIDTH 12 0
BBX 10 18 1 -5
BITMAP
1F00
7FC0
7180
7000
7000
7E00
3F80
0FC0
03C0
01C0
61C0
FF80
3F00
0000
0C00
0600
1E00
1C00
ENDCHAR
STARTCHAR uni0219
ENCODING 537
SWIDTH 600 0
DWIDTH 12 0
BBX 10 15 1 -5
BITMAP
1F00
7FC0
7180
7000
7F00
1F80
03C0
61C0
FF80
3F00
0000
0C00
0600
1E00
1C00
ENDCHAR
STARTCHAR uni021A
ENCODING 538
SWIDTH 600 0
DWIDTH 12 0
BBX 10 18 1 -5
BITMAP
FFC0
FFC0
0C00
0C00
0C00
0C00
0C00
0C00
0C00
0C00
0C00
0C00
0C00
0000
0C00
0600
1E00
1C00
ENDCHAR
STARTCHAR uni021B
ENCODING 539
SWIDTH 600 0
DWIDTH 12 0
BBX 10 18 1 -5
BITMAP
1800
1800
1800
FFC0
FFC0
3800
3800
3800
3800
1800
1C00
1FC0
0FC0
0000
0700
0300
0F00
0E00
ENDCHAR
STARTCHAR uni0237
ENCODING 567
SWIDTH 600 0
DWIDTH 12 0
BBX 8 14 1 -4
BITMAP
7F
7F
07
07
07
07
07
07
07
06
06
0E
FE
F8
ENDCHAR
STARTCHAR uni0243
ENCODING 579
SWIDTH 600 0
DWIDTH 12 0
BBX 11 13 0 0
BITMAP
3F80
3FC0
38E0
38E0
39C0
3F80
3FC0
38E0
FEE0
FEE0
38E0
3FC0
3F80
ENDCHAR
STARTCHAR uni0250
ENCODING 592
SWIDTH 600 0
DWIDTH 12 0
BBX 10 10 1 0
BITMAP
E780
FFC0
F1C0
E1C0
FF80
FE00
E000
7080
7F80
1F40
ENDCHAR
STARTCHAR uni0251
ENCODING 593
SWIDTH 600 0
DWIDTH 12 0
BBX 10 10 1 0
BITMAP
3DC0
7FC0
F3C0
E1C0
E1C0
E1C0
E1C0
F3C0
7FC0
3DC0
ENDCHAR
STARTCHAR uni0252
ENCODING 594
SWIDTH 600 0
DWIDTH 12 0
BBX 10 10 1 0
BITMAP
EF00
FF80
F3C0
E1C0
E1C0
E1C0
E1C0
F3C0
FF80
EF00
ENDCHAR
STARTCHAR uni0253
ENCODING 595
SWIDTH 600 0
DWIDTH 12 0
BBX 10 14 1 0
BITMAP
3E00
7E00
7000
E000
EF00
FF80
F3C0
E1C0
E1C0
E1C0
E1C0
F380
FF80
EF00
ENDCHAR
STARTCHAR uni0254
ENCODING 596
SWIDTH 600 0
DWIDTH 12 0
BBX 10 10 1 0
BITMAP
7E00
FF00
4380
0380
01C0
01C0
0380
4780
FF00
7E00
ENDCHAR
STARTCHAR uni0255
ENCODING 597
SWIDTH 600 0
DWIDTH 12 0
BBX 10 12 1 -2
BITMAP
1F80
3FC0
7080
6000
E780
EFC0
7CC0
78C0
3FC0
7F00
6000
2000
ENDCHAR
STARTCHAR uni0256
ENCODING 598
SWIDTH 600 0
DWIDTH 12 0
BBX 11 18 1 -4
BITMAP
0180
0180
0180
0180
3D80
7F80
F380
E180
E180
E180
E180
F380
7F80
3D80
0180
01C0
01E0
00E0
ENDCHAR
STARTCHAR uni0257
ENCODING 599
SWIDTH 600 0
DWIDTH 12 0
BBX 11 14 1 0
BITMAP
00E0
01E0
01C0
0180
3D80
7F80
F380
E380
E380
E380
E380
F380
7F80
3D80
ENDCHAR
STARTCHAR uni0258
ENCODING 600
SWIDTH 600 0
DWIDTH 12 0
BBX 10 10 1 0
BITMAP
1E00
7F80
6380
E1C0
FFC0
FFC0
01C0
4380
7F00
BE00
ENDCHAR
STARTCHAR uni0259
ENCODING 601
SWIDTH 600 0
DWIDTH 12 0
BBX 10 10 1 0
BITMAP
3E00
7F80
4380
01C0
FFC0
FFC0
E1C0
6380
7F80
3E00
ENDCHAR
STARTCHAR uni025A
ENCODING 602
SWIDTH 600 0
DWIDTH 12 0
BBX 12 10 0 0
BITMAP
7C00
7E80
47C0
07E0
3F70
FF30
E700
E700
7E00
3C00
ENDCHAR
STARTCHAR uni025B
ENCODING 603
SWIDTH 600 0
DWIDTH 12 0
BBX 10 10 1 0
BITMAP
3F80
7FC0
7080
7000
3E00
7E00
E000
F080
7FC0
3F80
ENDCHAR
STARTCHAR uni025C
ENCODING 604
SWIDTH 600 0
DWIDTH 12 0
BBX 10 10 1 0
BITMAP
7F00
FF80
4380
0380
1F00
1F80
01C0
41C0
FF80
3F00
ENDCHAR
STARTCHAR uni025E
ENCODING 606
SWIDTH 600 0
DWIDTH 12 0
BBX 10 10 1 0
BITMAP
1F00
7F80
7180
E1C0
E780
E780
E1C0
F1C0
7F80
1F00
ENDCHAR
STARTCHAR uni025F
ENCODING 607
SWIDTH 600 0
DWIDTH 12 0
BBX 10 14 1 -4
BITMAP
7F00
7F00
0700
0700
7FC0
7FC0
0700
0700
0700
0600
0600
0E00
FE00
F800
ENDCHAR
STARTCHAR uni0260
ENCODING 608
SWIDTH 600 0
DWIDTH 12 0
BBX 11 17 1 -4
BITMAP
00E0
01E0
01C0
3D80
7F80
7380
E180
E180
E180
E180
F380
7F80
3D80
0380
4380
7F80
3E00
ENDCHAR
STARTCHAR uni0261
ENCODING 609
SWIDTH 600 0
DWIDTH 12 0
BBX 10 14 1 -4
BITMAP
3DC0
7FC0
F3C0
E1C0
E1C0
E1C0
E1C0
F3C0
7FC0
3DC0
01C0
4380
7F80
7E00
ENDCHAR
STARTCHAR uni0262
ENCODING 610
SWIDTH 600 0
DWIDTH 12 0
BBX 10 10 1 0
BITMAP
1F00
3FC0
7080
7000
E7C0
E7C0
F1C0
71C0
3FC0
1F00
ENDCHAR
STARTCHAR uni0263
ENCODING 611
SWIDTH 600 0
DWIDTH 12 0
BBX 10 14 1 -4
BITMAP
E1C0
E1C0
7180
7380
3300
3B00
3F00
1E00
1E00
3F00
3300
3300
3F00
1E00
ENDCHAR
STARTCHAR uni0264
ENCODING 612
SWIDTH 600 0
DWIDTH 12 0
BBX 10 10 1 0
BITMAP
F3C0
FFC0
1E00
3F00
3F00
7380
7380
7380
3F00
1E00
ENDCHAR
STARTCHAR uni0265
ENCODING 613
SWIDTH 600 0
DWIDTH 12 0
BBX 10 14 1 -4
BITMAP
E1C0
E1C0
E1C0
E1C0
E1C0
E1C0
E1C0
E3C0
7FC0
39C0
01C0
01C0
01C0
01C0
ENDCHAR
STARTCHAR uni0266
ENCODING 614
SWIDTH 600 0
DWIDTH 12 0
BBX 10 14 1 0
BITMAP
3E00
7E00
7000
E000
E700
FF80
F1C0
E1C0
E1C0
E1C0
E1C0
E1C0
E1C0
E1C0
ENDCHAR
STARTCHAR uni0267
ENCODING 615
SWIDTH 600 0
DWIDTH 12 0
BBX 10 18 1 -4
BITMAP
3E00
7E00
7000
E000
E700
FF80
F1C0
E1C0
E1C0
E1C0
E1C0
E1C0
E1C0
E1C0
01C0
01C0
0780
0F00
ENDCHAR
STARTCHAR uni0268
ENCODING 616
SWIDTH 600 0
DWIDTH 12 0
BBX 9 15 2 0
BITMAP
0C00
1E00
1E00
0C00
0000
FE00
FE00
0E00
0E00
FF80
FF80
0E00
0E00
0E00
0E00
ENDCHAR
STARTCHAR uni026A
ENCODING 618
SWIDTH 600 0
DWIDTH 12 0
BBX 8 10 2 0
BITMAP
FF
FF
18
18
18
18
18
18
FF
FF
ENDCHAR
STARTCHAR uni026B
ENCODING 619
SWIDTH 600 0
DWIDTH 12 0
BBX 10 14 1 0
BITMAP
FC00
FC00
1C00
1C00
1C00
1C00
7D80
FF80
5F00
1C00
1C00
1C00
0FC0
07C0
ENDCHAR
STARTCHAR uni026C
ENCODING 620
SWIDTH 600 0
DWIDTH 12 0
BBX 10 14 1 0
BITMAP
FC00
FC00
1C00
7C00
FC00
9C00
FF80
7F80
1C00
1C00
1C00
1C00
0FC0
07C0
ENDCHAR
STARTCHAR uni026D
ENCODING 621
SWIDTH 600 0
DWIDTH 12 0
BBX 10 18 1 -4
BITMAP
FC00
FC00
1C00
1C00
1C00
1C00
1C00
1C00
1C00
1C00
1C00
1C00
1C00
1C00
1C00
1C00
0FC0
07C0
ENDCHAR
STARTCHAR uni026E
ENCODING 622
SWIDTH 600 0
DWIDTH 12 0
BBX 11 18 1 -4
BITMAP
E000
E000
E000
E000
FFE0
FFE0
E1C0
E380
E780
E700
EF80
EFC0
E0E0
E0E0
00E0
11E0
3FC0
0F80
ENDCHAR
STARTCHAR uni026F
ENCODING 623
SWIDTH 600 0
DWIDTH 12 0
BBX 10 10 1 0
BITMAP
CDC0
CDC0
CDC0
CDC0
CDC0
CDC0
CDC0
DDC0
FFC0
EEC0
ENDCHAR
STARTCHAR uni0270
ENCODING 624
SWIDTH 600 0
DWIDTH 12 0
BBX 10 14 1 -4
BITMAP
CDC0
CDC0
CDC0
CDC0
CDC0
CDC0
CDC0
DDC0
FFC0
EEC0
00C0
00C0
00C0
00C0
ENDCHAR
STARTCHAR uni0271
ENCODING 625
SWIDTH 600 0
DWIDTH 12 0
BBX 10 14 1 -4
BITMAP
DDC0
FFC0
EEC0
ECC0
ECC0
ECC0
ECC0
ECC0
ECC0
ECC0
00C0
00C0
03C0
0380
ENDCHAR
STARTCHAR uni0272
ENCODING 626
SWIDTH 600 0
DWIDTH 12 0
BBX 11 14 0 -4
BITMAP
3380
3FC0
38E0
38E0
38E0
38E0
38E0
38E0
38E0
38E0
3800
3000
F000
E000
ENDCHAR
STARTCHAR uni0273
ENCODING 627
SWIDTH 600 0
DWIDTH 12 0
BBX 12 14 1 -4
BITMAP
EF00
FF80
F380
E1C0
E1C0
E1C0
E1C0
E1C0
E1C0
E1C0
01C0
01C0
01E0
00F0
ENDCHAR
STARTCHAR uni0274
ENCODING 628
SWIDTH 600 0
DWIDTH 12 0
BBX 10 10 1 0
BITMAP
F1C0
F1C0
F9C0
F9C0
FDC0
EFC0
E7C0
E7C0
E3C0
E3C0
ENDCHAR
STARTCHAR uni0275
ENCODING 629
SWIDTH 600 0
DWIDTH 12 0
BBX 10 10 1 0
BITMAP
1E00
7F80
7380
E1C0
FFC0
FFC0
E1C0
6180
7F80
1E00
ENDCHAR
STARTCHAR uni0276
ENCODING 630
SWIDTH 600 0
DWIDTH 12 0
BBX 12 10 0 0
BITMAP
1FF0
3FF0
7380
7380
E3E0
E3E0
7380
7380
7FF0
1FF0
ENDCHAR
STARTCHAR uni0278
ENCODING 632
SWIDTH 600 0
DWIDTH 12 0
BBX 12 18 0 -4
BITMAP
0600
0600
0600
0600
1F80
3FC0
76E0
6660
6660
E670
6660
76E0
3FC0
1F80
0600
0600
0600
0600
ENDCHAR
STARTCHAR uni0279
ENCODING 633
SWIDTH 600 0
DWIDTH 12 0
BBX 9 10 1 0
BITMAP
0380
0380
0380
0380
0380
0380
0780
0F80
FB80
F380
ENDCHAR
STARTCHAR uni027A
ENCODING 634
SWIDTH 600 0
DWIDTH 12 0
BBX 9 14 1 0
BITMAP
0380
0380
0380
0380
0380
0380
0380
0380
0380
0380
0780
0F80
FB80
F380
ENDCHAR
STARTCHAR uni027B
ENCODING 635
SWIDTH 600 0
DWIDTH 12 0
BBX 10 14 1 -4
BITMAP
0700
0700
0700
0700
0700
0700
0F00
0F00
FF00
F700
0700
0700
03C0
03C0
ENDCHAR
STARTCHAR uni027D
ENCODING 637
SWIDTH 600 0
DWIDTH 12 0
BBX 9 14 2 -4
BITMAP
E780
EF80
F800
F000
E000
E000
E000
E000
E000
E000
E000
7000
7F00
3F00
ENDCHAR
STARTCHAR uni027E
ENCODING 638
SWIDTH 600 0
DWIDTH 12 0
BBX 9 10 2 0
BITMAP
1F80
3F80
7000
F000
E000
E000
E000
E000
E000
E000
ENDCHAR
STARTCHAR uni0280
ENCODING 640
SWIDTH 600 0
DWIDTH 12 0
BBX 10 10 1 0
BITMAP
FF00
FF80
E3C0
E1C0
E380
FF80
FF00
E700
E380
E1C0
ENDCHAR
STARTCHAR uni0281
ENCODING 641
SWIDTH 600 0
DWIDTH 12 0
BBX 10 10 1 0
BITMAP
E1C0
71C0
39C0
3FC0
7FC0
71C0
E1C0
F1C0
7FC0
3FC0
ENDCHAR
STARTCHAR uni0282
ENCODING 642
SWIDTH 600 0
DWIDTH 12 0
BBX 10 14 1 -4
BITMAP
1F00
7FC0
7180
7000
7F00
1F80
03C0
61C0
FF80
FF00
E000
E000
7800
7800
ENDCHAR
STARTCHAR uni0283
ENCODING 643
SWIDTH 600 0
DWIDTH 12 0
BBX 10 18 1 -4
BITMAP
07C0
0FC0
0E00
0E00
0E00
0E00
0E00
0E00
0E00
0E00
0E00
0E00
0E00
0E00
0C00
1C00
FC00
F800
ENDCHAR
STARTCHAR uni0284
ENCODING 644
SWIDTH 600 0
DWIDTH 12 0
BBX 10 18 1 -4
BITMAP
07C0
0FC0
0E00
0E00
0E00
0E00
0E00
0E00
7FC0
7FC0
0E00
0E00
0E00
0E00
0C00
1C00
FC00
F800
ENDCHAR
STARTCHAR uni0287
ENCODING 647
SWIDTH 600 0
DWIDTH 12 0
BBX 10 13 1 -3
BITMAP
FC00
FE00
0E00
0600
0700
0700
0700
0700
FFC0
FFC0
0600
0600
0600
ENDCHAR
STARTCHAR uni0288
ENCODING 648
SWIDTH 600 0
DWIDTH 12 0
BBX 10 17 1 -4
BITMAP
1800
1800
1800
FFC0
FFC0
3800
3800
3800
3800
3800
3800
3800
3800
1800
1C00
1FC0
0FC0
ENDCHAR
STARTCHAR uni0289
ENCODING 649
SWIDTH 600 0
DWIDTH 12 0
BBX 12 10 0 0
BITMAP
71C0
71C0
71C0
FFF0
FFF0
71C0
71C0
39C0
3FC0
1EC0
ENDCHAR
STARTCHAR uni028A
ENCODING 650
SWIDTH 600 0
DWIDTH 12 0
BBX 10 10 1 0
BITMAP
F3C0
F3C0
7380
6180
E1C0
E1C0
E1C0
F3C0
7F80
1E00
ENDCHAR
STARTCHAR uni028B
ENCODING 651
SWIDTH 600 0
DWIDTH 12 0
BBX 10 10 1 0
BITMAP
E700
E780
E1C0
E1C0
E1C0
E1C0
E1C0
7380
7F80
1E00
ENDCHAR
STARTCHAR uni028C
ENCODING 652
SWIDTH 600 0
DWIDTH 12 0
BBX 10 10 1 0
BITMAP
1E00
1E00
3F00
3F00
3300
7380
7380
6180
E1C0
E1C0
ENDCHAR
STARTCHAR uni028D
ENCODING 653
SWIDTH 600 0
DWIDTH 12 0
BBX 12 10 0 0
BITMAP
39C0
79E0
7BE0
7FE0
6FE0
6FE0
6E60
E670
E670
E070
ENDCHAR
STARTCHAR uni028E
ENCODING 654
SWIDTH 600 0
DWIDTH 12 0
BBX 10 14 1 0
BITMAP
03C0
0780
0E00
0E00
1C00
1C00
1E00
3E00
3700
7300
7380
6380
E1C0
E1C0
ENDCHAR
STARTCHAR uni028F
ENCODING 655
SWIDTH 600 0
DWIDTH 12 0
BBX 10 10 1 0
BITMAP
E1C0
F1C0
7380
3300
3F00
1E00
1E00
0E00
0E00
0E00
ENDCHAR
STARTCHAR uni0290
ENCODING 656
SWIDTH 600 0
DWIDTH 12 0
BBX 12 14 1 -4
BITMAP
7FC0
7F80
0780
0F00
0E00
1C00
3C00
7800
7FC0
FFC0
01C0
01C0
01E0
00F0
ENDCHAR
STARTCHAR uni0291
ENCODING 657
SWIDTH 600 0
DWIDTH 12 0
BBX 11 12 1 -2
BITMAP
7F80
7F80
0700
0E00
1C00
1DC0
39E0
7360
7FC0
FF80
0600
0400
ENDCHAR
STARTCHAR uni0292
ENCODING 658
SWIDTH 600 0
DWIDTH 12 0
BBX 10 14 1 -4
BITMAP
7F80
7F80
0700
0E00
1C00
3F00
3F80
0380
01C0
01C0
01C0
4380
FF00
3E00
ENDCHAR
STARTCHAR uni0294
ENCODING 660
SWIDTH 600 0
DWIDTH 12 0
BBX 10 14 1 0
BITMAP
3E00
FF80
4380
01C0
01C0
0380
0780
1F00
1E00
1C00
1C00
1C00
1C00
1C00
ENDCHAR
STARTCHAR uni0295
ENCODING 661
SWIDTH 600 0
DWIDTH 12 0
BBX 10 14 1 0
BITMAP
1F00
7FC0
7180
E000
E000
7000
7800
3E00
1E00
0E00
0E00
0E00
0E00
0E00
ENDCHAR
STARTCHAR uni0298
ENCODING 664
SWIDTH 600 0
DWIDTH 12 0
BBX 10 14 1 0
BITMAP
1E00
3F00
7380
E1C0
E1C0
E9C0
EDC0
EDC0
E1C0
E1C0
E1C0
7380
3F00
1E00
ENDCHAR
STARTCHAR uni0299
ENCODING 665
SWIDTH 600 0
DWIDTH 12 0
BBX 9 10 2 0
BITMAP
FF00
FF80
E380
E380
FF00
FF80
E380
E380
FF80
FF00
ENDCHAR
STARTCHAR uni029C
ENCODING 668
SWIDTH 600 0
DWIDTH 12 0
BBX 10 10 1 0
BITMAP
E1C0
E1C0
E1C0
E1C0
FFC0
FFC0
E1C0
E1C0
E1C0
E1C0
ENDCHAR
STARTCHAR uni029D
ENCODING 669
SWIDTH 600 0
DWIDTH 12 0
BBX 10 20 1 -5
BITMAP
0600
0F00
0F00
0600
0000
7F00
7F00
0700
0700
0700
0700
0700
0700
0700
7F00
FE00
CF00
FF80
7D80
0140
ENDCHAR
STARTCHAR uni029E
ENCODING 670
SWIDTH 600 0
DWIDTH 12 0
BBX 10 14 0 -4
BITMAP
70C0
38C0
38C0
1DC0
0FC0
0FC0
0EC0
1CC0
38C0
70C0
80C0
00C0
00C0
00C0
ENDCHAR
STARTCHAR uni029F
ENCODING 671
SWIDTH 600 0
DWIDTH 12 0
BBX 9 10 2 0
BITMAP
E000
E000
E000
E000
E000
E000
E000
E000
FF80
FF80
ENDCHAR
STARTCHAR uni02A1
ENCODING 673
SWIDTH 600 0
DWIDTH 12 0
BBX 10 14 1 0
BITMAP
3E00
FF80
6380
01C0
0380
0380
0F00
FFC0
FFC0
1C00
1C00
1C00
1C00
1C00
ENDCHAR
STARTCHAR uni02A2
ENCODING 674
SWIDTH 600 0
DWIDTH 12 0
BBX 10 14 1 0
BITMAP
1F00
7FC0
7180
E000
7000
7000
3C00
FFC0
FFC0
0E00
0E00
0E00
0E00
0E00
ENDCHAR
STARTCHAR uni02A4
ENCODING 676
SWIDTH 600 0
DWIDTH 12 0
BBX 12 18 0 -4
BITMAP
0E00
0E00
0E00
0600
37F0
7FF0
EE60
EE60
CEC0
CEC0
EFE0
EEF0
7E70
7630
0030
0270
03F0
01E0
ENDCHAR
STARTCHAR uni02A6
ENCODING 678
SWIDTH 600 0
DWIDTH 12 0
BBX 12 13 0 0
BITMAP
3000
3000
3000
FFE0
FFF0
7320
7380
71E0
70E0
3070
3870
3FE0
0FC0
ENDCHAR
STARTCHAR uni02A7
ENCODING 679
SWIDTH 600 0
DWIDTH 12 0
BBX 13 18 0 -4
BITMAP
0078
30F8
30E0
30E0
FFE0
FFE0
70E0
70E0
70E0
70E0
70E0
38E0
3EE0
1EE0
00E0
00E0
03C0
0380
ENDCHAR
STARTCHAR h.sups
ENCODING 688
SWIDTH 600 0
DWIDTH 12 0
BBX 6 9 3 7
BITMAP
C0
C0
DC
FC
CC
CC
CC
CC
CC
ENDCHAR
STARTCHAR j.sups
ENCODING 690
SWIDTH 600 0
DWIDTH 12 0
BBX 5 12 3 5
BITMAP
38
38
00
F8
F8
18
18
18
18
18
F0
F0
ENDCHAR
STARTCHAR r.sups
ENCODING 691
SWIDTH 600 0
DWIDTH 12 0
BBX 6 7 4 7
BITMAP
DC
FC
E0
C0
C0
C0
C0
ENDCHAR
STARTCHAR w.sups
ENCODING 695
SWIDTH 600 0
DWIDTH 12 0
BBX 10 7 1 7
BITMAP
CCC0
DD80
DD80
5580
7780
7700
7700
ENDCHAR
STARTCHAR y.sups
ENCODING 696
SWIDTH 600 0
DWIDTH 12 0
BBX 6 9 3 5
BITMAP
CC
CC
6C
78
38
30
30
F0
E0
ENDCHAR
STARTCHAR uni02B9
ENCODING 697
SWIDTH 600 0
DWIDTH 12 0
BBX 3 7 5 7
BITMAP
E0
E0
E0
C0
C0
C0
C0
ENDCHAR
STARTCHAR uni02BB
ENCODING 699
SWIDTH 600 0
DWIDTH 12 0
BBX 4 8 4 6
BITMAP
30
60
C0
C0
E0
F0
F0
60
ENDCHAR
STARTCHAR uni02BC
ENCODING 700
SWIDTH 600 0
DWIDTH 12 0
BBX 4 8 4 6
BITMAP
60
F0
F0
70
30
30
E0
C0
ENDCHAR
STARTCHAR uni02BE
ENCODING 702
SWIDTH 600 0
DWIDTH 12 0
BBX 4 6 4 11
BITMAP
E0
F0
30
30
F0
E0
ENDCHAR
STARTCHAR uni02BF
ENCODING 703
SWIDTH 600 0
DWIDTH 12 0
BBX 4 6 4 11
BITMAP
70
F0
C0
C0
F0
70
ENDCHAR
STARTCHAR uni02C1
ENCODING 705
SWIDTH 600 0
DWIDTH 12 0
BBX 6 8 3 9
BITMAP
78
FC
C8
C0
E0
70
30
30
ENDCHAR
STARTCHAR circumflex
ENCODING 710
SWIDTH 600 0
DWIDTH 12 0
BBX 8 4 2 11
BITMAP
3C
7E
66
C3
ENDCHAR
STARTCHAR caron
ENCODING 711
SWIDTH 600 0
DWIDTH 12 0
BBX 8 4 2 11
BITMAP
42
E7
7E
3C
ENDCHAR
STARTCHAR uni02C8
ENCODING 712
SWIDTH 600 0
DWIDTH 12 0
BBX 4 7 4 8
BITMAP
F0
60
60
60
60
60
60
ENDCHAR
STARTCHAR uni02C9
ENCODING 713
SWIDTH 600 0
DWIDTH 12 0
BBX 6 2 3 12
BITMAP
FC
FC
ENDCHAR
STARTCHAR uni02CA
ENCODING 714
SWIDTH 600 0
DWIDTH 12 0
BBX 6 5 4 11
BITMAP
10
38
7C
70
C0
ENDCHAR
STARTCHAR uni02CB
ENCODING 715
SWIDTH 600 0
DWIDTH 12 0
BBX 6 5 2 11
BITMAP
20
70
F8
38
0C
ENDCHAR
STARTCHAR uni02CC
ENCODING 716
SWIDTH 600 0
DWIDTH 12 0
BBX 4 7 4 -5
BITMAP
60
60
60
60
60
60
F0
ENDCHAR
STARTCHAR uni02D0
ENCODING 720
SWIDTH 600 0
DWIDTH 12 0
BBX 6 11 3 0
BITMAP
FC
78
30
30
20
00
00
20
30
78
FC
ENDCHAR
STARTCHAR uni02D1
ENCODING 721
SWIDTH 600 0
DWIDTH 12 0
BBX 6 4 3 6
BITMAP
FC
78
30
20
ENDCHAR
STARTCHAR breve
ENCODING 728
SWIDTH 600 0
DWIDTH 12 0
BBX 6 3 3 11
BITMAP
CC
FC
78
ENDCHAR
STARTCHAR dotaccent
ENCODING 729
SWIDTH 600 0
DWIDTH 12 0
BBX 4 4 4 11
BITMAP
60
F0
F0
60
ENDCHAR
STARTCHAR ring
ENCODING 730
SWIDTH 600 0
DWIDTH 12 0
BBX 6 4 3 11
BITMAP
78
CC
CC
78
ENDCHAR
STARTCHAR ogonek
ENCODING 731
SWIDTH 600 0
DWIDTH 12 0
BBX 5 5 4 -5
BITMAP
60
C0
C0
F0
78
ENDCHAR
STARTCHAR tilde
ENCODING 732
SWIDTH 600 0
DWIDTH 12 0
BBX 8 3 2 11
BITMAP
73
FF
CE
ENDCHAR
STARTCHAR hungarumlaut
ENCODING 733
SWIDTH 600 0
DWIDTH 12 0
BBX 8 4 3 11
BITMAP
26
77
6E
CC
ENDCHAR
STARTCHAR uni02DE
ENCODING 734
SWIDTH 600 0
DWIDTH 12 0
BBX 6 5 2 4
BITMAP
10
F0
F0
9C
1C
ENDCHAR
STARTCHAR uni02E0
ENCODING 736
SWIDTH 600 0
DWIDTH 12 0
BBX 6 10 3 4
BITMAP
CC
CC
4C
78
78
30
78
68
78
38
ENDCHAR
STARTCHAR l.sups
ENCODING 737
SWIDTH 600 0
DWIDTH 12 0
BBX 5 10 4 7
BITMAP
E0
E0
60
60
60
60
60
60
78
38
ENDCHAR
STARTCHAR s.sups
ENCODING 738
SWIDTH 600 0
DWIDTH 12 0
BBX 6 7 3 7
BITMAP
78
FC
C8
38
8C
FC
78
ENDCHAR
STARTCHAR x.sups
ENCODING 739
SWIDTH 600 0
DWIDTH 12 0
BBX 7 7 2 7
BITMAP
66
34
3C
18
3C
6C
E6
ENDCHAR
STARTCHAR uni02E4
ENCODING 740
SWIDTH 600 0
DWIDTH 12 0
BBX 6 10 3 7
BITMAP
78
FC
C8
C0
E0
70
30
30
30
30
ENDCHAR
STARTCHAR uni0300
ENCODING 768
SWIDTH 600 0
DWIDTH 12 0
BBX 6 5 2 11
BITMAP
20
70
F8
38
0C
ENDCHAR
STARTCHAR uni0301
ENCODING 769
SWIDTH 600 0
DWIDTH 12 0
BBX 6 5 4 11
BITMAP
10
38
7C
70
C0
ENDCHAR
STARTCHAR uni0302
ENCODING 770
SWIDTH 600 0
DWIDTH 12 0
BBX 8 4 2 11
BITMAP
3C
7E
66
C3
ENDCHAR
STARTCHAR uni0303
ENCODING 771
SWIDTH 600 0
DWIDTH 12 0
BBX 8 3 2 11
BITMAP
73
FF
CE
ENDCHAR
STARTCHAR uni0304
ENCODING 772
SWIDTH 600 0
DWIDTH 12 0
BBX 6 2 3 12
BITMAP
FC
FC
ENDCHAR
STARTCHAR uni0305
ENCODING 773
SWIDTH 600 0
DWIDTH 12 0
BBX 6 2 3 12
BITMAP
FC
FC
ENDCHAR
STARTCHAR uni0306
ENCODING 774
SWIDTH 600 0
DWIDTH 12 0
BBX 6 3 3 11
BITMAP
CC
FC
78
ENDCHAR
STARTCHAR uni0307
ENCODING 775
SWIDTH 600 0
DWIDTH 12 0
BBX 4 4 4 11
BITMAP
60
F0
F0
60
ENDCHAR
STARTCHAR uni0308
ENCODING 776
SWIDTH 600 0
DWIDTH 12 0
BBX 8 3 2 12
BITMAP
66
E7
66
ENDCHAR
STARTCHAR uni0309
ENCODING 777
SWIDTH 600 0
DWIDTH 12 0
BBX 4 5 4 11
BITMAP
E0
F0
30
30
60
ENDCHAR
STARTCHAR uni030A
ENCODING 778
SWIDTH 600 0
DWIDTH 12 0
BBX 6 4 3 11
BITMAP
78
CC
CC
78
ENDCHAR
STARTCHAR uni030B
ENCODING 779
SWIDTH 600 0
DWIDTH 12 0
BBX 8 4 3 11
BITMAP
26
77
6E
CC
ENDCHAR
STARTCHAR uni030C
ENCODING 780
SWIDTH 600 0
DWIDTH 12 0
BBX 8 4 2 11
BITMAP
42
E7
7E
3C
ENDCHAR
STARTCHAR uni030F
ENCODING 783
SWIDTH 600 0
DWIDTH 12 0
BBX 8 4 1 11
BITMAP
64
EE
76
33
ENDCHAR
STARTCHAR uni0310
ENCODING 784
SWIDTH 600 0
DWIDTH 12 0
BBX 8 5 2 11
BITMAP
18
3C
D3
7E
3C
ENDCHAR
STARTCHAR uni0311
ENCODING 785
SWIDTH 600 0
DWIDTH 12 0
BBX 6 3 3 12
BITMAP
78
FC
CC
ENDCHAR
STARTCHAR uni0312
ENCODING 786
SWIDTH 600 0
DWIDTH 12 0
BBX 3 5 5 11
BITMAP
40
80
C0
E0
C0
ENDCHAR
STARTCHAR uni0313
ENCODING 787
SWIDTH 600 0
DWIDTH 12 0
BBX 3 5 4 11
BITMAP
60
E0
60
20
40
ENDCHAR
STARTCHAR uni0318
ENCODING 792
SWIDTH 600 0
DWIDTH 12 0
BBX 4 4 4 -5
BITMAP
10
F0
F0
10
ENDCHAR
STARTCHAR uni0319
ENCODING 793
SWIDTH 600 0
DWIDTH 12 0
BBX 4 4 4 -5
BITMAP
80
F0
F0
80
ENDCHAR
STARTCHAR uni031A
ENCODING 794
SWIDTH 600 0
DWIDTH 12 0
BBX 4 4 4 10
BITMAP
F0
F0
30
30
ENDCHAR
STARTCHAR uni031B
ENCODING 795
SWIDTH 600 0
DWIDTH 12 0
BBX 4 5 6 9
BITMAP
20
70
70
60
C0
ENDCHAR
STARTCHAR uni031C
ENCODING 796
SWIDTH 600 0
DWIDTH 12 0
BBX 3 4 4 -5
BITMAP
60
C0
C0
60
ENDCHAR
STARTCHAR uni031D
ENCODING 797
SWIDTH 600 0
DWIDTH 12 0
BBX 6 4 3 -5
BITMAP
30
30
FC
FC
ENDCHAR
STARTCHAR uni031E
ENCODING 798
SWIDTH 600 0
DWIDTH 12 0
BBX 6 4 3 -5
BITMAP
FC
FC
30
30
ENDCHAR
STARTCHAR uni031F
ENCODING 799
SWIDTH 600 0
DWIDTH 12 0
BBX 6 4 3 -5
BITMAP
30
FC
FC
30
ENDCHAR
STARTCHAR uni0320
ENCODING 800
SWIDTH 600 0
DWIDTH 12 0
BBX 6 2 3 -3
BITMAP
FC
FC
ENDCHAR
STARTCHAR uni0323
ENCODING 803
SWIDTH 600 0
DWIDTH 12 0
BBX 4 4 4 -5
BITMAP
60
F0
F0
60
ENDCHAR
STARTCHAR uni0324
ENCODING 804
SWIDTH 600 0
DWIDTH 12 0
BBX 8 3 2 -4
BITMAP
66
E7
66
ENDCHAR
STARTCHAR uni0325
ENCODING 805
SWIDTH 600 0
DWIDTH 12 0
BBX 6 4 3 -5
BITMAP
78
CC
CC
78
ENDCHAR
STARTCHAR uni0326
ENCODING 806
SWIDTH 600 0
DWIDTH 12 0
BBX 4 4 4 -5
BITMAP
60
30
F0
E0
ENDCHAR
STARTCHAR uni0327
ENCODING 807
SWIDTH 600 0
DWIDTH 12 0
BBX 4 5 4 -5
BITMAP
60
60
B0
30
E0
ENDCHAR
STARTCHAR uni0328
ENCODING 808
SWIDTH 600 0
DWIDTH 12 0
BBX 5 5 4 -5
BITMAP
60
C0
C0
F0
78
ENDCHAR
STARTCHAR uni0329
ENCODING 809
SWIDTH 600 0
DWIDTH 12 0
BBX 2 4 5 -5
BITMAP
C0
C0
C0
C0
ENDCHAR
STARTCHAR uni032A
ENCODING 810
SWIDTH 600 0
DWIDTH 12 0
BBX 6 3 3 -4
BITMAP
FC
FC
CC
ENDCHAR
STARTCHAR uni032C
ENCODING 812
SWIDTH 600 0
DWIDTH 12 0
BBX 8 4 2 -5
BITMAP
42
E7
7E
3C
ENDCHAR
STARTCHAR uni032E
ENCODING 814
SWIDTH 600 0
DWIDTH 12 0
BBX 6 3 3 -5
BITMAP
CC
FC
78
ENDCHAR
STARTCHAR uni032F
ENCODING 815
SWIDTH 600 0
DWIDTH 12 0
BBX 6 3 3 -4
BITMAP
78
FC
CC
ENDCHAR
STARTCHAR uni0330
ENCODING 816
SWIDTH 600 0
DWIDTH 12 0
BBX 8 3 2 -5
BITMAP
73
FF
CE
ENDCHAR
STARTCHAR uni0331
ENCODING 817
SWIDTH 600 0
DWIDTH 12 0
BBX 6 2 3 -4
BITMAP
FC
FC
ENDCHAR
STARTCHAR uni0334
ENCODING 820
SWIDTH 600 0
DWIDTH 12 0
BBX 10 3 1 3
BITMAP
78C0
7F80
C780
ENDCHAR
STARTCHAR uni0339
ENCODING 825
SWIDTH 600 0
DWIDTH 12 0
BBX 3 4 5 -5
BITMAP
C0
60
60
C0
ENDCHAR
STARTCHAR uni033A
ENCODING 826
SWIDTH 600 0
DWIDTH 12 0
BBX 6 3 3 -4
BITMAP
CC
FC
FC
ENDCHAR
STARTCHAR uni033B
ENCODING 827
SWIDTH 600 0
DWIDTH 12 0
BBX 6 4 3 -5
BITMAP
FC
CC
CC
FC
ENDCHAR
STARTCHAR uni033C
ENCODING 828
SWIDTH 600 0
DWIDTH 12 0
BBX 8 4 2 -5
BITMAP
66
FF
DB
DB
ENDCHAR
STARTCHAR uni033D
ENCODING 829
SWIDTH 600 0
DWIDTH 12 0
BBX 4 4 4 11
BITMAP
90
60
F0
90
ENDCHAR
STARTCHAR uni0342
ENCODING 834
SWIDTH 600 0
DWIDTH 12 0
BBX 8 3 2 11
BITMAP
73
FF
CE
ENDCHAR
STARTCHAR uni0345
ENCODING 837
SWIDTH 600 0
DWIDTH 12 0
BBX 3 3 5 -4
BITMAP
C0
E0
E0
ENDCHAR
STARTCHAR uni035F
ENCODING 863
SWIDTH 600 0
DWIDTH 12 0
BBX 20 2 -4 -4
BITMAP
FFFFF0
FFFFF0
ENDCHAR
STARTCHAR uni0361
ENCODING 865
SWIDTH 600 0
DWIDTH 12 0
BBX 18 4 -3 12
BITMAP
07F800
3FFF00
F807C0
C000C0
ENDCHAR
STARTCHAR uni0374
ENCODING 884
SWIDTH 600 0
DWIDTH 12 0
BBX 3 6 5 8
BITMAP
E0
E0
E0
C0
C0
C0
ENDCHAR
STARTCHAR uni0375
ENCODING 885
SWIDTH 600 0
DWIDTH 12 0
BBX 3 6 4 0
BITMAP
60
60
60
E0
E0
E0
ENDCHAR
STARTCHAR uni037A
ENCODING 890
SWIDTH 600 0
DWIDTH 12 0
BBX 3 3 5 -4
BITMAP
C0
E0
E0
ENDCHAR
STARTCHAR uni037E
ENCODING 894
SWIDTH 600 0
DWIDTH 12 0
BBX 5 16 4 -5
BITMAP
60
F0
F0
F0
60
00
00
70
F0
F8
78
30
30
F0
E0
80
ENDCHAR
STARTCHAR tonos
ENCODING 900
SWIDTH 600 0
DWIDTH 12 0
BBX 3 5 5 11
BITMAP
60
E0
E0
C0
C0
ENDCHAR
STARTCHAR dieresistonos
ENCODING 901
SWIDTH 600 0
DWIDTH 12 0
BBX 8 5 2 11
BITMAP
0C
18
DB
DB
10
ENDCHAR
STARTCHAR Alphatonos
ENCODING 902
SWIDTH 600 0
DWIDTH 12 0
BBX 12 14 0 0
BITMAP
6000
6700
6F80
EF80
ED80
DD80
DDC0
1DC0
19C0
3FE0
3FE0
38E0
38E0
7070
ENDCHAR
STARTCHAR anoteleia
ENCODING 903
SWIDTH 600 0
DWIDTH 12 0
BBX 4 5 4 6
BITMAP
60
F0
F0
F0
60
ENDCHAR
STARTCHAR Epsilontonos
ENCODING 904
SWIDTH 600 0
DWIDTH 12 0
BBX 11 14 0 0
BITMAP
6000
6FC0
6FC0
EE00
CE00
CE00
CE00
0FC0
0FC0
0E00
0E00
0E00
0FE0
0FE0
ENDCHAR
STARTCHAR Etatonos
ENCODING 905
SWIDTH 600 0
DWIDTH 12 0
BBX 11 14 0 0
BITMAP
6000
6EE0
6EE0
EEE0
CEE0
CEE0
CEE0
0FE0
0FE0
0EE0
0EE0
0EE0
0EE0
0EE0
ENDCHAR
STARTCHAR Iotatonos
ENCODING 906
SWIDTH 600 0
DWIDTH 12 0
BBX 11 14 0 0
BITMAP
6000
6FE0
6FE0
E380
C380
C380
C380
0380
0380
0380
0380
0380
0FE0
0FE0
ENDCHAR
STARTCHAR Omicrontonos
ENCODING 908
SWIDTH 600 0
DWIDTH 12 0
BBX 11 14 0 0
BITMAP
6000
6780
6FC0
ECE0
DCE0
DCE0
DCE0
1CE0
1CE0
1CE0
1CE0
0CE0
0FC0
0780
ENDCHAR
STARTCHAR Upsilontonos
ENCODING 910
SWIDTH 600 0
DWIDTH 12 0
BBX 12 14 0 0
BITMAP
7000
6E30
6630
6670
6760
C360
C3E0
03C0
01C0
01C0
01C0
01C0
01C0
01C0
ENDCHAR
STARTCHAR Omegatonos
ENCODING 911
SWIDTH 600 0
DWIDTH 12 0
BBX 11 14 0 0
BITMAP
6000
6780
6FC0
ECE0
DCE0
DCE0
DCE0
1CE0
1CE0
1CE0
0CC0
0CC0
1EE0
1EE0
ENDCHAR
STARTCHAR iotadieresistonos
ENCODING 912
SWIDTH 600 0
DWIDTH 12 0
BBX 10 16 1 0
BITMAP
0C00
0C00
6F00
6B80
0800
0000
FC00
FC00
1C00
1C00
1C00
1C00
1C00
1C00
0F80
07C0
ENDCHAR
STARTCHAR Alpha
ENCODING 913
SWIDTH 600 0
DWIDTH 12 0
BBX 12 13 0 0
BITMAP
0F00
0F00
1F80
1F80
1B80
1980
39C0
39C0
3FC0
7FE0
70E0
70E0
E070
ENDCHAR
STARTCHAR Beta
ENCODING 914
SWIDTH 600 0
DWIDTH 12 0
BBX 10 13 1 0
BITMAP
FF00
FF80
E3C0
E1C0
E380
FF00
FF80
E1C0
E1C0
E1C0
E1C0
FF80
FF00
ENDCHAR
STARTCHAR Gamma
ENCODING 915
SWIDTH 600 0
DWIDTH 12 0
BBX 9 13 2 0
BITMAP
FF80
FF80
E000
E000
E000
E000
E000
E000
E000
E000
E000
E000
E000
ENDCHAR
STARTCHAR uni0394
ENCODING 916
SWIDTH 600 0
DWIDTH 12 0
BBX 10 13 1 0
BITMAP
1E00
1E00
3F00
3F00
3700
7380
7380
7380
E3C0
E1C0
E1C0
FFC0
FFC0
ENDCHAR
STARTCHAR Epsilon
ENCODING 917
SWIDTH 600 0
DWIDTH 12 0
BBX 9 13 2 0
BITMAP
FF00
FF00
E000
E000
E000
E000
FF00
FF00
E000
E000
E000
FF80
FF80
ENDCHAR
STARTCHAR Zeta
ENCODING 918
SWIDTH 600 0
DWIDTH 12 0
BBX 10 13 1 0
BITMAP
7FC0
7FC0
0380
0700
0700
0E00
1E00
1C00
3800
3800
7000
FFC0
FFC0
ENDCHAR
STARTCHAR Eta
ENCODING 919
SWIDTH 600 0
DWIDTH 12 0
BBX 10 13 1 0
BITMAP
E1C0
E1C0
E1C0
E1C0
E1C0
E1C0
FFC0
FFC0
E1C0
E1C0
E1C0
E1C0
E1C0
ENDCHAR
STARTCHAR Theta
ENCODING 920
SWIDTH 600 0
DWIDTH 12 0
BBX 10 13 1 0
BITMAP
1E00
7F80
7380
E1C0
E1C0
E1C0
EDC0
EDC0
E1C0
E1C0
7380
7F80
1E00
ENDCHAR
STARTCHAR Iota
ENCODING 921
SWIDTH 600 0
DWIDTH 12 0
BBX 10 13 1 0
BITMAP
FFC0
FFC0
0C00
0C00
0C00
0C00
0C00
0C00
0C00
0C00
0C00
FFC0
FFC0
ENDCHAR
STARTCHAR Kappa
ENCODING 922
SWIDTH 600 0
DWIDTH 12 0
BBX 11 13 1 0
BITMAP
E1E0
E380
E780
E700
EE00
FE00
FE00
FF00
F700
E380
E3C0
E1C0
E1E0
ENDCHAR
STARTCHAR Lambda
ENCODING 923
SWIDTH 600 0
DWIDTH 12 0
BBX 12 13 0 0
BITMAP
0F00
0F00
1F80
1F80
1B80
1980
39C0
39C0
31C0
70E0
70E0
70E0
E0F0
ENDCHAR
STARTCHAR Mu
ENCODING 924
SWIDTH 600 0
DWIDTH 12 0
BBX 10 13 1 0
BITMAP
E1C0
F3C0
F3C0
F3C0
D2C0
DEC0
DFC0
EDC0
EDC0
EDC0
E1C0
E1C0
E1C0
ENDCHAR
STARTCHAR Nu
ENCODING 925
SWIDTH 600 0
DWIDTH 12 0
BBX 10 13 1 0
BITMAP
F1C0
F1C0
F1C0
F9C0
F9C0
EDC0
EDC0
EDC0
E7C0
E7C0
E3C0
E3C0
E3C0
ENDCHAR
STARTCHAR Xi
ENCODING 926
SWIDTH 600 0
DWIDTH 12 0
BBX 10 13 1 0
BITMAP
7F80
7F80
0000
0000
0000
0000
3F00
3F00
0000
0000
0000
FFC0
FFC0
ENDCHAR
STARTCHAR Omicron
ENCODING 927
SWIDTH 600 0
DWIDTH 12 0
BBX 10 13 1 0
BITMAP
1E00
7F80
7380
E1C0
E1C0
E1C0
E1C0
E1C0
E1C0
E1C0
7380
7F80
1E00
ENDCHAR
STARTCHAR Pi
ENCODING 928
SWIDTH 600 0
DWIDTH 12 0
BBX 10 13 1 0
BITMAP
FFC0
FFC0
E1C0
E1C0
E1C0
E1C0
E1C0
E1C0
E1C0
E1C0
E1C0
E1C0
E1C0
ENDCHAR
STARTCHAR Rho
ENCODING 929
SWIDTH 600 0
DWIDTH 12 0
BBX 10 13 1 0
BITMAP
FF00
FF80
E1C0
E1C0
E1C0
E1C0
E1C0
FF80
FF00
E000
E000
E000
E000
ENDCHAR
STARTCHAR Sigma
ENCODING 931
SWIDTH 600 0
DWIDTH 12 0
BBX 10 13 1 0
BITMAP
FF80
FF80
7000
3800
1C00
0E00
0E00
1C00
1C00
3800
7000
FFC0
FFC0
ENDCHAR
STARTCHAR Tau
ENCODING 932
SWIDTH 600 0
DWIDTH 12 0
BBX 10 13 1 0
BITMAP
FFC0
FFC0
0C00
0C00
0C00
0C00
0C00
0C00
0C00
0C00
0C00
0C00
0C00
ENDCHAR
STARTCHAR Upsilon
ENCODING 933
SWIDTH 600 0
DWIDTH 12 0
BBX 12 13 0 0
BITMAP
F0F0
70E0
38C0
39C0
1980
1F80
1F80
0F00
0F00
0600
0600
0600
0600
ENDCHAR
STARTCHAR Phi
ENCODING 934
SWIDTH 600 0
DWIDTH 12 0
BBX 12 13 0 0
BITMAP
0600
0600
3FC0
7FE0
6660
E670
E670
E670
76E0
7FE0
3FC0
0600
0600
ENDCHAR
STARTCHAR Chi
ENCODING 935
SWIDTH 600 0
DWIDTH 12 0
BBX 12 13 0 0
BITMAP
70E0
78E0
39C0
1D80
1F80
0F00
0F00
1F00
1F80
39C0
39C0
70E0
F0F0
ENDCHAR
STARTCHAR Psi
ENCODING 936
SWIDTH 600 0
DWIDTH 12 0
BBX 12 13 0 0
BITMAP
E670
E670
E670
E670
E670
76E0
7FE0
1F80
0600
0600
0600
0600
0600
ENDCHAR
STARTCHAR uni03A9
ENCODING 937
SWIDTH 600 0
DWIDTH 12 0
BBX 10 13 1 0
BITMAP
1E00
7F80
7380
E1C0
E1C0
E1C0
E1C0
E1C0
E1C0
6180
7380
F3C0
F3C0
ENDCHAR
STARTCHAR Iotadieresis
ENCODING 938
SWIDTH 600 0
DWIDTH 12 0
BBX 10 17 1 0
BITMAP
3300
7380
3300
0000
FFC0
FFC0
0C00
0C00
0C00
0C00
0C00
0C00
0C00
0C00
0C00
FFC0
FFC0
ENDCHAR
STARTCHAR Upsilondieresis
ENCODING 939
SWIDTH 600 0
DWIDTH 12 0
BBX 12 17 0 0
BITMAP
1980
39C0
1980
0000
F0F0
70E0
38C0
39C0
1980
1F80
1F80
0F00
0F00
0600
0600
0600
0600
ENDCHAR
STARTCHAR alphatonos
ENCODING 940
SWIDTH 600 0
DWIDTH 12 0
BBX 11 16 1 0
BITMAP
0700
0700
0600
0600
0600
0800
3DC0
7FC0
F3C0
E380
E380
E380
E380
E380
7DE0
39E0
ENDCHAR
STARTCHAR epsilontonos
ENCODING 941
SWIDTH 600 0
DWIDTH 12 0
BBX 10 16 1 0
BITMAP
0700
0700
0600
0600
0600
0000
1F80
7FC0
7080
7000
3E00
7E00
E000
F080
7FC0
3F80
ENDCHAR
STARTCHAR etatonos
ENCODING 942
SWIDTH 600 0
DWIDTH 12 0
BBX 10 20 1 -4
BITMAP
0700
0700
0600
0600
0C00
0000
E700
EF80
F180
71C0
61C0
61C0
61C0
61C0
61C0
61C0
01C0
01C0
01C0
01C0
ENDCHAR
STARTCHAR iotatonos
ENCODING 943
SWIDTH 600 0
DWIDTH 12 0
BBX 10 16 1 0
BITMAP
0E00
0E00
0C00
0C00
0C00
1000
FC00
FC00
1C00
1C00
1C00
1C00
1C00
1C00
0F80
07C0
ENDCHAR
STARTCHAR upsilondieresistonos
ENCODING 944
SWIDTH 600 0
DWIDTH 12 0
BBX 10 16 1 0
BITMAP
0E00
0C00
6D80
6F80
0800
0000
E180
E380
E1C0
E1C0
E1C0
E1C0
E1C0
7380
7F80
3E00
ENDCHAR
STARTCHAR alpha
ENCODING 945
SWIDTH 600 0
DWIDTH 12 0
BBX 11 10 1 0
BITMAP
3DC0
7FC0
F3C0
E380
E380
E380
E380
E380
7DE0
39E0
ENDCHAR
STARTCHAR beta
ENCODING 946
SWIDTH 600 0
DWIDTH 12 0
BBX 10 18 1 -4
BITMAP
1E00
7F00
7380
6380
E380
E380
EE00
E780
E1C0
E1C0
E1C0
F1C0
FF80
EF00
E000
E000
E000
E000
ENDCHAR
STARTCHAR gamma
ENCODING 947
SWIDTH 600 0
DWIDTH 12 0
BBX 11 15 0 -4
BITMAP
1000
F0E0
78E0
38E0
38C0
1DC0
1D80
0F80
0F00
0E00
0E00
0E00
0E00
0E00
0E00
ENDCHAR
STARTCHAR delta
ENCODING 948
SWIDTH 600 0
DWIDTH 12 0
BBX 10 14 1 0
BITMAP
3F80
7FC0
7080
7800
3C00
1F00
3F80
73C0
E1C0
E1C0
E1C0
F3C0
7F80
1E00
ENDCHAR
STARTCHAR epsilon
ENCODING 949
SWIDTH 600 0
DWIDTH 12 0
BBX 10 10 1 0
BITMAP
1F80
7FC0
7080
7000
3E00
7E00
E000
F080
7FC0
3F80
ENDCHAR
STARTCHAR zeta
ENCODING 950
SWIDTH 600 0
DWIDTH 12 0
BBX 9 18 2 -4
BITMAP
FF80
FF80
0700
1C00
3800
7000
7000
E000
E000
E000
E000
F000
7E00
3F00
0380
0380
0300
0700
ENDCHAR
STARTCHAR eta
ENCODING 951
SWIDTH 600 0
DWIDTH 12 0
BBX 10 14 1 -4
BITMAP
E700
EF80
F180
71C0
61C0
61C0
61C0
61C0
61C0
61C0
01C0
01C0
01C0
01C0
ENDCHAR
STARTCHAR theta
ENCODING 952
SWIDTH 600 0
DWIDTH 12 0
BBX 10 14 1 0
BITMAP
1E00
3F00
7380
6180
E1C0
E1C0
FFC0
FFC0
E1C0
E1C0
6180
7380
3F00
1E00
ENDCHAR
STARTCHAR iota
ENCODING 953
SWIDTH 600 0
DWIDTH 12 0
BBX 10 10 1 0
BITMAP
FC00
FC00
1C00
1C00
1C00
1C00
1C00
1C00
0F80
07C0
ENDCHAR
STARTCHAR kappa
ENCODING 954
SWIDTH 600 0
DWIDTH 12 0
BBX 11 10 1 0
BITMAP
E0C0
73C0
7780
7E00
7E00
7E00
7700
7380
6380
61E0
ENDCHAR
STARTCHAR lambda
ENCODING 955
SWIDTH 600 0
DWIDTH 12 0
BBX 11 14 1 0
BITMAP
F800
FC00
1C00
0E00
0E00
1E00
1F00
1F00
3B80
3B80
7380
71C0
E1C0
E1E0
ENDCHAR
STARTCHAR uni03BC
ENCODING 956
SWIDTH 600 0
DWIDTH 12 0
BBX 11 14 1 -4
BITMAP
E180
E180
E180
E180
E180
E180
E380
F380
FFC0
FDE0
E000
E000
E000
E000
ENDCHAR
STARTCHAR nu
ENCODING 957
SWIDTH 600 0
DWIDTH 12 0
BBX 11 11 0 0
BITMAP
1000
F0E0
78E0
38E0
38C0
1DC0
1DC0
0D80
0F80
0F00
0F00
ENDCHAR
STARTCHAR xi
ENCODING 958
SWIDTH 600 0
DWIDTH 12 0
BBX 10 18 1 -4
BITMAP
FFC0
FFC0
3800
3800
3800
3800
1F00
3F00
7800
7000
7000
7800
7F00
1FC0
01C0
01C0
0180
0380
ENDCHAR
STARTCHAR omicron
ENCODING 959
SWIDTH 600 0
DWIDTH 12 0
BBX 10 10 1 0
BITMAP
1E00
7F80
7380
E1C0
E1C0
E1C0
E1C0
7380
7F80
1E00
ENDCHAR
STARTCHAR pi
ENCODING 960
SWIDTH 600 0
DWIDTH 12 0
BBX 12 10 0 0
BITMAP
FFF0
FFF0
39C0
39C0
39C0
39C0
39C0
39C0
38E0
38F0
ENDCHAR
STARTCHAR rho
ENCODING 961
SWIDTH 600 0
DWIDTH 12 0
BBX 10 14 1 -4
BITMAP
1F00
3F80
73C0
61C0
E1C0
E1C0
E1C0
F3C0
FF80
EF00
E000
E000
E000
E000
ENDCHAR
STARTCHAR uni03C2
ENCODING 962
SWIDTH 600 0
DWIDTH 12 0
BBX 10 14 1 -4
BITMAP
0F80
3FC0
7880
7000
E000
E000
7000
7800
3F00
1F80
0380
0180
0380
0180
ENDCHAR
STARTCHAR sigma
ENCODING 963
SWIDTH 600 0
DWIDTH 12 0
BBX 11 10 1 0
BITMAP
1FE0
7FE0
F300
E380
E380
E380
E380
F380
7F00
3E00
ENDCHAR
STARTCHAR tau
ENCODING 964
SWIDTH 600 0
DWIDTH 12 0
BBX 10 10 1 0
BITMAP
FFC0
FFC0
0C00
0C00
0C00
0C00
0C00
0C00
0F80
0780
ENDCHAR
STARTCHAR upsilon
ENCODING 965
SWIDTH 600 0
DWIDTH 12 0
BBX 10 10 1 0
BITMAP
E180
E380
E1C0
E1C0
E1C0
E1C0
E1C0
7380
7F80
3E00
ENDCHAR
STARTCHAR phi
ENCODING 966
SWIDTH 600 0
DWIDTH 12 0
BBX 12 17 0 -4
BITMAP
0600
0600
0600
1F80
3FC0
76E0
6660
6660
E670
6660
76E0
3FC0
1F80
0600
0600
0600
0600
ENDCHAR
STARTCHAR chi
ENCODING 967
SWIDTH 600 0
DWIDTH 12 0
BBX 11 14 1 -4
BITMAP
E1C0
7380
7380
3F00
3F00
1E00
0E00
1E00
1F00
3F00
3B80
7380
71C0
E1E0
ENDCHAR
STARTCHAR psi
ENCODING 968
SWIDTH 600 0
DWIDTH 12 0
BBX 12 17 0 -4
BITMAP
0600
0600
0600
E660
66E0
6660
6670
6670
6670
6660
76E0
7FE0
1F80
0600
0600
0600
0600
ENDCHAR
STARTCHAR omega
ENCODING 969
SWIDTH 600 0
DWIDTH 12 0
BBX 12 10 0 0
BITMAP
2040
79E0
70E0
6060
E670
E670
6660
66E0
7FE0
39C0
ENDCHAR
STARTCHAR iotadieresis
ENCODING 970
SWIDTH 600 0
DWIDTH 12 0
BBX 10 15 1 0
BITMAP
7300
7700
7300
0000
0000
FC00
FC00
1C00
1C00
1C00
1C00
1C00
1C00
0F80
07C0
ENDCHAR
STARTCHAR upsilondieresis
ENCODING 971
SWIDTH 600 0
DWIDTH 12 0
BBX 10 15 1 0
BITMAP
7300
7780
7300
0000
0000
E180
E380
E1C0
E1C0
E1C0
E1C0
E1C0
7380
7F80
3E00
ENDCHAR
STARTCHAR omicrontonos
ENCODING 972
SWIDTH 600 0
DWIDTH 12 0
BBX 10 16 1 0
BITMAP
0600
0E00
0E00
0C00
0C00
0000
1E00
7F80
7380
E1C0
E1C0
E1C0
E1C0
7380
7F80
1E00
ENDCHAR
STARTCHAR upsilontonos
ENCODING 973
SWIDTH 600 0
DWIDTH 12 0
BBX 10 16 1 0
BITMAP
0E00
0E00
0E00
0C00
0C00
0000
E180
E380
E1C0
E1C0
E1C0
E1C0
E1C0
7380
7F80
3E00
ENDCHAR
STARTCHAR omegatonos
ENCODING 974
SWIDTH 600 0
DWIDTH 12 0
BBX 12 16 0 0
BITMAP
0300
0700
0700
0600
0600
0000
2040
79E0
70E0
6060
E670
E670
6660
66E0
7FE0
39C0
ENDCHAR
STARTCHAR uni03D0
ENCODING 976
SWIDTH 600 0
DWIDTH 12 0
BBX 10 14 1 0
BITMAP
1E00
7F00
7380
6380
E380
E380
FE00
FF80
E1C0
E1C0
61C0
71C0
3F80
1F00
ENDCHAR
STARTCHAR uni03D1
ENCODING 977
SWIDTH 600 0
DWIDTH 12 0
BBX 10 14 1 0
BITMAP
3E00
7F00
E380
E180
E1C0
F1C0
7FC0
3FC0
01C0
E1C0
6180
7380
7F00
3E00
ENDCHAR
STARTCHAR uni03D5
ENCODING 981
SWIDTH 600 0
DWIDTH 12 0
BBX 12 17 0 -4
BITMAP
0600
0600
0600
1F80
3FC0
76E0
6660
6660
E670
6660
76E0
3FC0
1F80
0600
0600
0600
0600
ENDCHAR
STARTCHAR uni03D7
ENCODING 983
SWIDTH 600 0
DWIDTH 12 0
BBX 11 14 1 -4
BITMAP
E0C0
73C0
7780
7E00
7E00
7E00
7700
7380
63C0
61C0
01E0
03C0
0380
0700
ENDCHAR
STARTCHAR uni03D9
ENCODING 985
SWIDTH 600 0
DWIDTH 12 0
BBX 10 14 1 -4
BITMAP
1E00
7F80
7380
E1C0
E1C0
E1C0
E1C0
F3C0
7F80
3F00
0C00
0E00
0E00
0E00
ENDCHAR
STARTCHAR uni03DB
ENCODING 987
SWIDTH 600 0
DWIDTH 12 0
BBX 10 14 1 -4
BITMAP
1FC0
3FC0
7800
7000
7000
F000
7000
7800
3F00
0F80
0380
0180
0380
0180
ENDCHAR
STARTCHAR uni03DD
ENCODING 989
SWIDTH 600 0
DWIDTH 12 0
BBX 9 14 2 -4
BITMAP
FF80
FF80
E000
E000
E000
FF00
FF00
FF00
E000
E000
E000
E000
E000
E000
ENDCHAR
STARTCHAR uni03E1
ENCODING 993
SWIDTH 600 0
DWIDTH 12 0
BBX 10 18 1 -4
BITMAP
1000
3800
7C00
1E00
0F00
0700
1F80
7F80
FB80
61C0
07C0
1FC0
3FC0
39C0
01C0
01C0
01C0
0040
ENDCHAR
STARTCHAR uni0400
ENCODING 1024
SWIDTH 600 0
DWIDTH 12 0
BBX 9 18 2 0
BITMAP
1000
3800
1C00
0E00
0000
FF00
FF00
E000
E000
E000
E000
FF00
FF00
E000
E000
E000
FF80
FF80
ENDCHAR
STARTCHAR uni0401
ENCODING 1025
SWIDTH 600 0
DWIDTH 12 0
BBX 9 17 2 0
BITMAP
6300
7700
6300
0000
FF00
FF00
E000
E000
E000
E000
FF00
FF00
E000
E000
E000
FF80
FF80
ENDCHAR
STARTCHAR uni0402
ENCODING 1026
SWIDTH 600 0
DWIDTH 12 0
BBX 11 13 0 0
BITMAP
FF80
FF80
1C00
1C00
1C00
1FC0
1FE0
1CE0
1C60
1C60
1CE0
1DE0
1DC0
ENDCHAR
STARTCHAR uni0403
ENCODING 1027
SWIDTH 600 0
DWIDTH 12 0
BBX 9 18 2 0
BITMAP
0400
1E00
3C00
1000
0000
FF80
FF80
E000
E000
E000
E000
E000
E000
E000
E000
E000
E000
E000
ENDCHAR
STARTCHAR uni0404
ENCODING 1028
SWIDTH 600 0
DWIDTH 12 0
BBX 10 13 1 0
BITMAP
0F80
3FC0
7880
7000
E000
FF00
FF00
E000
E000
7000
7880
3FC0
1F80
ENDCHAR
STARTCHAR uni0405
ENCODING 1029
SWIDTH 600 0
DWIDTH 12 0
BBX 10 13 1 0
BITMAP
1F00
7FC0
7180
7000
7000
7E00
3F80
0FC0
03C0
01C0
61C0
FF80
3F00
ENDCHAR
STARTCHAR uni0406
ENCODING 1030
SWIDTH 600 0
DWIDTH 12 0
BBX 10 13 1 0
BITMAP
FFC0
FFC0
0C00
0C00
0C00
0C00
0C00
0C00
0C00
0C00
0C00
FFC0
FFC0
ENDCHAR
STARTCHAR uni0407
ENCODING 1031
SWIDTH 600 0
DWIDTH 12 0
BBX 10 17 1 0
BITMAP
3300
7380
3300
0000
FFC0
FFC0
0C00
0C00
0C00
0C00
0C00
0C00
0C00
0C00
0C00
FFC0
FFC0
ENDCHAR
STARTCHAR uni0408
ENCODING 1032
SWIDTH 600 0
DWIDTH 12 0
BBX 9 13 1 0
BITMAP
7F80
7F80
0380
0380
0380
0380
0380
0380
0380
0380
6380
FF00
3E00
ENDCHAR
STARTCHAR uni0409
ENCODING 1033
SWIDTH 600 0
DWIDTH 12 0
BBX 12 13 0 0
BITMAP
3F00
3F00
3700
3700
3700
37C0
37E0
7760
7770
7770
6760
E7E0
C7C0
ENDCHAR
STARTCHAR uni040A
ENCODING 1034
SWIDTH 600 0
DWIDTH 12 0
BBX 11 13 1 0
BITMAP
CE00
CE00
CE00
CE00
CE00
FF80
FFC0
CEC0
CEE0
CEE0
CEC0
CFC0
CF80
ENDCHAR
STARTCHAR uni040B
ENCODING 1035
SWIDTH 600 0
DWIDTH 12 0
BBX 11 13 0 0
BITMAP
FF80
FF80
1C00
1C00
1C00
1FC0
1FE0
1CE0
1CE0
1CE0
1CE0
1CE0
1CE0
ENDCHAR
STARTCHAR uni040C
ENCODING 1036
SWIDTH 600 0
DWIDTH 12 0
BBX 11 18 1 0
BITMAP
0200
0700
0E00
1C00
0000
E0E0
E1C0
E380
E300
E700
E600
FE00
FE00
E700
E780
E380
E1C0
E1E0
ENDCHAR
STARTCHAR uni040D
ENCODING 1037
SWIDTH 600 0
DWIDTH 12 0
BBX 10 18 1 0
BITMAP
1000
3C00
1E00
0400
0000
E3C0
E3C0
E3C0
E7C0
E7C0
EFC0
EDC0
FDC0
F9C0
F9C0
F1C0
F1C0
F1C0
ENDCHAR
STARTCHAR uni040E
ENCODING 1038
SWIDTH 600 0
DWIDTH 12 0
BBX 12 16 0 0
BITMAP
19C0
0F80
0000
F070
70E0
38E0
39C0
19C0
1D80
1F80
0F80
0F00
0700
0E00
3E00
3C00
ENDCHAR
STARTCHAR uni040F
ENCODING 1039
SWIDTH 600 0
DWIDTH 12 0
BBX 10 17 1 -4
BITMAP
E1C0
E1C0
E1C0
E1C0
E1C0
E1C0
E1C0
E1C0
E1C0
E1C0
E1C0
FFC0
FFC0
0C00
0C00
0C00
0C00
ENDCHAR
STARTCHAR uni0410
ENCODING 1040
SWIDTH 600 0
DWIDTH 12 0
BBX 12 13 0 0
BITMAP
0F00
0F00
1F80
1F80
1B80
1980
39C0
39C0
3FC0
7FE0
70E0
70E0
E070
ENDCHAR
STARTCHAR uni0411
ENCODING 1041
SWIDTH 600 0
DWIDTH 12 0
BBX 10 13 1 0
BITMAP
FF80
FF80
E000
E000
E000
FF00
FF80
E1C0
E1C0
E1C0
E1C0
FF80
FF00
ENDCHAR
STARTCHAR uni0412
ENCODING 1042
SWIDTH 600 0
DWIDTH 12 0
BBX 10 13 1 0
BITMAP
FF00
FF80
E3C0
E1C0
E380
FF00
FF80
E1C0
E1C0
E1C0
E1C0
FF80
FF00
ENDCHAR
STARTCHAR uni0413
ENCODING 1043
SWIDTH 600 0
DWIDTH 12 0
BBX 9 13 2 0
BITMAP
FF80
FF80
E000
E000
E000
E000
E000
E000
E000
E000
E000
E000
E000
ENDCHAR
STARTCHAR uni0414
ENCODING 1044
SWIDTH 600 0
DWIDTH 12 0
BBX 12 17 0 -4
BITMAP
1FC0
1FC0
19C0
19C0
19C0
39C0
39C0
39C0
39C0
31C0
71C0
FFF0
FFF0
E070
E070
E070
E070
ENDCHAR
STARTCHAR uni0415
ENCODING 1045
SWIDTH 600 0
DWIDTH 12 0
BBX 9 13 2 0
BITMAP
FF00
FF00
E000
E000
E000
E000
FF00
FF00
E000
E000
E000
FF80
FF80
ENDCHAR
STARTCHAR uni0416
ENCODING 1046
SWIDTH 600 0
DWIDTH 12 0
BBX 12 13 0 0
BITMAP
E670
E670
36C0
36C0
36C0
36C0
3FC0
3FC0
36C0
76E0
6660
6660
E670
ENDCHAR
STARTCHAR uni0417
ENCODING 1047
SWIDTH 600 0
DWIDTH 12 0
BBX 10 13 1 0
BITMAP
3F00
FF80
6380
01C0
0380
1F00
1F80
01C0
01C0
01C0
61C0
FF80
3F00
ENDCHAR
STARTCHAR uni0418
ENCODING 1048
SWIDTH 600 0
DWIDTH 12 0
BBX 10 13 1 0
BITMAP
E3C0
E3C0
E3C0
E7C0
E7C0
EFC0
EDC0
FDC0
F9C0
F9C0
F1C0
F1C0
F1C0
ENDCHAR
STARTCHAR uni0419
ENCODING 1049
SWIDTH 600 0
DWIDTH 12 0
BBX 10 16 1 0
BITMAP
3380
3F00
0000
E3C0
E3C0
E3C0
E7C0
E7C0
EFC0
EDC0
FDC0
F9C0
F9C0
F1C0
F1C0
F1C0
ENDCHAR
STARTCHAR uni041A
ENCODING 1050
SWIDTH 600 0
DWIDTH 12 0
BBX 11 13 1 0
BITMAP
E0E0
E1C0
E380
E300
E700
E600
FE00
FE00
E700
E780
E380
E1C0
E1E0
ENDCHAR
STARTCHAR uni041B
ENCODING 1051
SWIDTH 600 0
DWIDTH 12 0
BBX 11 13 0 0
BITMAP
0FE0
0FE0
1CE0
1CE0
1CE0
18E0
18E0
38E0
38E0
38E0
30E0
F0E0
E0E0
ENDCHAR
STARTCHAR uni041C
ENCODING 1052
SWIDTH 600 0
DWIDTH 12 0
BBX 10 13 1 0
BITMAP
E1C0
F3C0
F3C0
F3C0
D2C0
DEC0
DFC0
EDC0
EDC0
EDC0
E1C0
E1C0
E1C0
ENDCHAR
STARTCHAR uni041D
ENCODING 1053
SWIDTH 600 0
DWIDTH 12 0
BBX 10 13 1 0
BITMAP
E1C0
E1C0
E1C0
E1C0
E1C0
E1C0
FFC0
FFC0
E1C0
E1C0
E1C0
E1C0
E1C0
ENDCHAR
STARTCHAR uni041E
ENCODING 1054
SWIDTH 600 0
DWIDTH 12 0
BBX 10 13 1 0
BITMAP
1E00
7F80
7380
E1C0
E1C0
E1C0
E1C0
E1C0
E1C0
E1C0
7380
7F80
1E00
ENDCHAR
STARTCHAR uni041F
ENCODING 1055
SWIDTH 600 0
DWIDTH 12 0
BBX 10 13 1 0
BITMAP
FFC0
FFC0
E1C0
E1C0
E1C0
E1C0
E1C0
E1C0
E1C0
E1C0
E1C0
E1C0
E1C0
ENDCHAR
STARTCHAR uni0420
ENCODING 1056
SWIDTH 600 0
DWIDTH 12 0
BBX 10 13 1 0
BITMAP
FF00
FF80
E1C0
E1C0
E1C0
E1C0
E1C0
FF80
FF00
E000
E000
E000
E000
ENDCHAR
STARTCHAR uni0421
ENCODING 1057
SWIDTH 600 0
DWIDTH 12 0
BBX 10 13 1 0
BITMAP
0F80
3FC0
7880
7000
E000
E000
E000
E000
E000
7000
7880
3FC0
0F80
ENDCHAR
STARTCHAR uni0422
ENCODING 1058
SWIDTH 600 0
DWIDTH 12 0
BBX 10 13 1 0
BITMAP
FFC0
FFC0
0C00
0C00
0C00
0C00
0C00
0C00
0C00
0C00
0C00
0C00
0C00
ENDCHAR
STARTCHAR uni0423
ENCODING 1059
SWIDTH 600 0
DWIDTH 12 0
BBX 12 13 0 0
BITMAP
F070
70E0
38E0
39C0
19C0
1D80
1F80
0F80
0F00
0700
0E00
3E00
3C00
ENDCHAR
STARTCHAR uni0424
ENCODING 1060
SWIDTH 600 0
DWIDTH 12 0
BBX 12 13 0 0
BITMAP
0600
0600
1F80
7FE0
76E0
E670
E670
E670
76E0
7FE0
1F80
0600
0600
ENDCHAR
STARTCHAR uni0425
ENCODING 1061
SWIDTH 600 0
DWIDTH 12 0
BBX 12 13 0 0
BITMAP
70E0
78E0
39C0
1D80
1F80
0F00
0F00
1F00
1F80
39C0
39C0
70E0
F0F0
ENDCHAR
STARTCHAR uni0426
ENCODING 1062
SWIDTH 600 0
DWIDTH 12 0
BBX 11 17 1 -4
BITMAP
E1C0
E1C0
E1C0
E1C0
E1C0
E1C0
E1C0
E1C0
E1C0
E1C0
E1C0
FFE0
FFE0
00E0
00E0
00E0
00E0
ENDCHAR
STARTCHAR uni0427
ENCODING 1063
SWIDTH 600 0
DWIDTH 12 0
BBX 10 13 1 0
BITMAP
E1C0
E1C0
E1C0
E1C0
E1C0
E1C0
7FC0
3FC0
01C0
01C0
01C0
01C0
01C0
ENDCHAR
STARTCHAR uni0428
ENCODING 1064
SWIDTH 600 0
DWIDTH 12 0
BBX 10 13 1 0
BITMAP
CCC0
CCC0
CCC0
CCC0
CCC0
CCC0
CCC0
CCC0
CCC0
CCC0
CCC0
FFC0
FFC0
ENDCHAR
STARTCHAR uni0429
ENCODING 1065
SWIDTH 600 0
DWIDTH 12 0
BBX 11 17 1 -4
BITMAP
CDC0
CDC0
CDC0
CDC0
CDC0
CDC0
CDC0
CDC0
CDC0
CDC0
CDC0
FFE0
FFE0
0060
0060
0060
0060
ENDCHAR
STARTCHAR uni042A
ENCODING 1066
SWIDTH 600 0
DWIDTH 12 0
BBX 10 13 1 0
BITMAP
F800
F800
3800
3800
3800
3F00
3FC0
39C0
38C0
38C0
39C0
3FC0
3F00
ENDCHAR
STARTCHAR uni042B
ENCODING 1067
SWIDTH 600 0
DWIDTH 12 0
BBX 10 13 1 0
BITMAP
C0C0
C0C0
C0C0
C0C0
C0C0
F8C0
FCC0
CCC0
CEC0
CEC0
CCC0
FCC0
F8C0
ENDCHAR
STARTCHAR uni042C
ENCODING 1068
SWIDTH 600 0
DWIDTH 12 0
BBX 10 13 1 0
BITMAP
E000
E000
E000
E000
E000
FF00
FF80
E1C0
E1C0
E1C0
E1C0
FF80
FF00
ENDCHAR
STARTCHAR uni042D
ENCODING 1069
SWIDTH 600 0
DWIDTH 12 0
BBX 10 13 1 0
BITMAP
7E00
FF00
4380
0380
01C0
3FC0
3FC0
01C0
01C0
0380
4380
FF00
7E00
ENDCHAR
STARTCHAR uni042E
ENCODING 1070
SWIDTH 600 0
DWIDTH 12 0
BBX 11 13 1 0
BITMAP
C780
CFC0
CDC0
CCC0
DCC0
DCE0
FCE0
FCE0
DCC0
DCC0
CDC0
CFC0
C780
ENDCHAR
STARTCHAR uni042F
ENCODING 1071
SWIDTH 600 0
DWIDTH 12 0
BBX 11 13 0 0
BITMAP
1FE0
3FE0
70E0
70E0
70E0
70E0
3FE0
1FE0
1CE0
38E0
38E0
70E0
F0E0
ENDCHAR
STARTCHAR uni0430
ENCODING 1072
SWIDTH 600 0
DWIDTH 12 0
BBX 10 10 1 0
BITMAP
3F00
7F80
6380
01C0
1FC0
7FC0
F1C0
E3C0
7FC0
7DC0
ENDCHAR
STARTCHAR uni0431
ENCODING 1073
SWIDTH 600 0
DWIDTH 12 0
BBX 10 14 1 0
BITMAP
0180
1F80
3F00
7000
6000
EF00
FF80
F3C0
E1C0
E1C0
61C0
7380
3F80
1E00
ENDCHAR
STARTCHAR uni0432
ENCODING 1074
SWIDTH 600 0
DWIDTH 12 0
BBX 9 10 2 0
BITMAP
FE00
FF00
E380
E300
FF00
FF00
E380
E380
FF80
FE00
ENDCHAR
STARTCHAR uni0433
ENCODING 1075
SWIDTH 600 0
DWIDTH 12 0
BBX 9 10 2 0
BITMAP
FF80
FF80
E000
E000
E000
E000
E000
E000
E000
E000
ENDCHAR
STARTCHAR uni0434
ENCODING 1076
SWIDTH 600 0
DWIDTH 12 0
BBX 12 14 0 -4
BITMAP
1FC0
3FC0
39C0
39C0
39C0
39C0
31C0
71C0
FFF0
FFF0
E070
E070
6060
6060
ENDCHAR
STARTCHAR uni0435
ENCODING 1077
SWIDTH 600 0
DWIDTH 12 0
BBX 10 10 1 0
BITMAP
1F00
7F80
71C0
E1C0
FFC0
FFC0
E000
7080
7F80
1F40
ENDCHAR
STARTCHAR uni0436
ENCODING 1078
SWIDTH 600 0
DWIDTH 12 0
BBX 12 10 0 0
BITMAP
E670
E670
36C0
36C0
3FC0
3FC0
36C0
76E0
6660
E670
ENDCHAR
STARTCHAR uni0437
ENCODING 1079
SWIDTH 600 0
DWIDTH 12 0
BBX 10 10 1 0
BITMAP
7F00
FF80
4380
0380
1F00
1F80
01C0
41C0
FF80
3F00
ENDCHAR
STARTCHAR uni0438
ENCODING 1080
SWIDTH 600 0
DWIDTH 12 0
BBX 10 10 1 0
BITMAP
E1C0
E3C0
E7C0
E7C0
EDC0
EDC0
F9C0
F9C0
F1C0
E1C0
ENDCHAR
STARTCHAR uni0439
ENCODING 1081
SWIDTH 600 0
DWIDTH 12 0
BBX 10 15 1 0
BITMAP
3380
3380
3F00
1E00
0000
E1C0
E3C0
E7C0
E7C0
EDC0
EDC0
F9C0
F9C0
F1C0
E1C0
ENDCHAR
STARTCHAR uni043A
ENCODING 1082
SWIDTH 600 0
DWIDTH 12 0
BBX 10 10 2 0
BITMAP
C380
C780
C600
CE00
FC00
FE00
CE00
C700
C380
C3C0
ENDCHAR
STARTCHAR uni043B
ENCODING 1083
SWIDTH 600 0
DWIDTH 12 0
BBX 11 10 0 0
BITMAP
1FE0
1FE0
18E0
18E0
18E0
38E0
38E0
38E0
70E0
E0E0
ENDCHAR
STARTCHAR uni043C
ENCODING 1084
SWIDTH 600 0
DWIDTH 12 0
BBX 10 10 1 0
BITMAP
E1C0
F3C0
F3C0
F3C0
DEC0
DEC0
DEC0
CCC0
CCC0
C0C0
ENDCHAR
STARTCHAR uni043D
ENCODING 1085
SWIDTH 600 0
DWIDTH 12 0
BBX 10 10 1 0
BITMAP
E1C0
E1C0
E1C0
E1C0
FFC0
FFC0
E1C0
E1C0
E1C0
E1C0
ENDCHAR
STARTCHAR uni043E
ENCODING 1086
SWIDTH 600 0
DWIDTH 12 0
BBX 10 10 1 0
BITMAP
1E00
7F80
7380
E1C0
E1C0
E1C0
E1C0
7380
7F80
1E00
ENDCHAR
STARTCHAR uni043F
ENCODING 1087
SWIDTH 600 0
DWIDTH 12 0
BBX 10 10 1 0
BITMAP
FFC0
FFC0
E1C0
E1C0
E1C0
E1C0
E1C0
E1C0
E1C0
E1C0
ENDCHAR
STARTCHAR uni0440
ENCODING 1088
SWIDTH 600 0
DWIDTH 12 0
BBX 10 14 1 -4
BITMAP
EF00
FF80
F3C0
E1C0
E1C0
E1C0
E1C0
F3C0
FF80
EF00
E000
E000
E000
E000
ENDCHAR
STARTCHAR uni0441
ENCODING 1089
SWIDTH 600 0
DWIDTH 12 0
BBX 10 10 1 0
BITMAP
1F80
3FC0
7880
7000
E000
E000
7000
7080
3FC0
1F80
ENDCHAR
STARTCHAR uni0442
ENCODING 1090
SWIDTH 600 0
DWIDTH 12 0
BBX 10 10 1 0
BITMAP
FFC0
FFC0
0C00
0C00
0C00
0C00
0C00
0C00
0C00
0C00
ENDCHAR
STARTCHAR uni0443
ENCODING 1091
SWIDTH 600 0
DWIDTH 12 0
BBX 10 14 1 -4
BITMAP
E1C0
E1C0
7180
7380
3380
3B00
1B00
1F00
0E00
0E00
0C00
1C00
7800
F000
ENDCHAR
STARTCHAR uni0444
ENCODING 1092
SWIDTH 600 0
DWIDTH 12 0
BBX 12 18 0 -4
BITMAP
0600
0600
0600
0600
3FC0
7FE0
6660
6660
E670
E670
6660
6660
7FE0
3FC0
0600
0600
0600
0600
ENDCHAR
STARTCHAR uni0445
ENCODING 1093
SWIDTH 600 0
DWIDTH 12 0
BBX 10 10 1 0
BITMAP
E1C0
7380
3B00
3F00
1E00
1E00
3F00
7700
7380
E1C0
ENDCHAR
STARTCHAR uni0446
ENCODING 1094
SWIDTH 600 0
DWIDTH 12 0
BBX 11 14 1 -4
BITMAP
E380
E380
E380
E380
E380
E380
E380
E380
FFE0
FFE0
00E0
00E0
00E0
00C0
ENDCHAR
STARTCHAR uni0447
ENCODING 1095
SWIDTH 600 0
DWIDTH 12 0
BBX 9 10 1 0
BITMAP
E380
E380
E380
E380
7380
7F80
3F80
0380
0380
0380
ENDCHAR
STARTCHAR uni0448
ENCODING 1096
SWIDTH 600 0
DWIDTH 12 0
BBX 10 10 1 0
BITMAP
CCC0
CCC0
CCC0
CCC0
CCC0
CCC0
CCC0
CCC0
FFC0
FFC0
ENDCHAR
STARTCHAR uni0449
ENCODING 1097
SWIDTH 600 0
DWIDTH 12 0
BBX 11 14 1 -4
BITMAP
CDC0
CDC0
CDC0
CDC0
CDC0
CDC0
CDC0
CDC0
FFE0
FFE0
0060
0060
0060
0060
ENDCHAR
STARTCHAR uni044A
ENCODING 1098
SWIDTH 600 0
DWIDTH 12 0
BBX 10 10 1 0
BITMAP
F800
F800
3800
3F80
3FC0
39C0
39C0
39C0
3FC0
3F80
ENDCHAR
STARTCHAR uni044B
ENCODING 1099
SWIDTH 600 0
DWIDTH 12 0
BBX 10 10 1 0
BITMAP
C0C0
C0C0
C0C0
F8C0
FCC0
CEC0
CEC0
CEC0
FCC0
F8C0
ENDCHAR
STARTCHAR uni044C
ENCODING 1100
SWIDTH 600 0
DWIDTH 12 0
BBX 9 10 2 0
BITMAP
E000
E000
E000
FE00
FF80
E380
E380
E380
FF80
FE00
ENDCHAR
STARTCHAR uni044D
ENCODING 1101
SWIDTH 600 0
DWIDTH 12 0
BBX 10 10 1 0
BITMAP
7E00
FF00
4380
0180
1FC0
1FC0
0180
4380
FF00
7E00
ENDCHAR
STARTCHAR uni044E
ENCODING 1102
SWIDTH 600 0
DWIDTH 12 0
BBX 11 10 1 0
BITMAP
C780
CFC0
CDC0
CCC0
FCE0
FCE0
CCC0
CDC0
CFC0
C780
ENDCHAR
STARTCHAR uni044F
ENCODING 1103
SWIDTH 600 0
DWIDTH 12 0
BBX 10 10 1 0
BITMAP
3FC0
7FC0
F1C0
E1C0
71C0
7FC0
3FC0
39C0
71C0
E1C0
ENDCHAR
STARTCHAR uni0450
ENCODING 1104
SWIDTH 600 0
DWIDTH 12 0
BBX 10 16 1 0
BITMAP
1000
3800
3C00
0E00
0400
0000
1F00
7F80
71C0
E1C0
FFC0
FFC0
E000
7080
7F80
1F40
ENDCHAR
STARTCHAR uni0451
ENCODING 1105
SWIDTH 600 0
DWIDTH 12 0
BBX 10 15 1 0
BITMAP
3380
7B80
3380
0000
0000
1F00
7F80
71C0
E1C0
FFC0
FFC0
E000
7080
7F80
1F40
ENDCHAR
STARTCHAR uni0452
ENCODING 1106
SWIDTH 600 0
DWIDTH 12 0
BBX 11 18 0 -4
BITMAP
7000
FF00
FF00
7000
7780
7FC0
79C0
70E0
70E0
70E0
70E0
70E0
70E0
70E0
00E0
01C0
07C0
0780
ENDCHAR
STARTCHAR uni0453
ENCODING 1107
SWIDTH 600 0
DWIDTH 12 0
BBX 9 16 2 0
BITMAP
0200
0700
0F00
1C00
0800
0000
FF80
FF80
E000
E000
E000
E000
E000
E000
E000
E000
ENDCHAR
STARTCHAR uni0454
ENCODING 1108
SWIDTH 600 0
DWIDTH 12 0
BBX 10 10 1 0
BITMAP
1F80
3FC0
7080
6000
FE00
FE00
6000
7080
3FC0
1F80
ENDCHAR
STARTCHAR uni0455
ENCODING 1109
SWIDTH 600 0
DWIDTH 12 0
BBX 10 10 1 0
BITMAP
1F00
7FC0
7180
7000
7F00
1F80
03C0
61C0
FF80
3F00
ENDCHAR
STARTCHAR uni0456
ENCODING 1110
SWIDTH 600 0
DWIDTH 12 0
BBX 7 15 2 0
BITMAP
0C
1E
1E
0C
00
FE
FE
0E
0E
0E
0E
0E
0E
0E
0E
ENDCHAR
STARTCHAR uni0457
ENCODING 1111
SWIDTH 600 0
DWIDTH 12 0
BBX 9 15 2 0
BITMAP
7300
7380
7300
0000
0000
FE00
FE00
0E00
0E00
0E00
0E00
0E00
0E00
0E00
0E00
ENDCHAR
STARTCHAR uni0458
ENCODING 1112
SWIDTH 600 0
DWIDTH 12 0
BBX 8 19 1 -4
BITMAP
06
0F
0F
06
00
7F
7F
07
07
07
07
07
07
07
06
06
0E
FE
F8
ENDCHAR
STARTCHAR uni0459
ENCODING 1113
SWIDTH 600 0
DWIDTH 12 0
BBX 12 10 0 0
BITMAP
3F00
3F00
3700
37C0
37E0
3760
7770
7760
E7E0
C7C0
ENDCHAR
STARTCHAR uni045A
ENCODING 1114
SWIDTH 600 0
DWIDTH 12 0
BBX 11 10 1 0
BITMAP
CE00
CE00
CE00
FF80
FFC0
FEC0
CEE0
CEC0
CFC0
CF80
ENDCHAR
STARTCHAR uni045B
ENCODING 1115
SWIDTH 600 0
DWIDTH 12 0
BBX 11 14 0 0
BITMAP
7000
FF00
FF00
7000
7380
7FC0
78E0
70E0
70E0
70E0
70E0
70E0
70E0
70E0
ENDCHAR
STARTCHAR uni045C
ENCODING 1116
SWIDTH 600 0
DWIDTH 12 0
BBX 10 16 2 0
BITMAP
0400
0600
0F00
1C00
0800
0000
C380
C780
C600
CE00
FC00
FE00
CE00
C700
C380
C3C0
ENDCHAR
STARTCHAR uni045D
ENCODING 1117
SWIDTH 600 0
DWIDTH 12 0
BBX 10 16 1 0
BITMAP
1000
3800
1C00
0E00
0400
0000
E1C0
E3C0
E7C0
E7C0
EDC0
EDC0
F9C0
F9C0
F1C0
E1C0
ENDCHAR
STARTCHAR uni045E
ENCODING 1118
SWIDTH 600 0
DWIDTH 12 0
BBX 10 19 1 -4
BITMAP
3380
3300
3F00
1E00
0000
E1C0
E1C0
7180
7380
3380
3B00
1B00
1F00
0E00
0E00
0C00
1C00
7800
F000
ENDCHAR
STARTCHAR uni045F
ENCODING 1119
SWIDTH 600 0
DWIDTH 12 0
BBX 10 14 1 -4
BITMAP
E1C0
E1C0
E1C0
E1C0
E1C0
E1C0
E1C0
E1C0
FFC0
FFC0
0C00
0C00
0C00
0C00
ENDCHAR
STARTCHAR uni0462
ENCODING 1122
SWIDTH 600 0
DWIDTH 12 0
BBX 11 14 0 0
BITMAP
1C00
1C00
FFC0
FFC0
1C00
1C00
1F80
1FE0
1CE0
1C60
1C60
1CE0
1FE0
1F80
ENDCHAR
STARTCHAR uni0463
ENCODING 1123
SWIDTH 600 0
DWIDTH 12 0
BBX 10 12 1 0
BITMAP
3800
3800
FF00
FF00
3800
3800
3F80
3FC0
39C0
39C0
3FC0
3F80
ENDCHAR
STARTCHAR uni0472
ENCODING 1138
SWIDTH 600 0
DWIDTH 12 0
BBX 10 13 1 0
BITMAP
1E00
7F80
7380
E1C0
E1C0
FFC0
FFC0
E1C0
E1C0
E1C0
7380
7F80
1E00
ENDCHAR
STARTCHAR uni0473
ENCODING 1139
SWIDTH 600 0
DWIDTH 12 0
BBX 10 10 1 0
BITMAP
1E00
7F80
7380
E1C0
FFC0
FFC0
E1C0
6180
7F80
1E00
ENDCHAR
STARTCHAR uni0474
ENCODING 1140
SWIDTH 600 0
DWIDTH 12 0
BBX 12 13 0 0
BITMAP
E070
70F0
70E0
70C0
71C0
39C0
3980
3980
1B80
1F80
1F00
0F00
0F00
ENDCHAR
STARTCHAR uni0475
ENCODING 1141
SWIDTH 600 0
DWIDTH 12 0
BBX 11 10 1 0
BITMAP
E0E0
E1C0
6380
7380
7300
3300
3F00
3F00
1E00
1E00
ENDCHAR
STARTCHAR uni0490
ENCODING 1168
SWIDTH 600 0
DWIDTH 12 0
BBX 9 16 2 0
BITMAP
0380
0380
0380
FF80
FF80
E000
E000
E000
E000
E000
E000
E000
E000
E000
E000
E000
ENDCHAR
STARTCHAR uni0491
ENCODING 1169
SWIDTH 600 0
DWIDTH 12 0
BBX 9 13 2 0
BITMAP
0380
0380
0300
FF00
FF00
E000
E000
E000
E000
E000
E000
E000
E000
ENDCHAR
STARTCHAR uni0492
ENCODING 1170
SWIDTH 600 0
DWIDTH 12 0
BBX 10 13 1 0
BITMAP
3FC0
3FC0
3000
3000
3000
FE00
FE00
3000
3000
3000
3000
3000
3000
ENDCHAR
STARTCHAR uni0493
ENCODING 1171
SWIDTH 600 0
DWIDTH 12 0
BBX 10 10 1 0
BITMAP
3FC0
3FC0
3800
3800
3800
FF00
FF00
3800
3800
3800
ENDCHAR
STARTCHAR uni0496
ENCODING 1174
SWIDTH 600 0
DWIDTH 12 0
BBX 12 17 0 -4
BITMAP
E670
E670
36C0
36C0
36C0
36C0
3FC0
3FC0
36C0
76E0
6660
6670
E670
0030
0030
0030
0030
ENDCHAR
STARTCHAR uni0497
ENCODING 1175
SWIDTH 600 0
DWIDTH 12 0
BBX 12 14 0 -4
BITMAP
E670
E670
36C0
36C0
3FC0
3FC0
36C0
76E0
6670
E670
0030
0030
0030
0030
ENDCHAR
STARTCHAR uni0498
ENCODING 1176
SWIDTH 600 0
DWIDTH 12 0
BBX 10 17 1 -4
BITMAP
3F00
FF80
6380
01C0
0380
1F00
1F80
01C0
01C0
01C0
61C0
FF80
3F00
0C00
0C00
0C00
0C00
ENDCHAR
STARTCHAR uni0499
ENCODING 1177
SWIDTH 600 0
DWIDTH 12 0
BBX 10 14 1 -4
BITMAP
7F00
FF80
4380
0380
1F00
1F80
01C0
41C0
FF80
7F00
1C00
1C00
1C00
1C00
ENDCHAR
STARTCHAR uni049A
ENCODING 1178
SWIDTH 600 0
DWIDTH 12 0
BBX 11 17 1 -4
BITMAP
E0E0
E1C0
E380
E300
E700
E600
FE00
FE00
E700
E780
E380
E1E0
E1E0
0060
0060
0060
0060
ENDCHAR
STARTCHAR uni049B
ENCODING 1179
SWIDTH 600 0
DWIDTH 12 0
BBX 10 14 2 -4
BITMAP
C380
C780
C600
CE00
FC00
FE00
CE00
C700
C3C0
C3C0
01C0
01C0
01C0
01C0
ENDCHAR
STARTCHAR uni04A0
ENCODING 1184
SWIDTH 600 0
DWIDTH 12 0
BBX 11 13 1 0
BITMAP
F8E0
F8C0
3980
3980
3980
3B00
3F00
3F00
3B80
3980
39C0
38C0
38E0
ENDCHAR
STARTCHAR uni04A1
ENCODING 1185
SWIDTH 600 0
DWIDTH 12 0
BBX 11 10 1 0
BITMAP
F8C0
F9C0
3980
3B80
3F00
3F00
3B80
3980
39C0
38E0
ENDCHAR
STARTCHAR uni04A2
ENCODING 1186
SWIDTH 600 0
DWIDTH 12 0
BBX 11 17 1 -4
BITMAP
E1C0
E1C0
E1C0
E1C0
E1C0
E1C0
FFC0
FFC0
E1C0
E1C0
E1C0
E1E0
E1E0
0060
0060
0060
0060
ENDCHAR
STARTCHAR uni04A3
ENCODING 1187
SWIDTH 600 0
DWIDTH 12 0
BBX 11 14 1 -4
BITMAP
E380
E380
E380
E380
FF80
FF80
E380
E380
E3E0
E3E0
00E0
00E0
00E0
00C0
ENDCHAR
STARTCHAR uni04AA
ENCODING 1194
SWIDTH 600 0
DWIDTH 12 0
BBX 10 17 1 -4
BITMAP
0F80
3FC0
7880
7000
E000
E000
E000
E000
E000
7000
7880
3FC0
1F80
0700
0700
0600
0600
ENDCHAR
STARTCHAR uni04AB
ENCODING 1195
SWIDTH 600 0
DWIDTH 12 0
BBX 10 14 1 -4
BITMAP
1F80
3FC0
7880
7000
E000
E000
7000
7080
3FC0
1F80
0E00
0E00
0E00
0600
ENDCHAR
STARTCHAR uni04AE
ENCODING 1198
SWIDTH 600 0
DWIDTH 12 0
BBX 12 13 0 0
BITMAP
F0F0
70E0
38C0
39C0
1980
1F80
1F80
0F00
0F00
0600
0600
0600
0600
ENDCHAR
STARTCHAR uni04AF
ENCODING 1199
SWIDTH 600 0
DWIDTH 12 0
BBX 10 14 1 -4
BITMAP
E1C0
E1C0
6180
7380
7380
3300
3F00
3F00
1E00
1E00
0E00
0E00
0E00
0E00
ENDCHAR
STARTCHAR uni04B0
ENCODING 1200
SWIDTH 600 0
DWIDTH 12 0
BBX 12 13 0 0
BITMAP
F0F0
70E0
38C0
39C0
1980
1F80
0F00
3FC0
3FC0
0600
0600
0600
0600
ENDCHAR
STARTCHAR uni04B1
ENCODING 1201
SWIDTH 600 0
DWIDTH 12 0
BBX 10 14 1 -4
BITMAP
E1C0
E1C0
6180
7380
3380
3300
3F00
1E00
7F80
7F80
0E00
0E00
0E00
0E00
ENDCHAR
STARTCHAR uni04B2
ENCODING 1202
SWIDTH 600 0
DWIDTH 12 0
BBX 12 17 0 -4
BITMAP
70E0
78E0
39C0
1D80
1F80
0F00
0F00
1F00
1F80
3980
39C0
70F0
70F0
8070
0070
0070
0070
ENDCHAR
STARTCHAR uni04B3
ENCODING 1203
SWIDTH 600 0
DWIDTH 12 0
BBX 11 14 1 -4
BITMAP
E1C0
7380
3B00
3F00
1E00
1E00
3F00
7700
73E0
E1E0
00E0
00C0
00C0
00C0
ENDCHAR
STARTCHAR uni04B6
ENCODING 1206
SWIDTH 600 0
DWIDTH 12 0
BBX 11 17 1 -4
BITMAP
E1C0
E1C0
E1C0
E1C0
E1C0
E1C0
7FC0
3FC0
01C0
01C0
01C0
01E0
01E0
00E0
00E0
00E0
00E0
ENDCHAR
STARTCHAR uni04B7
ENCODING 1207
SWIDTH 600 0
DWIDTH 12 0
BBX 11 14 1 -4
BITMAP
E380
E380
E380
E380
F380
7F80
3F80
0380
03E0
03E0
00E0
00E0
00E0
00C0
ENDCHAR
STARTCHAR uni04BA
ENCODING 1210
SWIDTH 600 0
DWIDTH 12 0
BBX 10 13 1 0
BITMAP
E000
E000
E000
E000
E000
FF00
FF80
E1C0
E1C0
E1C0
E1C0
E1C0
E1C0
ENDCHAR
STARTCHAR uni04BB
ENCODING 1211
SWIDTH 600 0
DWIDTH 12 0
BBX 10 14 1 0
BITMAP
E000
E000
E000
E000
E700
FF80
F1C0
E1C0
E1C0
E1C0
E1C0
E1C0
E1C0
E1C0
ENDCHAR
STARTCHAR uni04C0
ENCODING 1216
SWIDTH 600 0
DWIDTH 12 0
BBX 10 13 1 0
BITMAP
FFC0
FFC0
0C00
0C00
0C00
0C00
0C00
0C00
0C00
0C00
0C00
FFC0
FFC0
ENDCHAR
STARTCHAR uni04C1
ENCODING 1217
SWIDTH 600 0
DWIDTH 12 0
BBX 12 16 0 0
BITMAP
39C0
1F80
0000
E670
E670
36C0
36C0
36C0
36C0
3FC0
3FC0
36C0
76E0
6660
6660
E670
ENDCHAR
STARTCHAR uni04C2
ENCODING 1218
SWIDTH 600 0
DWIDTH 12 0
BBX 12 15 0 0
BITMAP
1980
1980
1F80
0F00
0000
E670
E670
36C0
36C0
3FC0
3FC0
36C0
76E0
6660
E670
ENDCHAR
STARTCHAR uni04CF
ENCODING 1231
SWIDTH 600 0
DWIDTH 12 0
BBX 10 14 1 0
BITMAP
FC00
FC00
1C00
1C00
1C00
1C00
1C00
1C00
1C00
1C00
1C00
1C00
0FC0
07C0
ENDCHAR
STARTCHAR uni04D0
ENCODING 1232
SWIDTH 600 0
DWIDTH 12 0
BBX 12 16 0 0
BITMAP
39C0
1F80
0000
0F00
0F00
1F80
1F80
1B80
1980
39C0
39C0
3FC0
7FE0
70E0
70E0
E070
ENDCHAR
STARTCHAR uni04D1
ENCODING 1233
SWIDTH 600 0
DWIDTH 12 0
BBX 10 15 1 0
BITMAP
3180
3B80
1F00
1E00
0000
3F00
7F80
6380
01C0
1FC0
7FC0
F1C0
E3C0
7FC0
7DC0
ENDCHAR
STARTCHAR uni04D4
ENCODING 1236
SWIDTH 600 0
DWIDTH 12 0
BBX 12 13 0 0
BITMAP
0FF0
0FF0
1F80
1F80
1F80
3B80
3BE0
3BE0
7F80
7F80
7380
E3F0
E3F0
ENDCHAR
STARTCHAR uni04D5
ENCODING 1237
SWIDTH 600 0
DWIDTH 12 0
BBX 12 10 0 0
BITMAP
39C0
7FE0
4770
1E30
7FF0
77F0
E600
E720
7FE0
79F0
ENDCHAR
STARTCHAR uni04D6
ENCODING 1238
SWIDTH 600 0
DWIDTH 12 0
BBX 9 16 2 0
BITMAP
7700
3E00
0000
FF00
FF00
E000
E000
E000
E000
FF00
FF00
E000
E000
E000
FF80
FF80
ENDCHAR
STARTCHAR uni04D7
ENCODING 1239
SWIDTH 600 0
DWIDTH 12 0
BBX 10 15 1 0
BITMAP
3380
3300
3F00
1E00
0000
1F00
7F80
71C0
E1C0
FFC0
FFC0
E000
7080
7F80
1F40
ENDCHAR
STARTCHAR uni04D8
ENCODING 1240
SWIDTH 600 0
DWIDTH 12 0
BBX 10 13 1 0
BITMAP
3E00
7F80
2380
01C0
01C0
01C0
FFC0
FFC0
E1C0
E1C0
7380
3F80
1E00
ENDCHAR
STARTCHAR uni04D9
ENCODING 1241
SWIDTH 600 0
DWIDTH 12 0
BBX 10 10 1 0
BITMAP
3E00
7F80
4380
01C0
FFC0
FFC0
E1C0
6380
7F80
3E00
ENDCHAR
STARTCHAR uni04E2
ENCODING 1250
SWIDTH 600 0
DWIDTH 12 0
BBX 10 16 1 0
BITMAP
3F00
3F00
0000
E3C0
E3C0
E3C0
E7C0
E7C0
EFC0
EDC0
FDC0
F9C0
F9C0
F1C0
F1C0
F1C0
ENDCHAR
STARTCHAR uni04E3
ENCODING 1251
SWIDTH 600 0
DWIDTH 12 0
BBX 10 14 1 0
BITMAP
3F00
3F00
0000
0000
E1C0
E3C0
E7C0
E7C0
EDC0
EDC0
F9C0
F9C0
F1C0
E1C0
ENDCHAR
STARTCHAR uni04E6
ENCODING 1254
SWIDTH 600 0
DWIDTH 12 0
BBX 10 17 1 0
BITMAP
3300
7380
3300
0000
1E00
7F80
7380
E1C0
E1C0
E1C0
E1C0
E1C0
E1C0
E1C0
7380
7F80
1E00
ENDCHAR
STARTCHAR uni04E7
ENCODING 1255
SWIDTH 600 0
DWIDTH 12 0
BBX 10 15 1 0
BITMAP
3300
7380
3300
0000
0000
1E00
7F80
7380
E1C0
E1C0
E1C0
E1C0
7380
7F80
1E00
ENDCHAR
STARTCHAR uni04E8
ENCODING 1256
SWIDTH 600 0
DWIDTH 12 0
BBX 10 13 1 0
BITMAP
1E00
7F80
7380
E1C0
E1C0
FFC0
FFC0
E1C0
E1C0
E1C0
7380
7F80
1E00
ENDCHAR
STARTCHAR uni04E9
ENCODING 1257
SWIDTH 600 0
DWIDTH 12 0
BBX 10 10 1 0
BITMAP
1E00
7F80
7380
E1C0
FFC0
FFC0
E1C0
6180
7F80
1E00
ENDCHAR
STARTCHAR uni04EE
ENCODING 1262
SWIDTH 600 0
DWIDTH 12 0
BBX 12 16 0 0
BITMAP
1F80
1F80
0000
F070
70E0
38E0
39C0
19C0
1D80
1F80
0F80
0F00
0700
0E00
3E00
3C00
ENDCHAR
STARTCHAR uni04EF
ENCODING 1263
SWIDTH 600 0
DWIDTH 12 0
BBX 10 18 1 -4
BITMAP
3F00
3F00
0000
0000
E1C0
E1C0
7180
7380
3380
3B00
1B00
1F00
0E00
0E00
0C00
1C00
7800
F000
ENDCHAR
STARTCHAR uni04F2
ENCODING 1266
SWIDTH 600 0
DWIDTH 12 0
BBX 12 18 0 0
BITMAP
0440
0EE0
0CC0
1980
0000
F070
70E0
38E0
39C0
19C0
1D80
1F80
0F80
0F00
0700
0E00
3E00
3C00
ENDCHAR
STARTCHAR uni04F3
ENCODING 1267
SWIDTH 600 0
DWIDTH 12 0
BBX 10 19 1 -4
BITMAP
0880
0DC0
1980
1300
0000
E1C0
E1C0
7180
7380
3380
3B00
1B00
1F00
0E00
0E00
0C00
1C00
7800
F000
ENDCHAR
STARTCHAR a.sups
ENCODING 7491
SWIDTH 600 0
DWIDTH 12 0
BBX 6 7 3 7
BITMAP
78
FC
8C
7C
FC
FC
7C
ENDCHAR
STARTCHAR b.sups
ENCODING 7495
SWIDTH 600 0
DWIDTH 12 0
BBX 7 9 3 7
BITMAP
C0
C0
D8
FC
CC
CE
CC
FC
F8
ENDCHAR
STARTCHAR d.sups
ENCODING 7496
SWIDTH 600 0
DWIDTH 12 0
BBX 6 9 3 7
BITMAP
0C
0C
7C
FC
CC
CC
CC
FC
7C
ENDCHAR
STARTCHAR e.sups
ENCODING 7497
SWIDTH 600 0
DWIDTH 12 0
BBX 6 7 3 7
BITMAP
78
FC
CC
FC
FC
FC
78
ENDCHAR
STARTCHAR g.sups
ENCODING 7501
SWIDTH 600 0
DWIDTH 12 0
BBX 7 10 3 4
BITMAP
7E
FE
CC
F8
F8
FC
7E
86
FC
78
ENDCHAR
STARTCHAR k.sups
ENCODING 7503
SWIDTH 600 0
DWIDTH 12 0
BBX 7 10 3 7
BITMAP
C0
C0
C0
CE
D8
F8
F8
FC
CC
C6
ENDCHAR
STARTCHAR m.sups
ENCODING 7504
SWIDTH 600 0
DWIDTH 12 0
BBX 10 7 1 7
BITMAP
DB80
FFC0
CCC0
CCC0
CCC0
CCC0
CCC0
ENDCHAR
STARTCHAR o.sups
ENCODING 7506
SWIDTH 600 0
DWIDTH 12 0
BBX 6 7 3 7
BITMAP
78
FC
CC
CC
CC
FC
78
ENDCHAR
STARTCHAR p.sups
ENCODING 7510
SWIDTH 600 0
DWIDTH 12 0
BBX 7 9 3 5
BITMAP
D8
FC
CC
CE
CC
FC
D8
C0
C0
ENDCHAR
STARTCHAR t.sups
ENCODING 7511
SWIDTH 600 0
DWIDTH 12 0
BBX 6 9 3 7
BITMAP
20
20
FC
FC
60
60
70
3C
3C
ENDCHAR
STARTCHAR u.sups
ENCODING 7512
SWIDTH 600 0
DWIDTH 12 0
BBX 6 7 3 7
BITMAP
CC
CC
CC
CC
CC
FC
6C
ENDCHAR
STARTCHAR v.sups
ENCODING 7515
SWIDTH 600 0
DWIDTH 12 0
BBX 7 7 2 7
BITMAP
E6
66
66
3C
3C
3C
18
ENDCHAR
STARTCHAR c.sups
ENCODING 7580
SWIDTH 600 0
DWIDTH 12 0
BBX 6 7 3 7
BITMAP
3C
7C
60
E0
60
7C
3C
ENDCHAR
STARTCHAR f.sups
ENCODING 7584
SWIDTH 600 0
DWIDTH 12 0
BBX 6 10 4 7
BITMAP
3C
7C
60
F8
F8
60
60
60
60
60
ENDCHAR
STARTCHAR z.sups
ENCODING 7611
SWIDTH 600 0
DWIDTH 12 0
BBX 6 7 3 7
BITMAP
FC
FC
18
30
60
FC
FC
ENDCHAR
STARTCHAR uni1E06
ENCODING 7686
SWIDTH 600 0
DWIDTH 12 0
BBX 10 17 1 -4
BITMAP
FF00
FF80
E3C0
E1C0
E380
FF00
FF80
E1C0
E1C0
E1C0
E1C0
FF80
FF00
0000
0000
3F00
3F00
ENDCHAR
STARTCHAR uni1E07
ENCODING 7687
SWIDTH 600 0
DWIDTH 12 0
BBX 10 18 1 -4
BITMAP
E000
E000
E000
E000
EF00
FF80
F3C0
E1C0
E1C0
E1C0
E1C0
F3C0
FF80
EF00
0000
0000
3F00
3F00
ENDCHAR
STARTCHAR uni1E0C
ENCODING 7692
SWIDTH 600 0
DWIDTH 12 0
BBX 10 18 1 -5
BITMAP
FE00
FF80
E380
E1C0
E1C0
E1C0
E1C0
E1C0
E1C0
E1C0
E380
FF00
FE00
0000
0C00
1E00
1E00
0C00
ENDCHAR
STARTCHAR uni1E0D
ENCODING 7693
SWIDTH 600 0
DWIDTH 12 0
BBX 10 19 1 -5
BITMAP
01C0
01C0
01C0
01C0
3DC0
7FC0
F3C0
E1C0
E1C0
E1C0
E1C0
F3C0
7FC0
3DC0
0000
0C00
1E00
1E00
0E00
ENDCHAR
STARTCHAR uni1E0E
ENCODING 7694
SWIDTH 600 0
DWIDTH 12 0
BBX 10 17 1 -4
BITMAP
FE00
FF80
E380
E1C0
E1C0
E1C0
E1C0
E1C0
E1C0
E1C0
E380
FF00
FE00
0000
0000
3F00
3F00
ENDCHAR
STARTCHAR uni1E0F
ENCODING 7695
SWIDTH 600 0
DWIDTH 12 0
BBX 10 18 1 -4
BITMAP
01C0
01C0
01C0
01C0
3DC0
7FC0
F3C0
E1C0
E1C0
E1C0
E1C0
F3C0
7FC0
3DC0
0000
0000
3F00
3F00
ENDCHAR
STARTCHAR uni1E10
ENCODING 7696
SWIDTH 600 0
DWIDTH 12 0
BBX 10 18 1 -5
BITMAP
FE00
FF80
E380
E1C0
E1C0
E1C0
E1C0
E1C0
E1C0
E1C0
E380
FF00
FE00
0800
1C00
0E00
0C00
3800
ENDCHAR
STARTCHAR uni1E11
ENCODING 7697
SWIDTH 600 0
DWIDTH 12 0
BBX 10 19 1 -5
BITMAP
01C0
01C0
01C0
01C0
3DC0
7FC0
F3C0
E1C0
E1C0
E1C0
E1C0
F3C0
7FC0
3DC0
0800
1C00
0C00
0C00
3800
ENDCHAR
STARTCHAR uni1E16
ENCODING 7702
SWIDTH 600 0
DWIDTH 12 0
BBX 9 20 2 0
BITMAP
0400
1E00
1800
0000
7E00
7E00
0000
FF00
FF00
E000
E000
E000
E000
FF00
FF00
E000
E000
E000
FF80
FF80
ENDCHAR
STARTCHAR uni1E17
ENCODING 7703
SWIDTH 600 0
DWIDTH 12 0
BBX 10 18 1 0
BITMAP
0200
0F00
0C00
0000
3F00
3F00
0000
0000
1F00
7F80
71C0
E1C0
FFC0
FFC0
E000
7080
7F80
1F40
ENDCHAR
STARTCHAR uni1E20
ENCODING 7712
SWIDTH 600 0
DWIDTH 12 0
BBX 10 16 1 0
BITMAP
1F80
1F80
0000
1F00
3FC0
7080
F000
E000
E000
E7C0
E7C0
E1C0
F1C0
71C0
3FC0
1F00
ENDCHAR
STARTCHAR uni1E21
ENCODING 7713
SWIDTH 600 0
DWIDTH 12 0
BBX 10 18 1 -4
BITMAP
3F00
3F00
0000
0000
3FC0
7FC0
7380
E380
7380
7F00
7E00
6000
7F80
3FC0
E0C0
E1C0
FFC0
3F00
ENDCHAR
STARTCHAR uni1E24
ENCODING 7716
SWIDTH 600 0
DWIDTH 12 0
BBX 10 18 1 -5
BITMAP
E1C0
E1C0
E1C0
E1C0
E1C0
E1C0
FFC0
FFC0
E1C0
E1C0
E1C0
E1C0
E1C0
0000
0C00
1E00
1E00
0C00
ENDCHAR
STARTCHAR uni1E25
ENCODING 7717
SWIDTH 600 0
DWIDTH 12 0
BBX 10 19 1 -5
BITMAP
E000
E000
E000
E000
E700
FF80
F1C0
E1C0
E1C0
E1C0
E1C0
E1C0
E1C0
E1C0
0000
0C00
1E00
1E00
0E00
ENDCHAR
STARTCHAR uni1E26
ENCODING 7718
SWIDTH 600 0
DWIDTH 12 0
BBX 10 17 1 0
BITMAP
3300
7380
3300
0000
E1C0
E1C0
E1C0
E1C0
E1C0
E1C0
FFC0
FFC0
E1C0
E1C0
E1C0
E1C0
E1C0
ENDCHAR
STARTCHAR uni1E27
ENCODING 7719
SWIDTH 600 0
DWIDTH 12 0
BBX 12 18 -1 0
BITMAP
6600
E700
6600
0000
3800
3800
3800
3800
39C0
3FE0
3C70
3870
3870
3870
3870
3870
3870
3870
ENDCHAR
STARTCHAR uni1E28
ENCODING 7720
SWIDTH 600 0
DWIDTH 12 0
BBX 10 18 1 -5
BITMAP
E1C0
E1C0
E1C0
E1C0
E1C0
E1C0
FFC0
FFC0
E1C0
E1C0
E1C0
E1C0
E1C0
4000
E000
7000
7000
C000
ENDCHAR
STARTCHAR uni1E29
ENCODING 7721
SWIDTH 600 0
DWIDTH 12 0
BBX 10 19 1 -5
BITMAP
E000
E000
E000
E000
E700
FF80
F1C0
E1C0
E1C0
E1C0
E1C0
E1C0
E1C0
E1C0
6000
E000
3000
3000
E000
ENDCHAR
STARTCHAR uni1E2A
ENCODING 7722
SWIDTH 600 0
DWIDTH 12 0
BBX 10 18 1 -5
BITMAP
E1C0
E1C0
E1C0
E1C0
E1C0
E1C0
FFC0
FFC0
E1C0
E1C0
E1C0
E1C0
E1C0
0000
0000
3300
3F00
1E00
ENDCHAR
STARTCHAR uni1E2B
ENCODING 7723
SWIDTH 600 0
DWIDTH 12 0
BBX 10 19 1 -5
BITMAP
E000
E000
E000
E000
E700
FF80
F1C0
E1C0
E1C0
E1C0
E1C0
E1C0
E1C0
E1C0
0000
0000
3380
3F00
1E00
ENDCHAR
STARTCHAR uni1E32
ENCODING 7730
SWIDTH 600 0
DWIDTH 12 0
BBX 11 18 1 -5
BITMAP
E1E0
E380
E780
E700
EE00
FE00
FE00
FF00
F700
E380
E3C0
E1C0
E1E0
0000
0E00
0E00
0E00
0E00
ENDCHAR
STARTCHAR uni1E33
ENCODING 7731
SWIDTH 600 0
DWIDTH 12 0
BBX 10 19 2 -5
BITMAP
C000
C000
C000
C000
C380
C700
CE00
DC00
FC00
FE00
EE00
C700
C380
C380
0040
1C00
1C00
1C00
1C00
ENDCHAR
STARTCHAR uni1E34
ENCODING 7732
SWIDTH 600 0
DWIDTH 12 0
BBX 11 17 1 -4
BITMAP
E1E0
E380
E780
E700
EE00
FE00
FE00
FF00
F700
E380
E3C0
E1C0
E1E0
0000
0000
1F00
1F00
ENDCHAR
STARTCHAR uni1E35
ENCODING 7733
SWIDTH 600 0
DWIDTH 12 0
BBX 10 18 2 -4
BITMAP
C000
C000
C000
C000
C380
C700
CE00
DC00
FC00
FE00
EE00
C700
C380
C380
0040
0000
3E00
3E00
ENDCHAR
STARTCHAR uni1E36
ENCODING 7734
SWIDTH 600 0
DWIDTH 12 0
BBX 9 18 2 -5
BITMAP
E000
E000
E000
E000
E000
E000
E000
E000
E000
E000
E000
FF80
FF80
0000
1C00
1E00
1E00
1C00
ENDCHAR
STARTCHAR uni1E37
ENCODING 7735
SWIDTH 600 0
DWIDTH 12 0
BBX 10 19 1 -5
BITMAP
FC00
FC00
1C00
1C00
1C00
1C00
1C00
1C00
1C00
1C00
1C00
1C00
0FC0
07C0
0000
0700
0F00
0F00
0700
ENDCHAR
STARTCHAR uni1E38
ENCODING 7736
SWIDTH 600 0
DWIDTH 12 0
BBX 10 21 1 -5
BITMAP
FC00
FC00
0000
7000
7000
7000
7000
7000
7000
7000
7000
7000
7000
7000
7FC0
7FC0
0000
0E00
0F00
0F00
0E00
ENDCHAR
STARTCHAR uni1E39
ENCODING 7737
SWIDTH 600 0
DWIDTH 12 0
BBX 10 22 1 -5
BITMAP
7F00
7F00
0000
FC00
FC00
1C00
1C00
1C00
1C00
1C00
1C00
1C00
1C00
1C00
1C00
0FC0
07C0
0000
0700
0F00
0F00
0700
ENDCHAR
STARTCHAR uni1E3A
ENCODING 7738
SWIDTH 600 0
DWIDTH 12 0
BBX 9 17 2 -4
BITMAP
E000
E000
E000
E000
E000
E000
E000
E000
E000
E000
E000
FF80
FF80
0000
0000
3F00
3F00
ENDCHAR
STARTCHAR uni1E3B
ENCODING 7739
SWIDTH 600 0
DWIDTH 12 0
BBX 10 18 1 -4
BITMAP
FC00
FC00
1C00
1C00
1C00
1C00
1C00
1C00
1C00
1C00
1C00
1C00
0FC0
07C0
0000
0000
1F80
1F80
ENDCHAR
STARTCHAR uni1E3E
ENCODING 7742
SWIDTH 600 0
DWIDTH 12 0
BBX 10 18 1 0
BITMAP
0200
0F00
1E00
0800
0000
E1C0
F3C0
F3C0
F3C0
D2C0
DEC0
DFC0
EDC0
EDC0
EDC0
E1C0
E1C0
E1C0
ENDCHAR
STARTCHAR uni1E3F
ENCODING 7743
SWIDTH 600 0
DWIDTH 12 0
BBX 10 16 1 0
BITMAP
0200
0300
0780
0E00
0400
0000
DDC0
FFC0
EEC0
ECC0
ECC0
ECC0
ECC0
ECC0
ECC0
ECC0
ENDCHAR
STARTCHAR uni1E40
ENCODING 7744
SWIDTH 600 0
DWIDTH 12 0
BBX 10 17 1 0
BITMAP
0C00
1E00
0C00
0000
E1C0
F3C0
F3C0
F3C0
D2C0
DEC0
DFC0
EDC0
EDC0
EDC0
E1C0
E1C0
E1C0
ENDCHAR
STARTCHAR uni1E41
ENCODING 7745
SWIDTH 600 0
DWIDTH 12 0
BBX 10 15 1 0
BITMAP
0E00
0E00
1E00
0E00
0000
DDC0
FFC0
EEC0
ECC0
ECC0
ECC0
ECC0
ECC0
ECC0
ECC0
ENDCHAR
STARTCHAR uni1E42
ENCODING 7746
SWIDTH 600 0
DWIDTH 12 0
BBX 10 18 1 -5
BITMAP
E1C0
F3C0
F3C0
F3C0
D2C0
DEC0
DFC0
EDC0
EDC0
EDC0
E1C0
E1C0
E1C0
0000
0C00
1E00
1E00
0C00
ENDCHAR
STARTCHAR uni1E43
ENCODING 7747
SWIDTH 600 0
DWIDTH 12 0
BBX 10 15 1 -5
BITMAP
DDC0
FFC0
EEC0
ECC0
ECC0
ECC0
ECC0
ECC0
ECC0
ECC0
0000
0C00
1E00
1E00
0C00
ENDCHAR
STARTCHAR uni1E44
ENCODING 7748
SWIDTH 600 0
DWIDTH 12 0
BBX 10 17 1 0
BITMAP
0E00
1E00
0E00
0000
F1C0
F1C0
F1C0
F9C0
F9C0
EDC0
EDC0
EDC0
E7C0
E7C0
E3C0
E3C0
E3C0
ENDCHAR
STARTCHAR uni1E45
ENCODING 7749
SWIDTH 600 0
DWIDTH 12 0
BBX 10 15 1 0
BITMAP
0E00
1E00
1E00
0E00
0000
E700
FF80
F1C0
E1C0
E1C0
E1C0
E1C0
E1C0
E1C0
E1C0
ENDCHAR
STARTCHAR uni1E46
ENCODING 7750
SWIDTH 600 0
DWIDTH 12 0
BBX 10 18 1 -5
BITMAP
F1C0
F1C0
F1C0
F9C0
F9C0
EDC0
EDC0
EDC0
E7C0
E7C0
E3C0
E3C0
E3C0
0000
0C00
1E00
1E00
0C00
ENDCHAR
STARTCHAR uni1E47
ENCODING 7751
SWIDTH 600 0
DWIDTH 12 0
BBX 10 15 1 -5
BITMAP
E700
FF80
F1C0
E1C0
E1C0
E1C0
E1C0
E1C0
E1C0
E1C0
0000
0C00
1E00
1E00
0E00
ENDCHAR
STARTCHAR uni1E48
ENCODING 7752
SWIDTH 600 0
DWIDTH 12 0
BBX 10 17 1 -4
BITMAP
F1C0
F1C0
F1C0
F9C0
F9C0
EDC0
EDC0
EDC0
E7C0
E7C0
E3C0
E3C0
E3C0
0000
0000
3F00
3F00
ENDCHAR
STARTCHAR uni1E49
ENCODING 7753
SWIDTH 600 0
DWIDTH 12 0
BBX 10 14 1 -4
BITMAP
E700
FF80
F1C0
E1C0
E1C0
E1C0
E1C0
E1C0
E1C0
E1C0
0000
0000
3F00
3F00
ENDCHAR
STARTCHAR uni1E52
ENCODING 7762
SWIDTH 600 0
DWIDTH 12 0
BBX 10 20 1 0
BITMAP
0200
0F00
1800
0000
3F00
3F00
0000
1E00
7F80
7380
E1C0
E1C0
E1C0
E1C0
E1C0
E1C0
E1C0
7380
7F80
1E00
ENDCHAR
STARTCHAR uni1E53
ENCODING 7763
SWIDTH 600 0
DWIDTH 12 0
BBX 10 18 1 0
BITMAP
0200
0F00
1800
0000
3F00
3F00
0000
0000
1E00
7F80
7380
E1C0
E1C0
E1C0
E1C0
7380
7F80
1E00
ENDCHAR
STARTCHAR uni1E58
ENCODING 7768
SWIDTH 600 0
DWIDTH 12 0
BBX 11 17 1 0
BITMAP
0C00
1E00
0C00
0000
FF00
FF80
E1C0
E1C0
E1C0
E1C0
FF80
FF00
E700
E380
E380
E1C0
E1E0
ENDCHAR
STARTCHAR uni1E59
ENCODING 7769
SWIDTH 600 0
DWIDTH 12 0
BBX 9 15 2 0
BITMAP
0C00
1E00
1E00
0C00
0000
E780
EF80
F800
F000
E000
E000
E000
E000
E000
E000
ENDCHAR
STARTCHAR uni1E5A
ENCODING 7770
SWIDTH 600 0
DWIDTH 12 0
BBX 11 18 1 -5
BITMAP
FF00
FF80
E1C0
E1C0
E1C0
E1C0
FF80
FF00
E700
E380
E380
E1C0
E1C0
0020
0E00
0E00
1E00
0E00
ENDCHAR
STARTCHAR uni1E5B
ENCODING 7771
SWIDTH 600 0
DWIDTH 12 0
BBX 9 15 2 -5
BITMAP
E780
EF80
F800
F000
E000
E000
E000
E000
E000
E000
0000
6000
F000
F000
6000
ENDCHAR
STARTCHAR uni1E5C
ENCODING 7772
SWIDTH 600 0
DWIDTH 12 0
BBX 11 21 1 -5
BITMAP
3F00
3F00
0000
FF00
FF80
E1C0
E1C0
E1C0
E1C0
FF80
FF00
E700
E380
E380
E1C0
E1C0
0020
0E00
0E00
1E00
0E00
ENDCHAR
STARTCHAR uni1E5D
ENCODING 7773
SWIDTH 600 0
DWIDTH 12 0
BBX 9 19 2 -5
BITMAP
3F00
3F00
0000
0000
E780
EF80
F800
F000
E000
E000
E000
E000
E000
E000
0000
6000
F000
F000
6000
ENDCHAR
STARTCHAR uni1E5E
ENCODING 7774
SWIDTH 600 0
DWIDTH 12 0
BBX 11 17 1 -4
BITMAP
FF00
FF80
E1C0
E1C0
E1C0
E1C0
FF80
FF00
E700
E380
E380
E1C0
E1C0
0020
0000
3F00
3F00
ENDCHAR
STARTCHAR uni1E5F
ENCODING 7775
SWIDTH 600 0
DWIDTH 12 0
BBX 10 14 1 -4
BITMAP
73C0
77C0
7C00
7800
7000
7000
7000
7000
7000
7000
0000
0000
FC00
FC00
ENDCHAR
STARTCHAR uni1E60
ENCODING 7776
SWIDTH 600 0
DWIDTH 12 0
BBX 10 17 1 0
BITMAP
0E00
0E00
0E00
0000
1F00
7FC0
7180
7000
7000
7E00
3F80
0FC0
03C0
01C0
61C0
FF80
3F00
ENDCHAR
STARTCHAR uni1E61
ENCODING 7777
SWIDTH 600 0
DWIDTH 12 0
BBX 10 15 1 0
BITMAP
0E00
1E00
1E00
0E00
0000
1F00
7FC0
7180
7000
7F00
1F80
03C0
61C0
FF80
3F00
ENDCHAR
STARTCHAR uni1E62
ENCODING 7778
SWIDTH 600 0
DWIDTH 12 0
BBX 10 18 1 -5
BITMAP
1F00
7FC0
7180
7000
7000
7E00
3F80
0FC0
03C0
01C0
61C0
FF80
3F00
0000
0C00
1E00
1E00
0C00
ENDCHAR
STARTCHAR uni1E63
ENCODING 7779
SWIDTH 600 0
DWIDTH 12 0
BBX 10 15 1 -5
BITMAP
1F00
7FC0
7180
7000
7F00
1F80
03C0
61C0
FF80
3F00
0000
0C00
1E00
1E00
0E00
ENDCHAR
STARTCHAR uni1E6C
ENCODING 7788
SWIDTH 600 0
DWIDTH 12 0
BBX 10 18 1 -5
BITMAP
FFC0
FFC0
0C00
0C00
0C00
0C00
0C00
0C00
0C00
0C00
0C00
0C00
0C00
0000
0C00
1E00
1E00
0C00
ENDCHAR
STARTCHAR uni1E6D
ENCODING 7789
SWIDTH 600 0
DWIDTH 12 0
BBX 10 18 1 -5
BITMAP
1800
1800
1800
FFC0
FFC0
3800
3800
3800
3800
1800
1C00
1FC0
0FC0
0000
0700
0F00
0F00
0700
ENDCHAR
STARTCHAR uni1E6E
ENCODING 7790
SWIDTH 600 0
DWIDTH 12 0
BBX 10 17 1 -4
BITMAP
FFC0
FFC0
0C00
0C00
0C00
0C00
0C00
0C00
0C00
0C00
0C00
0C00
0C00
0000
0000
3F00
3F00
ENDCHAR
STARTCHAR uni1E6F
ENCODING 7791
SWIDTH 600 0
DWIDTH 12 0
BBX 10 17 1 -4
BITMAP
1800
1800
1800
FFC0
FFC0
3800
3800
3800
3800
1800
1C00
1FC0
0FC0
0000
0000
1F80
1F80
ENDCHAR
STARTCHAR uni1E7E
ENCODING 7806
SWIDTH 600 0
DWIDTH 12 0
BBX 12 18 0 -5
BITMAP
F070
70E0
70E0
70E0
38C0
39C0
39C0
1980
1D80
1F80
1F80
0F00
0F00
0000
0600
0F00
0F00
0600
ENDCHAR
STARTCHAR uni1E7F
ENCODING 7807
SWIDTH 600 0
DWIDTH 12 0
BBX 10 15 1 -5
BITMAP
E1C0
E1C0
6180
7380
7380
3300
3F00
3F00
1E00
1E00
0000
0C00
1E00
1E00
0C00
ENDCHAR
STARTCHAR Wgrave
ENCODING 7808
SWIDTH 600 0
DWIDTH 12 0
BBX 12 18 0 0
BITMAP
0800
1E00
0F00
0200
0000
E070
E070
E070
6660
6660
6760
7F60
7F60
7F60
7D60
79E0
39C0
39C0
ENDCHAR
STARTCHAR wgrave
ENCODING 7809
SWIDTH 600 0
DWIDTH 12 0
BBX 12 16 0 0
BITMAP
0800
1C00
3E00
0E00
0300
0000
E070
E670
E670
6760
7F60
7F60
7FE0
7DE0
79E0
39C0
ENDCHAR
STARTCHAR Wacute
ENCODING 7810
SWIDTH 600 0
DWIDTH 12 0
BBX 12 18 0 0
BITMAP
0100
0780
0F00
0400
0000
E070
E070
E070
6660
6660
6760
7F60
7F60
7F60
7D60
79E0
39C0
39C0
ENDCHAR
STARTCHAR wacute
ENCODING 7811
SWIDTH 600 0
DWIDTH 12 0
BBX 12 16 0 0
BITMAP
0100
0380
07C0
0700
0C00
0000
E070
E670
E670
6760
7F60
7F60
7FE0
7DE0
79E0
39C0
ENDCHAR
STARTCHAR Wdieresis
ENCODING 7812
SWIDTH 600 0
DWIDTH 12 0
BBX 12 17 0 0
BITMAP
1980
39C0
1980
0000
E070
E070
E070
6660
6660
6760
7F60
7F60
7F60
7D60
79E0
39C0
39C0
ENDCHAR
STARTCHAR wdieresis
ENCODING 7813
SWIDTH 600 0
DWIDTH 12 0
BBX 12 15 0 0
BITMAP
1980
39C0
1980
0000
0000
E070
E670
E670
6760
7F60
7F60
7FE0
7DE0
79E0
39C0
ENDCHAR
STARTCHAR uni1E8E
ENCODING 7822
SWIDTH 600 0
DWIDTH 12 0
BBX 12 17 0 0
BITMAP
0600
0F00
0600
0000
F0F0
70E0
38C0
39C0
1980
1F80
1F80
0F00
0F00
0600
0600
0600
0600
ENDCHAR
STARTCHAR uni1E8F
ENCODING 7823
SWIDTH 600 0
DWIDTH 12 0
BBX 10 19 1 -4
BITMAP
0C00
1E00
1E00
0E00
0000
E1C0
E1C0
7180
7380
3380
3B00
1B00
1F00
0E00
0E00
0C00
1C00
7800
F000
ENDCHAR
STARTCHAR uni1E90
ENCODING 7824
SWIDTH 600 0
DWIDTH 12 0
BBX 10 17 1 0
BITMAP
1E00
1B00
3180
0000
7FC0
7FC0
0380
0700
0700
0E00
1E00
1C00
3800
3800
7000
FFC0
FFC0
ENDCHAR
STARTCHAR uni1E91
ENCODING 7825
SWIDTH 600 0
DWIDTH 12 0
BBX 10 15 1 0
BITMAP
0E00
1F00
3B80
1180
0000
7FC0
7F80
0780
0F00
0E00
1C00
3C00
7800
7FC0
FFC0
ENDCHAR
STARTCHAR uni1E92
ENCODING 7826
SWIDTH 600 0
DWIDTH 12 0
BBX 10 18 1 -5
BITMAP
7FC0
7FC0
0380
0700
0700
0E00
1E00
1C00
3800
3800
7000
FFC0
FFC0
0000
0E00
1E00
1E00
0E00
ENDCHAR
STARTCHAR uni1E93
ENCODING 7827
SWIDTH 600 0
DWIDTH 12 0
BBX 10 15 1 -5
BITMAP
7FC0
7F80
0780
0F00
0E00
1C00
3C00
7800
7FC0
FFC0
0000
0E00
1E00
1E00
0E00
ENDCHAR
STARTCHAR uni1E94
ENCODING 7828
SWIDTH 600 0
DWIDTH 12 0
BBX 10 17 1 -4
BITMAP
7FC0
7FC0
0380
0700
0700
0E00
1E00
1C00
3800
3800
7000
FFC0
FFC0
0000
0000
3F00
3F00
ENDCHAR
STARTCHAR uni1E95
ENCODING 7829
SWIDTH 600 0
DWIDTH 12 0
BBX 10 14 1 -4
BITMAP
7FC0
7F80
0780
0F00
0E00
1C00
3C00
7800
7FC0
FFC0
0000
0000
3F00
3F00
ENDCHAR
STARTCHAR uni1E96
ENCODING 7830
SWIDTH 600 0
DWIDTH 12 0
BBX 10 18 1 -4
BITMAP
E000
E000
E000
E000
E700
FF80
F1C0
E1C0
E1C0
E1C0
E1C0
E1C0
E1C0
E1C0
0000
0000
3F00
3F00
ENDCHAR
STARTCHAR uni1E97
ENCODING 7831
SWIDTH 600 0
DWIDTH 12 0
BBX 10 18 1 0
BITMAP
6700
F700
6700
0000
0000
1800
1800
1800
FFC0
FFC0
3800
3800
3800
3800
1800
1C00
1FC0
0FC0
ENDCHAR
STARTCHAR uni1E9E
ENCODING 7838
SWIDTH 600 0
DWIDTH 12 0
BBX 11 13 1 0
BITMAP
1E00
7F80
7380
E3C0
E380
E700
E780
E7C0
E1E0
E0E0
E9C0
EFC0
E780
ENDCHAR
STARTCHAR uni1EA0
ENCODING 7840
SWIDTH 600 0
DWIDTH 12 0
BBX 12 18 0 -5
BITMAP
0F00
0F00
1F80
1F80
1B80
1980
39C0
39C0
3FC0
7FE0
70E0
70E0
E070
0000
0600
0F00
0F00
0600
ENDCHAR
STARTCHAR uni1EA1
ENCODING 7841
SWIDTH 600 0
DWIDTH 12 0
BBX 10 15 1 -5
BITMAP
3F00
7F80
6380
01C0
1FC0
7FC0
F1C0
E3C0
7FC0
7DC0
0000
0C00
1E00
1E00
0C00
ENDCHAR
STARTCHAR uni1EA2
ENCODING 7842
SWIDTH 600 0
DWIDTH 12 0
BBX 12 17 0 0
BITMAP
0E00
0300
0600
0000
0F00
0F00
1F80
1F80
1B80
1980
39C0
39C0
3FC0
7FE0
70E0
70E0
E070
ENDCHAR
STARTCHAR uni1EA3
ENCODING 7843
SWIDTH 600 0
DWIDTH 12 0
BBX 10 16 1 0
BITMAP
0C00
0E00
0600
0600
0C00
0000
3F00
7F80
6380
01C0
1FC0
7FC0
F1C0
E3C0
7FC0
7DC0
ENDCHAR
STARTCHAR uni1EA4
ENCODING 7844
SWIDTH 600 0
DWIDTH 12 0
BBX 12 18 0 0
BITMAP
0020
0F60
1FC0
1980
0000
0F00
0F00
1F80
1F80
1B80
1980
39C0
39C0
3FC0
7FE0
70E0
70E0
E070
ENDCHAR
STARTCHAR uni1EA5
ENCODING 7845
SWIDTH 600 0
DWIDTH 12 0
BBX 11 16 1 0
BITMAP
0040
00E0
0E80
1F00
3100
0000
3F00
7F80
6380
01C0
1FC0
7FC0
F1C0
E3C0
7FC0
7DC0
ENDCHAR
STARTCHAR uni1EA6
ENCODING 7846
SWIDTH 600 0
DWIDTH 12 0
BBX 12 18 0 0
BITMAP
4000
6F00
3F80
1980
0000
0F00
0F00
1F80
1F80
1B80
1980
39C0
39C0
3FC0
7FE0
70E0
70E0
E070
ENDCHAR
STARTCHAR uni1EA7
ENCODING 7847
SWIDTH 600 0
DWIDTH 12 0
BBX 10 16 1 0
BITMAP
C000
C000
6E00
1F00
3100
0000
3F00
7F80
6380
01C0
1FC0
7FC0
F1C0
E3C0
7FC0
7DC0
ENDCHAR
STARTCHAR uni1EA8
ENCODING 7848
SWIDTH 600 0
DWIDTH 12 0
BBX 12 18 0 0
BITMAP
00E0
0F60
1FE0
1980
0000
0F00
0F00
1F80
1F80
1B80
1980
39C0
39C0
3FC0
7FE0
70E0
70E0
E070
ENDCHAR
STARTCHAR uni1EA9
ENCODING 7849
SWIDTH 600 0
DWIDTH 12 0
BBX 10 16 1 0
BITMAP
01C0
0040
0EC0
1F00
3100
0000
3F00
7F80
6380
01C0
1FC0
7FC0
F1C0
E3C0
7FC0
7DC0
ENDCHAR
STARTCHAR uni1EAA
ENCODING 7850
SWIDTH 600 0
DWIDTH 12 0
BBX 12 20 0 0
BITMAP
1C80
1F80
1300
0F00
1F80
1980
0000
0F00
0F00
1F80
1F80
1B80
1980
39C0
39C0
3FC0
7FE0
70E0
70E0
E070
ENDCHAR
STARTCHAR uni1EAB
ENCODING 7851
SWIDTH 600 0
DWIDTH 12 0
BBX 10 17 1 0
BITMAP
1D00
1F00
3700
0E00
1F00
3100
0000
3F00
7F80
6380
01C0
1FC0
7FC0
F1C0
E3C0
7FC0
7DC0
ENDCHAR
STARTCHAR uni1EAC
ENCODING 7852
SWIDTH 600 0
DWIDTH 12 0
BBX 12 22 0 -5
BITMAP
0F00
1F80
1080
0000
0F00
0F00
1F80
1F80
1B80
1980
39C0
39C0
3FC0
7FE0
70E0
70E0
E070
0000
0600
0F00
0F00
0600
ENDCHAR
STARTCHAR uni1EAD
ENCODING 7853
SWIDTH 600 0
DWIDTH 12 0
BBX 10 20 1 -5
BITMAP
0E00
1F00
3B80
2100
0000
3F00
7F80
6380
01C0
1FC0
7FC0
F1C0
E3C0
7FC0
7DC0
0000
0C00
1E00
1E00
0C00
ENDCHAR
STARTCHAR uni1EAE
ENCODING 7854
SWIDTH 600 0
DWIDTH 12 0
BBX 12 21 0 0
BITMAP
0300
0380
0700
0200
1980
1F80
0F00
0000
0F00
0F00
1F80
1F80
1B80
1980
39C0
39C0
3FC0
7FE0
70E0
70E0
E070
ENDCHAR
STARTCHAR uni1EAF
ENCODING 7855
SWIDTH 600 0
DWIDTH 12 0
BBX 10 18 1 0
BITMAP
0200
0700
0600
0C00
3180
3F00
1E00
0000
3F00
7F80
6380
01C0
1FC0
7FC0
F1C0
E3C0
7FC0
7DC0
ENDCHAR
STARTCHAR uni1EB0
ENCODING 7856
SWIDTH 600 0
DWIDTH 12 0
BBX 12 21 0 0
BITMAP
0C00
1C00
0E00
0400
1980
1F80
0F00
0000
0F00
0F00
1F80
1F80
1B80
1980
39C0
39C0
3FC0
7FE0
70E0
70E0
E070
ENDCHAR
STARTCHAR uni1EB1
ENCODING 7857
SWIDTH 600 0
DWIDTH 12 0
BBX 10 18 1 0
BITMAP
0800
1C00
0C00
0600
3180
3F00
1E00
0000
3F00
7F80
6380
01C0
1FC0
7FC0
F1C0
E3C0
7FC0
7DC0
ENDCHAR
STARTCHAR uni1EB2
ENCODING 7858
SWIDTH 600 0
DWIDTH 12 0
BBX 12 20 0 0
BITMAP
0600
0B00
0600
1980
1F80
0F00
0000
0F00
0F00
1F80
1F80
1B80
1980
39C0
39C0
3FC0
7FE0
70E0
70E0
E070
ENDCHAR
STARTCHAR uni1EB3
ENCODING 7859
SWIDTH 600 0
DWIDTH 12 0
BBX 10 18 1 0
BITMAP
0C00
0E00
0600
0400
3180
3F00
1E00
0000
3F00
7F80
6380
01C0
1FC0
7FC0
F1C0
E3C0
7FC0
7DC0
ENDCHAR
STARTCHAR uni1EB4
ENCODING 7860
SWIDTH 600 0
DWIDTH 12 0
BBX 12 20 0 0
BITMAP
1C80
1F80
1300
0000
1980
0F00
0000
0F00
0F00
1F80
1F80
1B80
1980
39C0
39C0
3FC0
7FE0
70E0
70E0
E070
ENDCHAR
STARTCHAR uni1EB5
ENCODING 7861
SWIDTH 600 0
DWIDTH 12 0
BBX 10 17 1 0
BITMAP
1D80
3F00
3700
3100
1F00
0000
0000
3F00
7F80
6380
01C0
1FC0
7FC0
F1C0
E3C0
7FC0
7DC0
ENDCHAR
STARTCHAR uni1EB6
ENCODING 7862
SWIDTH 600 0
DWIDTH 12 0
BBX 12 22 0 -5
BITMAP
1980
1F80
0F00
0000
0F00
0F00
1F80
1F80
1B80
1980
39C0
39C0
3FC0
7FE0
70E0
70E0
E070
0000
0600
0F00
0F00
0600
ENDCHAR
STARTCHAR uni1EB7
ENCODING 7863
SWIDTH 600 0
DWIDTH 12 0
BBX 10 19 1 -5
BITMAP
3180
3F00
1E00
0000
3F00
7F80
6380
01C0
1FC0
7FC0
F1C0
E3C0
7FC0
7DC0
0000
0C00
1E00
1E00
0C00
ENDCHAR
STARTCHAR uni1EB8
ENCODING 7864
SWIDTH 600 0
DWIDTH 12 0
BBX 9 18 2 -5
BITMAP
FF00
FF00
E000
E000
E000
E000
FF00
FF00
E000
E000
E000
FF80
FF80
0000
1C00
1C00
1C00
1C00
ENDCHAR
STARTCHAR uni1EB9
ENCODING 7865
SWIDTH 600 0
DWIDTH 12 0
BBX 10 15 1 -5
BITMAP
1F00
7F80
71C0
E1C0
FFC0
FFC0
E000
7080
7F80
1F40
0000
0E00
1E00
1E00
0E00
ENDCHAR
STARTCHAR uni1EBA
ENCODING 7866
SWIDTH 600 0
DWIDTH 12 0
BBX 9 17 2 0
BITMAP
1C00
0C00
1C00
0000
FF00
FF00
E000
E000
E000
E000
FF00
FF00
E000
E000
E000
FF80
FF80
ENDCHAR
STARTCHAR uni1EBB
ENCODING 7867
SWIDTH 600 0
DWIDTH 12 0
BBX 10 16 1 0
BITMAP
0C00
1E00
0600
0600
0C00
0000
1F00
7F80
71C0
E1C0
FFC0
FFC0
E000
7080
7F80
1F40
ENDCHAR
STARTCHAR uni1EBC
ENCODING 7868
SWIDTH 600 0
DWIDTH 12 0
BBX 9 17 2 0
BITMAP
7B00
7F00
4E00
8000
FF00
FF00
E000
E000
E000
E000
FF00
FF00
E000
E000
E000
FF80
FF80
ENDCHAR
STARTCHAR uni1EBD
ENCODING 7869
SWIDTH 600 0
DWIDTH 12 0
BBX 10 14 1 0
BITMAP
3D80
3F80
6700
0000
1F00
7F80
71C0
E1C0
FFC0
FFC0
E000
7080
7F80
1F40
ENDCHAR
STARTCHAR uni1EBE
ENCODING 7870
SWIDTH 600 0
DWIDTH 12 0
BBX 10 18 2 0
BITMAP
0080
1DC0
3700
6200
0000
FF00
FF00
E000
E000
E000
E000
FF00
FF00
E000
E000
E000
FF80
FF80
ENDCHAR
STARTCHAR uni1EBF
ENCODING 7871
SWIDTH 600 0
DWIDTH 12 0
BBX 11 16 1 0
BITMAP
0040
00E0
0E80
1F00
3100
0000
1F00
7F80
71C0
E1C0
FFC0
FFC0
E000
7080
7F80
1F40
ENDCHAR
STARTCHAR uni1EC0
ENCODING 7872
SWIDTH 600 0
DWIDTH 12 0
BBX 10 18 1 0
BITMAP
4000
EE00
3B00
1180
0000
7F80
7F80
7000
7000
7000
7000
7F80
7F80
7000
7000
7000
7FC0
7FC0
ENDCHAR
STARTCHAR uni1EC1
ENCODING 7873
SWIDTH 600 0
DWIDTH 12 0
BBX 10 16 1 0
BITMAP
C000
C000
6E00
1F00
3100
0000
1F00
7F80
71C0
E1C0
FFC0
FFC0
E000
7080
7F80
1F40
ENDCHAR
STARTCHAR uni1EC2
ENCODING 7874
SWIDTH 600 0
DWIDTH 12 0
BBX 10 18 2 0
BITMAP
0380
1CC0
3780
6200
0000
FF00
FF00
E000
E000
E000
E000
FF00
FF00
E000
E000
E000
FF80
FF80
ENDCHAR
STARTCHAR uni1EC3
ENCODING 7875
SWIDTH 600 0
DWIDTH 12 0
BBX 10 16 1 0
BITMAP
01C0
00C0
0EC0
1F00
3100
0000
1F00
7F80
71C0
E1C0
FFC0
FFC0
E000
7080
7F80
1F40
ENDCHAR
STARTCHAR uni1EC4
ENCODING 7876
SWIDTH 600 0
DWIDTH 12 0
BBX 9 20 2 0
BITMAP
3B00
3E00
6E00
1C00
3E00
6300
0000
FF00
FF00
E000
E000
E000
E000
FF00
FF00
E000
E000
E000
FF80
FF80
ENDCHAR
STARTCHAR uni1EC5
ENCODING 7877
SWIDTH 600 0
DWIDTH 12 0
BBX 10 17 1 0
BITMAP
1900
3F00
3600
0E00
1F00
3300
0000
1F00
7F80
71C0
E1C0
FFC0
FFC0
E000
7080
7F80
1F40
ENDCHAR
STARTCHAR uni1EC6
ENCODING 7878
SWIDTH 600 0
DWIDTH 12 0
BBX 9 22 2 -5
BITMAP
3C00
3600
6300
0000
FF00
FF00
E000
E000
E000
E000
FF00
FF00
E000
E000
E000
FF80
FF80
0000
1C00
1C00
1C00
1C00
ENDCHAR
STARTCHAR uni1EC7
ENCODING 7879
SWIDTH 600 0
DWIDTH 12 0
BBX 10 20 1 -5
BITMAP
1E00
1F00
3B80
2100
0000
1F00
7F80
71C0
E1C0
FFC0
FFC0
E000
7080
7F80
1F40
0000
0E00
1E00
1E00
0E00
ENDCHAR
STARTCHAR uni1EC8
ENCODING 7880
SWIDTH 600 0
DWIDTH 12 0
BBX 10 17 1 0
BITMAP
1C00
0600
0C00
0000
FFC0
FFC0
0C00
0C00
0C00
0C00
0C00
0C00
0C00
0C00
0C00
FFC0
FFC0
ENDCHAR
STARTCHAR uni1EC9
ENCODING 7881
SWIDTH 600 0
DWIDTH 12 0
BBX 7 16 2 0
BITMAP
1C
1E
06
06
0C
00
FE
FE
0E
0E
0E
0E
0E
0E
0E
0E
ENDCHAR
STARTCHAR uni1ECA
ENCODING 7882
SWIDTH 600 0
DWIDTH 12 0
BBX 10 18 1 -5
BITMAP
FFC0
FFC0
0C00
0C00
0C00
0C00
0C00
0C00
0C00
0C00
0C00
FFC0
FFC0
0000
0C00
1E00
1E00
0C00
ENDCHAR
STARTCHAR uni1ECB
ENCODING 7883
SWIDTH 600 0
DWIDTH 12 0
BBX 7 20 2 -5
BITMAP
0C
1E
1E
0C
00
FE
FE
0E
0E
0E
0E
0E
0E
0E
0E
00
0C
1E
1E
0C
ENDCHAR
STARTCHAR uni1ECC
ENCODING 7884
SWIDTH 600 0
DWIDTH 12 0
BBX 10 18 1 -5
BITMAP
1E00
7F80
7380
E1C0
E1C0
E1C0
E1C0
E1C0
E1C0
E1C0
7380
7F80
1E00
0000
0C00
1E00
1E00
0C00
ENDCHAR
STARTCHAR uni1ECD
ENCODING 7885
SWIDTH 600 0
DWIDTH 12 0
BBX 10 15 1 -5
BITMAP
1E00
7F80
7380
E1C0
E1C0
E1C0
E1C0
7380
7F80
1E00
0000
0C00
1E00
1E00
0C00
ENDCHAR
STARTCHAR uni1ECE
ENCODING 7886
SWIDTH 600 0
DWIDTH 12 0
BBX 10 17 1 0
BITMAP
1C00
0600
0C00
0000
1E00
7F80
7380
E1C0
E1C0
E1C0
E1C0
E1C0
E1C0
E1C0
7380
7F80
1E00
ENDCHAR
STARTCHAR uni1ECF
ENCODING 7887
SWIDTH 600 0
DWIDTH 12 0
BBX 10 16 1 0
BITMAP
1C00
1E00
0600
0600
0C00
0000
1E00
7F80
7380
E1C0
E1C0
E1C0
E1C0
7380
7F80
1E00
ENDCHAR
STARTCHAR uni1ED0
ENCODING 7888
SWIDTH 600 0
DWIDTH 12 0
BBX 10 18 1 0
BITMAP
0040
1EC0
3F80
3300
0000
1E00
7F80
7380
E1C0
E1C0
E1C0
E1C0
E1C0
E1C0
E1C0
7380
7F80
1E00
ENDCHAR
STARTCHAR uni1ED1
ENCODING 7889
SWIDTH 600 0
DWIDTH 12 0
BBX 11 16 1 0
BITMAP
0040
00E0
1F80
3F00
3300
0000
1E00
7F80
7380
E1C0
E1C0
E1C0
E1C0
7380
7F80
1E00
ENDCHAR
STARTCHAR uni1ED2
ENCODING 7890
SWIDTH 600 0
DWIDTH 12 0
BBX 10 18 1 0
BITMAP
8000
DE00
7F00
3300
0000
1E00
7F80
7380
E1C0
E1C0
E1C0
E1C0
E1C0
E1C0
E1C0
7380
7F80
1E00
ENDCHAR
STARTCHAR uni1ED3
ENCODING 7891
SWIDTH 600 0
DWIDTH 12 0
BBX 11 16 0 0
BITMAP
4000
E000
3F00
1F80
1980
0000
0F00
3FC0
39C0
70E0
70E0
70E0
70E0
39C0
3FC0
0F00
ENDCHAR
STARTCHAR uni1ED4
ENCODING 7892
SWIDTH 600 0
DWIDTH 12 0
BBX 10 18 1 0
BITMAP
01C0
1EC0
3FC0
3300
0000
1E00
7F80
7380
E1C0
E1C0
E1C0
E1C0
E1C0
E1C0
E1C0
7380
7F80
1E00
ENDCHAR
STARTCHAR uni1ED5
ENCODING 7893
SWIDTH 600 0
DWIDTH 12 0
BBX 10 16 1 0
BITMAP
01C0
00C0
1E80
3F00
3300
0000
1E00
7F80
7380
E1C0
E1C0
E1C0
E1C0
7380
7F80
1E00
ENDCHAR
STARTCHAR uni1ED6
ENCODING 7894
SWIDTH 600 0
DWIDTH 12 0
BBX 10 20 1 0
BITMAP
3900
3F00
2600
1E00
3F00
3300
0000
1E00
7F80
7380
E1C0
E1C0
E1C0
E1C0
E1C0
E1C0
E1C0
7380
7F80
1E00
ENDCHAR
STARTCHAR uni1ED7
ENCODING 7895
SWIDTH 600 0
DWIDTH 12 0
BBX 10 17 1 0
BITMAP
1B00
3F00
2600
1E00
3F00
1200
0000
1E00
7F80
7380
E1C0
E1C0
E1C0
E1C0
7380
7F80
1E00
ENDCHAR
STARTCHAR uni1ED8
ENCODING 7896
SWIDTH 600 0
DWIDTH 12 0
BBX 10 22 1 -5
BITMAP
1E00
3F00
2100
0000
1E00
7F80
7380
E1C0
E1C0
E1C0
E1C0
E1C0
E1C0
E1C0
7380
7F80
1E00
0000
0C00
1E00
1E00
0C00
ENDCHAR
STARTCHAR uni1ED9
ENCODING 7897
SWIDTH 600 0
DWIDTH 12 0
BBX 10 20 1 -5
BITMAP
1E00
3F00
3300
6180
0000
1E00
7F80
7380
E1C0
E1C0
E1C0
E1C0
7380
7F80
1E00
0000
0C00
1E00
1E00
0C00
ENDCHAR
STARTCHAR uni1EDA
ENCODING 7898
SWIDTH 600 0
DWIDTH 12 0
BBX 11 18 1 0
BITMAP
0200
0F00
1E60
08E0
00E0
1FC0
7F80
7380
E1C0
E1C0
E1C0
E1C0
E1C0
E1C0
E1C0
7380
7F80
1E00
ENDCHAR
STARTCHAR uni1EDB
ENCODING 7899
SWIDTH 600 0
DWIDTH 12 0
BBX 11 16 1 0
BITMAP
0200
0700
0FE0
0EE0
18E0
00E0
1FC0
7F80
73C0
E1C0
E1C0
E1C0
E1C0
7380
7F80
1E00
ENDCHAR
STARTCHAR uni1EDC
ENCODING 7900
SWIDTH 600 0
DWIDTH 12 0
BBX 11 18 1 0
BITMAP
1000
3C00
1E60
04E0
00E0
1FC0
7F80
7380
E1C0
E1C0
E1C0
E1C0
E1C0
E1C0
E1C0
7380
7F80
1E00
ENDCHAR
STARTCHAR uni1EDD
ENCODING 7901
SWIDTH 600 0
DWIDTH 12 0
BBX 11 16 1 0
BITMAP
1000
3800
7C60
1CE0
06E0
00E0
1FC0
7F80
73C0
E1C0
E1C0
E1C0
E1C0
7380
7F80
1E00
ENDCHAR
STARTCHAR uni1EDE
ENCODING 7902
SWIDTH 600 0
DWIDTH 12 0
BBX 11 17 1 0
BITMAP
1C00
0660
0CE0
00E0
1FC0
7F80
7380
E1C0
E1C0
E1C0
E1C0
E1C0
E1C0
E1C0
7380
7F80
1E00
ENDCHAR
STARTCHAR uni1EDF
ENCODING 7903
SWIDTH 600 0
DWIDTH 12 0
BBX 11 16 1 0
BITMAP
1C00
1E00
0660
06E0
0CE0
00E0
1FC0
7F80
73C0
E1C0
E1C0
E1C0
E1C0
7380
7F80
1E00
ENDCHAR
STARTCHAR uni1EE0
ENCODING 7904
SWIDTH 600 0
DWIDTH 12 0
BBX 11 17 1 0
BITMAP
3980
7F60
6FE0
00E0
1FC0
7F80
7380
E1C0
E1C0
E1C0
E1C0
E1C0
E1C0
E1C0
7380
7F80
1E00
ENDCHAR
STARTCHAR uni1EE1
ENCODING 7905
SWIDTH 600 0
DWIDTH 12 0
BBX 11 14 1 0
BITMAP
7B60
7FE0
67E0
00E0
1FC0
7F80
73C0
E1C0
E1C0
E1C0
E1C0
7380
7F80
1E00
ENDCHAR
STARTCHAR uni1EE2
ENCODING 7906
SWIDTH 600 0
DWIDTH 12 0
BBX 11 21 1 -5
BITMAP
0060
00E0
00E0
1FC0
7F80
7380
E1C0
E1C0
E1C0
E1C0
E1C0
E1C0
E1C0
7380
7F80
1E00
0000
0C00
1E00
1E00
0C00
ENDCHAR
STARTCHAR uni1EE3
ENCODING 7907
SWIDTH 600 0
DWIDTH 12 0
BBX 11 19 1 -5
BITMAP
0060
00E0
00E0
00E0
1FC0
7F80
73C0
E1C0
E1C0
E1C0
E1C0
7380
7F80
1E00
0000
0C00
1E00
1E00
0C00
ENDCHAR
STARTCHAR uni1EE4
ENCODING 7908
SWIDTH 600 0
DWIDTH 12 0
BBX 10 18 1 -5
BITMAP
E1C0
E1C0
E1C0
E1C0
E1C0
E1C0
E1C0
E1C0
E1C0
E1C0
7380
7F80
1F00
0000
0C00
1E00
1E00
0C00
ENDCHAR
STARTCHAR uni1EE5
ENCODING 7909
SWIDTH 600 0
DWIDTH 12 0
BBX 10 15 1 -5
BITMAP
E1C0
E1C0
E1C0
E1C0
E1C0
E1C0
E3C0
E3C0
7FC0
39C0
0000
0E00
1E00
1E00
0E00
ENDCHAR
STARTCHAR uni1EE6
ENCODING 7910
SWIDTH 600 0
DWIDTH 12 0
BBX 10 17 1 0
BITMAP
1C00
0600
0C00
0000
E1C0
E1C0
E1C0
E1C0
E1C0
E1C0
E1C0
E1C0
E1C0
E1C0
7380
7F80
1F00
ENDCHAR
STARTCHAR uni1EE7
ENCODING 7911
SWIDTH 600 0
DWIDTH 12 0
BBX 10 16 1 0
BITMAP
1C00
1E00
0600
0600
0C00
0000
E1C0
E1C0
E1C0
E1C0
E1C0
E1C0
E3C0
E3C0
7FC0
39C0
ENDCHAR
STARTCHAR uni1EE8
ENCODING 7912
SWIDTH 600 0
DWIDTH 12 0
BBX 12 18 1 0
BITMAP
0200
0F30
1E70
0830
0070
E1E0
E1C0
E1C0
E1C0
E1C0
E1C0
E1C0
E1C0
E1C0
E1C0
7380
7F80
1E00
ENDCHAR
STARTCHAR uni1EE9
ENCODING 7913
SWIDTH 600 0
DWIDTH 12 0
BBX 11 16 1 0
BITMAP
0200
0700
0F20
1E60
0860
0060
E1C0
E1C0
E1C0
E1C0
E1C0
E1C0
E3C0
E3C0
7FC0
39C0
ENDCHAR
STARTCHAR uni1EEA
ENCODING 7914
SWIDTH 600 0
DWIDTH 12 0
BBX 12 18 1 0
BITMAP
1000
3C30
1E70
0430
0070
E1E0
E1C0
E1C0
E1C0
E1C0
E1C0
E1C0
E1C0
E1C0
E1C0
7380
7F80
1E00
ENDCHAR
STARTCHAR uni1EEB
ENCODING 7915
SWIDTH 600 0
DWIDTH 12 0
BBX 11 16 1 0
BITMAP
1000
3800
7C20
1C60
0E60
0060
E1C0
E1C0
E1C0
E1C0
E1C0
E1C0
E3C0
E3C0
7FC0
39C0
ENDCHAR
STARTCHAR uni1EEC
ENCODING 7916
SWIDTH 600 0
DWIDTH 12 0
BBX 12 17 1 0
BITMAP
1C30
0670
0C30
0070
E1E0
E1C0
E1C0
E1C0
E1C0
E1C0
E1C0
E1C0
E1C0
E1C0
7380
7F80
1E00
ENDCHAR
STARTCHAR uni1EED
ENCODING 7917
SWIDTH 600 0
DWIDTH 12 0
BBX 11 16 1 0
BITMAP
1C00
1E00
0620
0660
0C60
0060
E1C0
E1C0
E1C0
E1C0
E1C0
E1C0
E3C0
E3C0
7FC0
39C0
ENDCHAR
STARTCHAR uni1EEE
ENCODING 7918
SWIDTH 600 0
DWIDTH 12 0
BBX 12 17 1 0
BITMAP
39B0
7FF0
6730
0070
E1E0
E1C0
E1C0
E1C0
E1C0
E1C0
E1C0
E1C0
E1C0
E1C0
7380
7F80
1E00
ENDCHAR
STARTCHAR uni1EEF
ENCODING 7919
SWIDTH 600 0
DWIDTH 12 0
BBX 11 14 1 0
BITMAP
7B20
7F60
6660
0060
E1C0
E1C0
E1C0
E1C0
E1C0
E1C0
E3C0
E3C0
7FC0
39C0
ENDCHAR
STARTCHAR uni1EF0
ENCODING 7920
SWIDTH 600 0
DWIDTH 12 0
BBX 12 22 1 -5
BITMAP
0030
0070
0030
0070
E1E0
E1C0
E1C0
E1C0
E1C0
E1C0
E1C0
E1C0
E1C0
E1C0
7380
7F80
1E00
0000
0C00
1E00
1E00
0C00
ENDCHAR
STARTCHAR uni1EF1
ENCODING 7921
SWIDTH 600 0
DWIDTH 12 0
BBX 11 19 1 -5
BITMAP
0020
0060
0060
0060
E1C0
E1C0
E1C0
E1C0
E1C0
E1C0
E3C0
E3C0
7FC0
39C0
0000
0E00
1E00
1E00
0E00
ENDCHAR
STARTCHAR Ygrave
ENCODING 7922
SWIDTH 600 0
DWIDTH 12 0
BBX 12 18 0 0
BITMAP
0800
1E00
0F00
0200
0000
F0F0
70E0
38C0
39C0
1980
1F80
1F80
0F00
0F00
0600
0600
0600
0600
ENDCHAR
STARTCHAR ygrave
ENCODING 7923
SWIDTH 600 0
DWIDTH 12 0
BBX 10 20 1 -4
BITMAP
1000
3800
3C00
0E00
0400
0000
E1C0
E1C0
7180
7380
3380
3B00
1B00
1F00
0E00
0E00
0C00
1C00
7800
F000
ENDCHAR
STARTCHAR uni1EF4
ENCODING 7924
SWIDTH 600 0
DWIDTH 12 0
BBX 12 18 0 -5
BITMAP
F0F0
70E0
38C0
39C0
1980
1F80
1F80
0F00
0F00
0600
0600
0600
0600
0000
0600
0F00
0F00
0600
ENDCHAR
STARTCHAR uni1EF5
ENCODING 7925
SWIDTH 600 0
DWIDTH 12 0
BBX 11 15 1 -5
BITMAP
E1C0
E1C0
7180
7380
3380
3B00
1B00
1F00
0E00
0E00
0C00
1DC0
79E0
F1E0
01C0
ENDCHAR
STARTCHAR uni1EF6
ENCODING 7926
SWIDTH 600 0
DWIDTH 12 0
BBX 12 17 0 0
BITMAP
0E00
0300
0600
0000
F0F0
70E0
38C0
39C0
1980
1F80
1F80
0F00
0F00
0600
0600
0600
0600
ENDCHAR
STARTCHAR uni1EF7
ENCODING 7927
SWIDTH 600 0
DWIDTH 12 0
BBX 10 20 1 -4
BITMAP
1C00
1E00
0600
0600
0C00
0000
E1C0
E1C0
7180
7380
3380
3B00
1B00
1F00
0E00
0E00
0C00
1C00
7800
F000
ENDCHAR
STARTCHAR uni1EF8
ENCODING 7928
SWIDTH 600 0
DWIDTH 12 0
BBX 12 17 0 0
BITMAP
1CC0
3FC0
3380
0000
F0F0
70E0
38C0
39C0
1980
1F80
1F80
0F00
0F00
0600
0600
0600
0600
ENDCHAR
STARTCHAR uni1EF9
ENCODING 7929
SWIDTH 600 0
DWIDTH 12 0
BBX 10 18 1 -4
BITMAP
3D80
3F80
6700
0000
E1C0
E1C0
7180
7380
3380
3B00
1B00
1F00
0E00
0E00
0C00
1C00
7800
F000
ENDCHAR
STARTCHAR uni1FBD
ENCODING 8125
SWIDTH 600 0
DWIDTH 12 0
BBX 4 5 4 11
BITMAP
E0
F0
30
30
60
ENDCHAR
STARTCHAR uni1FBE
ENCODING 8126
SWIDTH 600 0
DWIDTH 12 0
BBX 5 8 4 0
BITMAP
E0
E0
E0
E0
E0
E0
78
78
ENDCHAR
STARTCHAR uni1FBF
ENCODING 8127
SWIDTH 600 0
DWIDTH 12 0
BBX 4 5 4 11
BITMAP
E0
F0
30
30
60
ENDCHAR
STARTCHAR uni1FC0
ENCODING 8128
SWIDTH 600 0
DWIDTH 12 0
BBX 8 3 2 11
BITMAP
73
FF
CE
ENDCHAR
STARTCHAR uni1FC1
ENCODING 8129
SWIDTH 600 0
DWIDTH 12 0
BBX 6 6 3 12
BITMAP
64
FC
9C
00
CC
CC
ENDCHAR
STARTCHAR uni1FCD
ENCODING 8141
SWIDTH 600 0
DWIDTH 12 0
BBX 7 4 2 12
BITMAP
EC
EE
26
66
ENDCHAR
STARTCHAR uni1FCE
ENCODING 8142
SWIDTH 600 0
DWIDTH 12 0
BBX 7 4 2 12
BITMAP
E6
E6
2C
6C
ENDCHAR
STARTCHAR uni1FCF
ENCODING 8143
SWIDTH 600 0
DWIDTH 12 0
BBX 6 6 3 11
BITMAP
EC
FC
98
30
58
30
ENDCHAR
STARTCHAR uni1FDD
ENCODING 8157
SWIDTH 600 0
DWIDTH 12 0
BBX 7 4 2 12
BITMAP
6C
EE
C6
66
ENDCHAR
STARTCHAR uni1FDE
ENCODING 8158
SWIDTH 600 0
DWIDTH 12 0
BBX 7 4 2 12
BITMAP
76
F6
CC
6C
ENDCHAR
STARTCHAR uni1FDF
ENCODING 8159
SWIDTH 600 0
DWIDTH 12 0
BBX 6 6 3 11
BITMAP
EC
FC
98
30
68
30
ENDCHAR
STARTCHAR uni1FED
ENCODING 8173
SWIDTH 600 0
DWIDTH 12 0
BBX 8 5 2 11
BITMAP
30
18
DB
DB
08
ENDCHAR
STARTCHAR uni1FEE
ENCODING 8174
SWIDTH 600 0
DWIDTH 12 0
BBX 8 5 2 11
BITMAP
0C
18
DB
DB
10
ENDCHAR
STARTCHAR uni1FEF
ENCODING 8175
SWIDTH 600 0
DWIDTH 12 0
BBX 3 5 4 11
BITMAP
C0
E0
E0
60
60
ENDCHAR
STARTCHAR uni1FFD
ENCODING 8189
SWIDTH 600 0
DWIDTH 12 0
BBX 3 5 5 11
BITMAP
60
E0
E0
C0
C0
ENDCHAR
STARTCHAR uni1FFE
ENCODING 8190
SWIDTH 600 0
DWIDTH 12 0
BBX 4 5 4 11
BITMAP
70
F0
C0
C0
60
ENDCHAR
STARTCHAR uni2007
ENCODING 8199
SWIDTH 600 0
DWIDTH 12 0
BBX 1 1 0 0
BITMAP
00
ENDCHAR
STARTCHAR uni2010
ENCODING 8208
SWIDTH 600 0
DWIDTH 12 0
BBX 10 2 1 6
BITMAP
FFC0
FFC0
ENDCHAR
STARTCHAR figuredash
ENCODING 8210
SWIDTH 600 0
DWIDTH 12 0
BBX 8 2 2 4
BITMAP
FF
FF
ENDCHAR
STARTCHAR endash
ENCODING 8211
SWIDTH 600 0
DWIDTH 12 0
BBX 8 2 2 4
BITMAP
FF
FF
ENDCHAR
STARTCHAR emdash
ENCODING 8212
SWIDTH 600 0
DWIDTH 12 0
BBX 12 2 0 4
BITMAP
FFF0
FFF0
ENDCHAR
STARTCHAR uni2015
ENCODING 8213
SWIDTH 600 0
DWIDTH 12 0
BBX 12 2 0 4
BITMAP
FFF0
FFF0
ENDCHAR
STARTCHAR uni2016
ENCODING 8214
SWIDTH 600 0
DWIDTH 12 0
BBX 8 20 2 -5
BITMAP
E7
E7
E7
E7
E7
E7
E7
E7
E7
E7
E7
E7
E7
E7
E7
E7
E7
E7
E7
E7
ENDCHAR
STARTCHAR underscoredbl
ENCODING 8215
SWIDTH 600 0
DWIDTH 12 0
BBX 10 5 1 -6
BITMAP
FFC0
FFC0
0000
FFC0
FFC0
ENDCHAR
STARTCHAR quoteleft
ENCODING 8216
SWIDTH 600 0
DWIDTH 12 0
BBX 4 8 4 6
BITMAP
30
60
C0
C0
E0
F0
F0
60
ENDCHAR
STARTCHAR quoteright
ENCODING 8217
SWIDTH 600 0
DWIDTH 12 0
BBX 4 8 4 6
BITMAP
60
F0
F0
70
30
30
E0
C0
ENDCHAR
STARTCHAR quotesinglbase
ENCODING 8218
SWIDTH 600 0
DWIDTH 12 0
BBX 4 8 4 -4
BITMAP
60
F0
F0
70
30
30
E0
C0
ENDCHAR
STARTCHAR quotereversed
ENCODING 8219
SWIDTH 600 0
DWIDTH 12 0
BBX 4 8 4 6
BITMAP
60
F0
F0
E0
C0
C0
70
30
ENDCHAR
STARTCHAR quotedblleft
ENCODING 8220
SWIDTH 600 0
DWIDTH 12 0
BBX 10 8 1 6
BITMAP
3180
73C0
E300
C600
F780
F7C0
F3C0
7380
ENDCHAR
STARTCHAR quotedblright
ENCODING 8221
SWIDTH 600 0
DWIDTH 12 0
BBX 10 8 1 6
BITMAP
7380
F3C0
FBC0
7BC0
18C0
31C0
7380
E300
ENDCHAR
STARTCHAR quotedblbase
ENCODING 8222
SWIDTH 600 0
DWIDTH 12 0
BBX 10 8 1 -4
BITMAP
7380
F3C0
FBC0
7BC0
18C0
31C0
7380
E300
ENDCHAR
STARTCHAR dagger
ENCODING 8224
SWIDTH 600 0
DWIDTH 12 0
BBX 8 15 2 -1
BITMAP
18
18
18
FF
FF
18
18
18
18
18
18
18
18
18
18
ENDCHAR
STARTCHAR daggerdbl
ENCODING 8225
SWIDTH 600 0
DWIDTH 12 0
BBX 8 15 2 -1
BITMAP
18
18
18
FF
FF
18
18
18
18
18
FF
FF
18
18
18
ENDCHAR
STARTCHAR bullet
ENCODING 8226
SWIDTH 600 0
DWIDTH 12 0
BBX 6 6 3 2
BITMAP
78
FC
FC
FC
FC
78
ENDCHAR
STARTCHAR ellipsis
ENCODING 8230
SWIDTH 600 0
DWIDTH 12 0
BBX 12 4 0 0
BITMAP
6660
FFF0
FFF0
6660
ENDCHAR
STARTCHAR uni202F
ENCODING 8239
SWIDTH 600 0
DWIDTH 12 0
BBX 1 1 0 0
BITMAP
00
ENDCHAR
STARTCHAR perthousand
ENCODING 8240
SWIDTH 600 0
DWIDTH 12 0
BBX 11 13 1 0
BITMAP
7000
F000
9800
98C0
F3E0
7F00
7800
8000
73C0
FFC0
9E40
FFC0
7380
ENDCHAR
STARTCHAR uni2032
ENCODING 8242
SWIDTH 600 0
DWIDTH 12 0
BBX 3 7 5 7
BITMAP
E0
E0
E0
C0
C0
C0
C0
ENDCHAR
STARTCHAR uni2033
ENCODING 8243
SWIDTH 600 0
DWIDTH 12 0
BBX 8 7 2 7
BITMAP
77
67
67
E7
E6
E6
C6
ENDCHAR
STARTCHAR uni2035
ENCODING 8245
SWIDTH 600 0
DWIDTH 12 0
BBX 3 7 4 7
BITMAP
E0
E0
E0
60
60
60
60
ENDCHAR
STARTCHAR guilsinglleft
ENCODING 8249
SWIDTH 600 0
DWIDTH 12 0
BBX 5 9 3 1
BITMAP
10
38
70
E0
E0
E0
70
38
10
ENDCHAR
STARTCHAR guilsinglright
ENCODING 8250
SWIDTH 600 0
DWIDTH 12 0
BBX 5 9 4 1
BITMAP
40
E0
70
38
38
38
70
E0
40
ENDCHAR
STARTCHAR exclamdbl
ENCODING 8252
SWIDTH 600 0
DWIDTH 12 0
BBX 10 13 1 0
BITMAP
7380
7380
7380
7380
6380
6180
6180
6180
0000
7380
F3C0
F3C0
7380
ENDCHAR
STARTCHAR uni203D
ENCODING 8253
SWIDTH 600 0
DWIDTH 12 0
BBX 9 13 1 0
BITMAP
3E00
7F80
E380
1980
1B00
1E00
0C00
0000
0000
1C00
1C00
1C00
1C00
ENDCHAR
STARTCHAR uni203E
ENCODING 8254
SWIDTH 600 0
DWIDTH 12 0
BBX 10 2 1 11
BITMAP
FFC0
FFC0
ENDCHAR
STARTCHAR uni203F
ENCODING 8255
SWIDTH 600 0
DWIDTH 12 0
BBX 18 4 -3 -5
BITMAP
800040
F003C0
3FFF00
07F800
ENDCHAR
STARTCHAR fraction
ENCODING 8260
SWIDTH 600 0
DWIDTH 12 0
BBX 12 12 0 1
BITMAP
0020
0070
00E0
0180
0100
0000
0000
0800
1800
7000
E000
4000
ENDCHAR
STARTCHAR uni2047
ENCODING 8263
SWIDTH 600 0
DWIDTH 12 0
BBX 12 13 0 0
BITMAP
7BC0
FFE0
1C70
1C60
18E0
38C0
31C0
71C0
0000
31C0
79C0
79E0
31C0
ENDCHAR
STARTCHAR uni2048
ENCODING 8264
SWIDTH 600 0
DWIDTH 12 0
BBX 11 13 0 0
BITMAP
79C0
FDC0
1DC0
1CC0
18C0
38C0
30C0
70C0
0000
31C0
79E0
79E0
31C0
ENDCHAR
STARTCHAR uni2049
ENCODING 8265
SWIDTH 600 0
DWIDTH 12 0
BBX 11 13 1 0
BITMAP
7780
77C0
70E0
60C0
61C0
6180
6380
6380
0000
7380
F380
F3C0
7380
ENDCHAR
STARTCHAR zero.sups
ENCODING 8304
SWIDTH 600 0
DWIDTH 12 0
BBX 6 8 3 7
BITMAP
78
FC
CC
CC
CC
CC
FC
78
ENDCHAR
STARTCHAR i.sups
ENCODING 8305
SWIDTH 600 0
DWIDTH 12 0
BBX 5 10 3 7
BITMAP
18
18
00
F8
F8
18
18
18
18
18
ENDCHAR
STARTCHAR four.sups
ENCODING 8308
SWIDTH 600 0
DWIDTH 12 0
BBX 7 8 3 7
BITMAP
30
20
6C
CC
FE
FE
0C
0C
ENDCHAR
STARTCHAR five.sups
ENCODING 8309
SWIDTH 600 0
DWIDTH 12 0
BBX 6 8 3 7
BITMAP
7C
7C
78
FC
0C
8C
FC
78
ENDCHAR
STARTCHAR six.sups
ENCODING 8310
SWIDTH 600 0
DWIDTH 12 0
BBX 6 8 3 7
BITMAP
38
FC
C8
F8
FC
CC
FC
78
ENDCHAR
STARTCHAR seven.sups
ENCODING 8311
SWIDTH 600 0
DWIDTH 12 0
BBX 6 8 3 7
BITMAP
FC
FC
08
18
30
30
30
30
ENDCHAR
STARTCHAR eight.sups
ENCODING 8312
SWIDTH 600 0
DWIDTH 12 0
BBX 6 9 3 7
BITMAP
78
FC
CC
CC
78
7C
CC
FC
78
ENDCHAR
STARTCHAR nine.sups
ENCODING 8313
SWIDTH 600 0
DWIDTH 12 0
BBX 6 8 3 7
BITMAP
78
FC
CC
FC
7C
8C
FC
70
ENDCHAR
STARTCHAR parenleft.sups
ENCODING 8317
SWIDTH 600 0
DWIDTH 12 0
BBX 4 11 4 6
BITMAP
30
70
60
60
C0
C0
C0
60
60
70
30
ENDCHAR
STARTCHAR parenright.sups
ENCODING 8318
SWIDTH 600 0
DWIDTH 12 0
BBX 4 11 4 6
BITMAP
C0
E0
60
60
30
30
30
60
60
E0
C0
ENDCHAR
STARTCHAR n.sups
ENCODING 8319
SWIDTH 600 0
DWIDTH 12 0
BBX 6 7 3 7
BITMAP
DC
FC
CC
CC
CC
CC
CC
ENDCHAR
STARTCHAR zero.subs
ENCODING 8320
SWIDTH 600 0
DWIDTH 12 0
BBX 6 8 3 -4
BITMAP
78
FC
CC
CC
CC
CC
FC
78
ENDCHAR
STARTCHAR one.subs
ENCODING 8321
SWIDTH 600 0
DWIDTH 12 0
BBX 7 8 3 -4
BITMAP
38
78
18
18
18
18
FE
FE
ENDCHAR
STARTCHAR two.subs
ENCODING 8322
SWIDTH 600 0
DWIDTH 12 0
BBX 6 8 3 -4
BITMAP
78
FC
8C
0C
18
30
FC
FC
ENDCHAR
STARTCHAR three.subs
ENCODING 8323
SWIDTH 600 0
DWIDTH 12 0
BBX 6 8 3 -4
BITMAP
78
FC
8C
38
3C
8C
FC
78
ENDCHAR
STARTCHAR four.subs
ENCODING 8324
SWIDTH 600 0
DWIDTH 12 0
BBX 7 8 3 -4
BITMAP
30
20
6C
CC
FE
FE
0C
0C
ENDCHAR
STARTCHAR five.subs
ENCODING 8325
SWIDTH 600 0
DWIDTH 12 0
BBX 6 8 3 -4
BITMAP
7C
7C
78
FC
0C
8C
FC
78
ENDCHAR
STARTCHAR six.subs
ENCODING 8326
SWIDTH 600 0
DWIDTH 12 0
BBX 6 8 3 -4
BITMAP
38
FC
C8
F8
FC
CC
FC
78
ENDCHAR
STARTCHAR seven.subs
ENCODING 8327
SWIDTH 600 0
DWIDTH 12 0
BBX 6 8 3 -4
BITMAP
FC
FC
08
18
30
30
30
30
ENDCHAR
STARTCHAR eight.subs
ENCODING 8328
SWIDTH 600 0
DWIDTH 12 0
BBX 6 9 3 -4
BITMAP
78
FC
CC
CC
78
7C
CC
FC
78
ENDCHAR
STARTCHAR nine.subs
ENCODING 8329
SWIDTH 600 0
DWIDTH 12 0
BBX 6 8 3 -4
BITMAP
78
FC
CC
FC
7C
8C
FC
70
ENDCHAR
STARTCHAR parenleft.subs
ENCODING 8333
SWIDTH 600 0
DWIDTH 12 0
BBX 4 11 4 -5
BITMAP
30
70
60
60
C0
C0
C0
60
60
70
30
ENDCHAR
STARTCHAR parenright.subs
ENCODING 8334
SWIDTH 600 0
DWIDTH 12 0
BBX 4 11 4 -5
BITMAP
C0
E0
60
60
30
30
30
60
60
E0
C0
ENDCHAR
STARTCHAR uni0259.sups
ENCODING 8340
SWIDTH 600 0
DWIDTH 12 0
BBX 6 7 3 7
BITMAP
78
FC
FC
FC
CC
FC
78
ENDCHAR
STARTCHAR colonmonetary
ENCODING 8353
SWIDTH 600 0
DWIDTH 12 0
BBX 9 17 2 -2
BITMAP
0600
0A00
1F00
7F80
7B00
EA00
EA00
EA00
EC00
F400
F400
F400
7500
7F80
1F00
1400
1C00
ENDCHAR
STARTCHAR franc
ENCODING 8355
SWIDTH 600 0
DWIDTH 12 0
BBX 10 13 1 0
BITMAP
3FC0
3FC0
3800
3800
3800
3800
3F80
3F80
3800
3800
FE00
FE00
3800
ENDCHAR
STARTCHAR lira
ENCODING 8356
SWIDTH 600 0
DWIDTH 12 0
BBX 10 13 1 0
BITMAP
0F80
1FC0
3880
3800
3000
FF00
3800
FF00
1800
3800
3000
7FC0
FFC0
ENDCHAR
STARTCHAR uni20A6
ENCODING 8358
SWIDTH 600 0
DWIDTH 12 0
BBX 10 13 1 0
BITMAP
7180
7180
7980
7980
7980
FFC0
6D80
FFC0
6780
6780
6780
6380
6380
ENDCHAR
STARTCHAR peseta
ENCODING 8359
SWIDTH 600 0
DWIDTH 12 0
BBX 12 13 0 0
BITMAP
3F00
3FC0
39C0
FFF0
FFF0
39C0
3FC0
3F00
3800
3800
3800
3800
3800
ENDCHAR
STARTCHAR uni20A9
ENCODING 8361
SWIDTH 600 0
DWIDTH 12 0
BBX 12 13 0 0
BITMAP
6060
7660
7660
7760
7760
7F60
FFF0
3FC0
3FC0
3FC0
39C0
39C0
39C0
ENDCHAR
STARTCHAR dong
ENCODING 8363
SWIDTH 600 0
DWIDTH 12 0
BBX 9 14 2 0
BITMAP
0700
3F80
3F80
0700
7F00
FF00
E700
C700
E700
FF00
7B00
0000
FF00
FF00
ENDCHAR
STARTCHAR Euro
ENCODING 8364
SWIDTH 600 0
DWIDTH 12 0
BBX 11 13 1 0
BITMAP
0F80
1FE0
3880
7000
FF80
FF80
7000
FF00
FF00
7000
38C0
1FE0
0F80
ENDCHAR
STARTCHAR uni20AE
ENCODING 8366
SWIDTH 600 0
DWIDTH 12 0
BBX 10 13 1 0
BITMAP
FFC0
FFC0
0C00
0C80
0F80
0F00
3C80
6F80
8E00
3C00
6C00
0C00
0C00
ENDCHAR
STARTCHAR uni20B1
ENCODING 8369
SWIDTH 600 0
DWIDTH 12 0
BBX 12 13 0 0
BITMAP
3F00
3F80
39C0
FFF0
38E0
FFF0
39C0
3FC0
3F00
3800
3800
3800
3800
ENDCHAR
STARTCHAR uni20B2
ENCODING 8370
SWIDTH 600 0
DWIDTH 12 0
BBX 10 17 1 -2
BITMAP
0600
0600
1F80
3FC0
7880
7000
6000
E000
E3C0
E3C0
61C0
71C0
79C0
3FC0
1F00
0600
0600
ENDCHAR
STARTCHAR uni20B4
ENCODING 8372
SWIDTH 600 0
DWIDTH 12 0
BBX 10 13 1 0
BITMAP
3E00
7F00
2300
0380
0380
FFC0
3E00
FFC0
FFC0
7000
7180
3F80
1F40
ENDCHAR
STARTCHAR uni20B5
ENCODING 8373
SWIDTH 600 0
DWIDTH 12 0
BBX 9 17 2 -2
BITMAP
0C00
0C00
1F00
7F80
7D00
EC00
EC00
EC00
EC00
EC00
EC00
EC00
7D00
7F80
1F00
0C00
0C00
ENDCHAR
STARTCHAR uni20B8
ENCODING 8376
SWIDTH 600 0
DWIDTH 12 0
BBX 10 13 1 0
BITMAP
FFC0
FFC0
0000
0000
FFC0
FFC0
0C00
0C00
0C00
0C00
0C00
0C00
0C00
ENDCHAR
STARTCHAR uni20B9
ENCODING 8377
SWIDTH 600 0
DWIDTH 12 0
BBX 8 13 2 0
BITMAP
FF
FF
0E
FF
FF
0E
1E
FC
F0
38
1C
0E
0F
ENDCHAR
STARTCHAR uni20BA
ENCODING 8378
SWIDTH 600 0
DWIDTH 12 0
BBX 11 13 0 0
BITMAP
3800
3900
3F80
3E00
7980
FF00
3C00
7820
F8E0
38E0
39C0
3FC0
3E00
ENDCHAR
STARTCHAR uni20BD
ENCODING 8381
SWIDTH 600 0
DWIDTH 12 0
BBX 11 13 0 0
BITMAP
1F80
1FE0
18E0
1860
1860
18E0
FFE0
FF80
1800
FFC0
FFC0
1800
1800
ENDCHAR
STARTCHAR uni2105
ENCODING 8453
SWIDTH 600 0
DWIDTH 12 0
BBX 12 13 0 0
BITMAP
3800
7C60
6070
E0C0
6180
7800
3DC0
03E0
1B60
3370
6360
E3E0
01C0
ENDCHAR
STARTCHAR uni2113
ENCODING 8467
SWIDTH 600 0
DWIDTH 12 0
BBX 10 14 1 0
BITMAP
0F00
1F80
1D80
1980
3980
3B80
3B00
3E00
3C00
7800
F800
1C80
1FC0
0F80
ENDCHAR
STARTCHAR uni2116
ENCODING 8470
SWIDTH 600 0
DWIDTH 12 0
BBX 14 13 -1 0
BITMAP
7300
7338
73F8
7B6C
7B6C
7B78
6B38
6F00
6F78
6F78
6700
E700
6700
ENDCHAR
STARTCHAR uni2117
ENCODING 8471
SWIDTH 600 0
DWIDTH 12 0
BBX 12 13 0 0
BITMAP
0F00
3FC0
70E0
6060
4F20
CFB0
CDB0
CFB0
4F20
6060
70E0
3FC0
0F00
ENDCHAR
STARTCHAR uni2120
ENCODING 8480
SWIDTH 600 0
DWIDTH 12 0
BBX 12 7 0 7
BITMAP
7730
FF70
D770
77F0
9EF0
FEB0
7630
ENDCHAR
STARTCHAR trademark
ENCODING 8482
SWIDTH 600 0
DWIDTH 12 0
BBX 12 7 0 7
BITMAP
FF30
FF70
6770
67F0
66F0
66B0
6630
ENDCHAR
STARTCHAR uni2126
ENCODING 8486
SWIDTH 600 0
DWIDTH 12 0
BBX 10 13 1 0
BITMAP
1E00
7F80
7380
E1C0
E1C0
E1C0
E1C0
E1C0
E1C0
6180
7380
F3C0
F3C0
ENDCHAR
STARTCHAR estimated
ENCODING 8494
SWIDTH 600 0
DWIDTH 12 0
BBX 10 13 1 0
BITMAP
3E00
4100
4080
C0C0
C0C0
C0C0
FFC0
C000
C000
C000
4000
4080
3F00
ENDCHAR
STARTCHAR uni2150
ENCODING 8528
SWIDTH 600 0
DWIDTH 12 0
BBX 12 13 0 0
BITMAP
0020
3870
78E0
1980
1900
1800
1800
0BF0
1BF0
7060
E0C0
40C0
00C0
ENDCHAR
STARTCHAR uni2151
ENCODING 8529
SWIDTH 600 0
DWIDTH 12 0
BBX 12 13 0 0
BITMAP
0020
3870
78E0
1980
1900
1800
19C0
0BE0
1B70
73F0
E1F0
43E0
01C0
ENDCHAR
STARTCHAR uni2152
ENCODING 8530
SWIDTH 600 0
DWIDTH 12 0
BBX 11 12 1 0
BITMAP
F000
F000
30C0
33E0
3F00
7800
8000
33C0
F7C0
B640
37C0
3380
ENDCHAR
STARTCHAR onethird
ENCODING 8531
SWIDTH 600 0
DWIDTH 12 0
BBX 12 13 0 0
BITMAP
0020
3870
78E0
1980
1900
1800
19C0
0BE0
1A60
70E0
E2E0
43F0
01E0
ENDCHAR
STARTCHAR twothirds
ENCODING 8532
SWIDTH 600 0
DWIDTH 12 0
BBX 12 13 0 0
BITMAP
7820
F870
5CE0
1980
3100
7C00
7DC0
0BE0
1A60
70E0
E2E0
43F0
01E0
ENDCHAR
STARTCHAR uni2155
ENCODING 8533
SWIDTH 600 0
DWIDTH 12 0
BBX 12 13 0 0
BITMAP
0020
3870
78E0
1980
1900
1800
1800
09E0
19E0
71E0
E1F0
43E0
01E0
ENDCHAR
STARTCHAR uni2156
ENCODING 8534
SWIDTH 600 0
DWIDTH 12 0
BBX 12 13 0 0
BITMAP
7820
F870
5CE0
1980
3100
7C00
7C00
09E0
19E0
71E0
E1F0
43E0
01E0
ENDCHAR
STARTCHAR uni2157
ENCODING 8535
SWIDTH 600 0
DWIDTH 12 0
BBX 12 13 0 0
BITMAP
7820
7C70
8CE0
3980
BD00
7C00
F800
09E0
19E0
71E0
E1F0
43E0
01E0
ENDCHAR
STARTCHAR uni2158
ENCODING 8536
SWIDTH 600 0
DWIDTH 12 0
BBX 12 13 0 0
BITMAP
0020
3070
68E0
6980
FD00
FC00
0800
09E0
19E0
71E0
E1F0
43E0
01E0
ENDCHAR
STARTCHAR uni2159
ENCODING 8537
SWIDTH 600 0
DWIDTH 12 0
BBX 12 13 0 0
BITMAP
0020
3870
78E0
1980
1900
1800
18E0
09F0
1B00
73E0
E3F0
41E0
01E0
ENDCHAR
STARTCHAR uni215A
ENCODING 8538
SWIDTH 600 0
DWIDTH 12 0
BBX 12 13 0 0
BITMAP
0020
7C70
7CE0
7980
7D00
7C00
F8E0
09F0
1B00
73E0
E3F0
41E0
01E0
ENDCHAR
STARTCHAR oneeighth
ENCODING 8539
SWIDTH 600 0
DWIDTH 12 0
BBX 12 13 0 0
BITMAP
0020
3870
78E0
1980
1900
1800
19E0
0BE0
1BE0
71E0
E360
43F0
01E0
ENDCHAR
STARTCHAR threeeighths
ENCODING 8540
SWIDTH 600 0
DWIDTH 12 0
BBX 12 13 0 0
BITMAP
7820
7C70
8CE0
3980
BD00
7C00
F9E0
0BE0
1BE0
71E0
E360
43F0
01E0
ENDCHAR
STARTCHAR fiveeighths
ENCODING 8541
SWIDTH 600 0
DWIDTH 12 0
BBX 12 13 0 0
BITMAP
0020
7C70
7CE0
7980
7D00
7C00
F9E0
0BE0
1BE0
71E0
E360
43F0
01E0
ENDCHAR
STARTCHAR seveneighths
ENCODING 8542
SWIDTH 600 0
DWIDTH 12 0
BBX 12 13 0 0
BITMAP
0020
7C70
7CE0
1980
1900
3000
31E0
0BE0
1BE0
71E0
E360
43F0
01E0
ENDCHAR
STARTCHAR uni2189
ENCODING 8585
SWIDTH 600 0
DWIDTH 12 0
BBX 12 13 0 0
BITMAP
3820
7C70
6CE0
6D80
6D00
7C00
39C0
0BE0
1A60
70E0
E2E0
43F0
01E0
ENDCHAR
STARTCHAR uni2190
ENCODING 8592
SWIDTH 600 0
DWIDTH 12 0
BBX 11 10 0 0
BITMAP
0400
0E00
1C00
3800
7FE0
FFE0
3800
1C00
0E00
0400
ENDCHAR
STARTCHAR arrowup
ENCODING 8593
SWIDTH 600 0
DWIDTH 12 0
BBX 10 11 1 0
BITMAP
0C00
0C00
1E00
3F00
6D80
CCC0
4C80
0C00
0C00
0C00
0C00
ENDCHAR
STARTCHAR uni2192
ENCODING 8594
SWIDTH 600 0
DWIDTH 12 0
BBX 11 10 1 0
BITMAP
0400
0E00
0700
0380
FFC0
FFE0
0380
0700
0E00
0400
ENDCHAR
STARTCHAR arrowdown
ENCODING 8595
SWIDTH 600 0
DWIDTH 12 0
BBX 10 11 1 0
BITMAP
0C00
0C00
0C00
0C00
4C80
CCC0
6D80
3F00
1E00
0C00
0C00
ENDCHAR
STARTCHAR arrowboth
ENCODING 8596
SWIDTH 600 0
DWIDTH 12 0
BBX 12 8 0 1
BITMAP
1080
39C0
70E0
FFF0
FFF0
70E0
30C0
1980
ENDCHAR
STARTCHAR arrowupdn
ENCODING 8597
SWIDTH 600 0
DWIDTH 12 0
BBX 10 12 1 -1
BITMAP
0C00
1E00
3F00
7F80
CCC0
0C00
0C00
4C80
FFC0
3F00
1E00
0C00
ENDCHAR
STARTCHAR uni2196
ENCODING 8598
SWIDTH 600 0
DWIDTH 12 0
BBX 9 9 2 0
BITMAP
FF00
FF00
F000
F800
DC00
CE00
C700
C380
0200
ENDCHAR
STARTCHAR uni2197
ENCODING 8599
SWIDTH 600 0
DWIDTH 12 0
BBX 9 9 1 0
BITMAP
7F80
7F80
0780
0F80
1D80
3980
7180
E180
4000
ENDCHAR
STARTCHAR uni2198
ENCODING 8600
SWIDTH 600 0
DWIDTH 12 0
BBX 9 9 1 1
BITMAP
4000
6180
F180
3980
1D80
0F80
0780
7F80
7F80
ENDCHAR
STARTCHAR uni2199
ENCODING 8601
SWIDTH 600 0
DWIDTH 12 0
BBX 9 9 2 1
BITMAP
0200
C300
C780
CE00
DC00
F800
F000
FF00
FF00
ENDCHAR
STARTCHAR arrowupdnbse
ENCODING 8616
SWIDTH 600 0
DWIDTH 12 0
BBX 10 14 1 -3
BITMAP
0C00
1E00
3F00
EDC0
4C80
0C00
0C00
4C80
6D80
BF40
1E00
0C00
FFC0
FFC0
ENDCHAR
STARTCHAR uni21D0
ENCODING 8656
SWIDTH 600 0
DWIDTH 12 0
BBX 11 12 0 -1
BITMAP
0400
0E00
0C00
1FE0
3FE0
6000
E000
3FE0
1FE0
0C00
0E00
0400
ENDCHAR
STARTCHAR uni21D1
ENCODING 8657
SWIDTH 600 0
DWIDTH 12 0
BBX 10 11 1 0
BITMAP
0C00
0C00
1E00
3300
7380
D2C0
5280
1200
1200
1200
1200
ENDCHAR
STARTCHAR uni21D2
ENCODING 8658
SWIDTH 600 0
DWIDTH 12 0
BBX 11 12 1 -1
BITMAP
0400
0E00
0600
FF00
FF80
00C0
00E0
FF80
FF00
0600
0E00
0400
ENDCHAR
STARTCHAR uni21D3
ENCODING 8659
SWIDTH 600 0
DWIDTH 12 0
BBX 10 11 1 0
BITMAP
1200
1200
1200
1200
5280
D2C0
7380
3300
1E00
0C00
0C00
ENDCHAR
STARTCHAR uni2200
ENCODING 8704
SWIDTH 600 0
DWIDTH 12 0
BBX 12 13 0 0
BITMAP
E070
70E0
70E0
7FE0
3FC0
39C0
39C0
1980
1980
1F80
1F80
0F00
0F00
ENDCHAR
STARTCHAR partialdiff
ENCODING 8706
SWIDTH 600 0
DWIDTH 12 0
BBX 10 13 1 0
BITMAP
1E00
3F80
2380
01C0
01C0
3DC0
7FC0
73C0
E180
E380
E380
7F00
3C00
ENDCHAR
STARTCHAR uni2203
ENCODING 8707
SWIDTH 600 0
DWIDTH 12 0
BBX 9 13 1 0
BITMAP
7F80
7F80
0380
0380
0380
0380
7F80
7F80
0380
0380
0380
FF80
FF80
ENDCHAR
STARTCHAR uni2206
ENCODING 8710
SWIDTH 600 0
DWIDTH 12 0
BBX 10 13 1 0
BITMAP
1E00
1E00
3F00
3F00
3700
7380
7380
7380
E3C0
E1C0
E1C0
FFC0
FFC0
ENDCHAR
STARTCHAR product
ENCODING 8719
SWIDTH 600 0
DWIDTH 12 0
BBX 12 15 0 -2
BITMAP
FFF0
FFF0
E070
E070
E070
E070
E070
E070
E070
E070
E070
E070
E070
E070
E070
ENDCHAR
STARTCHAR summation
ENCODING 8721
SWIDTH 600 0
DWIDTH 12 0
BBX 10 15 1 -2
BITMAP
FFC0
7FC0
7000
3800
3800
1C00
0E00
0E00
0E00
1C00
3800
3800
7000
FFC0
FFC0
ENDCHAR
STARTCHAR minus
ENCODING 8722
SWIDTH 600 0
DWIDTH 12 0
BBX 10 2 1 6
BITMAP
FFC0
FFC0
ENDCHAR
STARTCHAR uni2215
ENCODING 8725
SWIDTH 600 0
DWIDTH 12 0
BBX 12 12 0 1
BITMAP
0020
0070
00E0
0180
0100
0000
0000
0800
1800
7000
E000
4000
ENDCHAR
STARTCHAR uni2219
ENCODING 8729
SWIDTH 600 0
DWIDTH 12 0
BBX 4 5 4 5
BITMAP
60
F0
F0
F0
60
ENDCHAR
STARTCHAR radical
ENCODING 8730
SWIDTH 600 0
DWIDTH 12 0
BBX 11 17 1 -1
BITMAP
0060
0060
00C0
00C0
00C0
00C0
0080
2180
6180
F180
3100
3300
1B00
1B00
0A00
0E00
0E00
ENDCHAR
STARTCHAR infinity
ENCODING 8734
SWIDTH 600 0
DWIDTH 12 0
BBX 12 7 0 3
BITMAP
79E0
FFF0
CE30
CE30
CF30
FBF0
71E0
ENDCHAR
STARTCHAR orthogonal
ENCODING 8735
SWIDTH 600 0
DWIDTH 12 0
BBX 10 9 1 2
BITMAP
E000
E000
E000
E000
E000
E000
E000
FFC0
FFC0
ENDCHAR
STARTCHAR intersection
ENCODING 8745
SWIDTH 600 0
DWIDTH 12 0
BBX 10 10 1 1
BITMAP
1E00
7F80
6180
6180
E1C0
E1C0
E1C0
E1C0
E1C0
E1C0
ENDCHAR
STARTCHAR integral
ENCODING 8747
SWIDTH 600 0
DWIDTH 12 0
BBX 6 19 3 -3
BITMAP
1C
3C
30
30
70
70
70
30
30
30
38
38
38
38
38
38
38
F0
E0
ENDCHAR
STARTCHAR uni2237
ENCODING 8759
SWIDTH 600 0
DWIDTH 12 0
BBX 10 12 1 1
BITMAP
7380
F3C0
FFC0
F3C0
7380
0000
0000
7380
F3C0
FFC0
F3C0
7380
ENDCHAR
STARTCHAR approxequal
ENCODING 8776
SWIDTH 600 0
DWIDTH 12 0
BBX 10 7 1 3
BITMAP
38C0
7F80
C700
0000
38C0
7F80
C700
ENDCHAR
STARTCHAR notequal
ENCODING 8800
SWIDTH 600 0
DWIDTH 12 0
BBX 10 11 1 1
BITMAP
0180
0300
FFC0
FFC0
0400
0C00
0800
FFC0
FFC0
3000
6000
ENDCHAR
STARTCHAR equivalence
ENCODING 8801
SWIDTH 600 0
DWIDTH 12 0
BBX 10 12 1 1
BITMAP
FFC0
FFC0
0000
0000
0000
FFC0
FFC0
0000
0000
0000
FFC0
FFC0
ENDCHAR
STARTCHAR lessequal
ENCODING 8804
SWIDTH 600 0
DWIDTH 12 0
BBX 10 11 1 0
BITMAP
00C0
07C0
3F00
F800
F800
3F00
07C0
00C0
0000
FFC0
FFC0
ENDCHAR
STARTCHAR greaterequal
ENCODING 8805
SWIDTH 600 0
DWIDTH 12 0
BBX 10 11 1 0
BITMAP
C000
F800
3F00
07C0
07C0
3F00
F800
C000
0000
FFC0
FFC0
ENDCHAR
STARTCHAR house
ENCODING 8962
SWIDTH 600 0
DWIDTH 12 0
BBX 10 13 1 0
BITMAP
1E00
1E00
3F00
7380
6180
E1C0
C0C0
C0C0
C0C0
C0C0
C0C0
FFC0
FFC0
ENDCHAR
STARTCHAR revlogicalnot
ENCODING 8976
SWIDTH 600 0
DWIDTH 12 0
BBX 10 6 1 2
BITMAP
FFC0
FFC0
E000
E000
E000
E000
ENDCHAR
STARTCHAR uni231C
ENCODING 8988
SWIDTH 600 0
DWIDTH 12 0
BBX 6 15 4 -1
BITMAP
FC
FC
C0
C0
C0
C0
C0
C0
C0
C0
C0
C0
C0
C0
C0
ENDCHAR
STARTCHAR uni231D
ENCODING 8989
SWIDTH 600 0
DWIDTH 12 0
BBX 6 15 2 -1
BITMAP
FC
FC
0C
0C
0C
0C
0C
0C
0C
0C
0C
0C
0C
0C
0C
ENDCHAR
STARTCHAR uni231E
ENCODING 8990
SWIDTH 600 0
DWIDTH 12 0
BBX 6 16 4 -3
BITMAP
C0
C0
C0
C0
C0
C0
C0
C0
C0
C0
C0
C0
C0
C0
FC
FC
ENDCHAR
STARTCHAR uni231F
ENCODING 8991
SWIDTH 600 0
DWIDTH 12 0
BBX 6 16 2 -3
BITMAP
0C
0C
0C
0C
0C
0C
0C
0C
0C
0C
0C
0C
0C
0C
FC
FC
ENDCHAR
STARTCHAR integraltp
ENCODING 8992
SWIDTH 600 0
DWIDTH 12 0
BBX 5 24 5 -8
BITMAP
78
F0
E0
C0
C0
C0
C0
C0
C0
C0
C0
C0
C0
C0
C0
C0
C0
C0
C0
C0
C0
C0
C0
C0
ENDCHAR
STARTCHAR integralbt
ENCODING 8993
SWIDTH 600 0
DWIDTH 12 0
BBX 5 23 2 -3
BITMAP
18
18
18
18
18
18
18
18
18
18
18
18
18
18
18
18
18
18
18
18
38
78
F0
ENDCHAR
STARTCHAR uni2500
ENCODING 9472
SWIDTH 600 0
DWIDTH 12 0
BBX 14 2 -1 5
BITMAP
FFFC
FFFC
ENDCHAR
STARTCHAR uni2501
ENCODING 9473
SWIDTH 600 0
DWIDTH 12 0
BBX 14 5 -1 3
BITMAP
FFFC
FFFC
FFFC
FFFC
FFFC
ENDCHAR
STARTCHAR uni2502
ENCODING 9474
SWIDTH 600 0
DWIDTH 12 0
BBX 2 28 5 -8
BITMAP
C0
C0
C0
C0
C0
C0
C0
C0
C0
C0
C0
C0
C0
C0
C0
C0
C0
C0
C0
C0
C0
C0
C0
C0
C0
C0
C0
C0
ENDCHAR
STARTCHAR uni2503
ENCODING 9475
SWIDTH 600 0
DWIDTH 12 0
BBX 6 28 3 -8
BITMAP
FC
FC
FC
FC
FC
FC
FC
FC
FC
FC
FC
FC
FC
FC
FC
FC
FC
FC
FC
FC
FC
FC
FC
FC
FC
FC
FC
FC
ENDCHAR
STARTCHAR uni2504
ENCODING 9476
SWIDTH 600 0
DWIDTH 12 0
BBX 10 2 1 5
BITMAP
CCC0
CCC0
ENDCHAR
STARTCHAR uni2505
ENCODING 9477
SWIDTH 600 0
DWIDTH 12 0
BBX 10 5 1 3
BITMAP
CCC0
CCC0
CCC0
CCC0
CCC0
ENDCHAR
STARTCHAR uni2506
ENCODING 9478
SWIDTH 600 0
DWIDTH 12 0
BBX 2 21 5 -5
BITMAP
C0
C0
C0
C0
C0
00
00
00
C0
C0
C0
C0
C0
00
00
00
C0
C0
C0
C0
C0
ENDCHAR
STARTCHAR uni2507
ENCODING 9479
SWIDTH 600 0
DWIDTH 12 0
BBX 6 21 3 -5
BITMAP
FC
FC
FC
FC
FC
00
00
00
FC
FC
FC
FC
FC
00
00
00
FC
FC
FC
FC
FC
ENDCHAR
STARTCHAR uni2508
ENCODING 9480
SWIDTH 600 0
DWIDTH 12 0
BBX 12 2 0 5
BITMAP
FFF0
FFF0
ENDCHAR
STARTCHAR uni2509
ENCODING 9481
SWIDTH 600 0
DWIDTH 12 0
BBX 12 5 0 3
BITMAP
FFF0
FFF0
FFF0
FFF0
FFF0
ENDCHAR
STARTCHAR uni250A
ENCODING 9482
SWIDTH 600 0
DWIDTH 12 0
BBX 2 24 5 -6
BITMAP
C0
C0
C0
C0
C0
00
C0
C0
C0
C0
C0
00
C0
C0
C0
C0
C0
00
00
C0
C0
C0
C0
C0
ENDCHAR
STARTCHAR uni250B
ENCODING 9483
SWIDTH 600 0
DWIDTH 12 0
BBX 6 24 3 -6
BITMAP
FC
FC
FC
FC
FC
00
FC
FC
FC
FC
FC
00
FC
FC
FC
FC
FC
00
00
FC
FC
FC
FC
FC
ENDCHAR
STARTCHAR uni250C
ENCODING 9484
SWIDTH 600 0
DWIDTH 12 0
BBX 8 15 5 -8
BITMAP
FF
FF
C0
C0
C0
C0
C0
C0
C0
C0
C0
C0
C0
C0
C0
ENDCHAR
STARTCHAR uni250D
ENCODING 9485
SWIDTH 600 0
DWIDTH 12 0
BBX 8 16 5 -8
BITMAP
FF
FF
FF
FF
FF
C0
C0
C0
C0
C0
C0
C0
C0
C0
C0
C0
ENDCHAR
STARTCHAR uni250E
ENCODING 9486
SWIDTH 600 0
DWIDTH 12 0
BBX 10 15 3 -8
BITMAP
FFC0
FFC0
FC00
FC00
FC00
FC00
FC00
FC00
FC00
FC00
FC00
FC00
FC00
FC00
FC00
ENDCHAR
STARTCHAR uni250F
ENCODING 9487
SWIDTH 600 0
DWIDTH 12 0
BBX 10 16 3 -8
BITMAP
FFC0
FFC0
FFC0
FFC0
FFC0
FC00
FC00
FC00
FC00
FC00
FC00
FC00
FC00
FC00
FC00
FC00
ENDCHAR
STARTCHAR uni2510
ENCODING 9488
SWIDTH 600 0
DWIDTH 12 0
BBX 8 15 -1 -8
BITMAP
FF
FF
03
03
03
03
03
03
03
03
03
03
03
03
03
ENDCHAR
STARTCHAR uni2511
ENCODING 9489
SWIDTH 600 0
DWIDTH 12 0
BBX 8 16 -1 -8
BITMAP
FF
FF
FF
FF
FF
03
03
03
03
03
03
03
03
03
03
03
ENDCHAR
STARTCHAR uni2512
ENCODING 9490
SWIDTH 600 0
DWIDTH 12 0
BBX 10 15 -1 -8
BITMAP
FFC0
FFC0
0FC0
0FC0
0FC0
0FC0
0FC0
0FC0
0FC0
0FC0
0FC0
0FC0
0FC0
0FC0
0FC0
ENDCHAR
STARTCHAR uni2513
ENCODING 9491
SWIDTH 600 0
DWIDTH 12 0
BBX 10 16 -1 -8
BITMAP
FFC0
FFC0
FFC0
FFC0
FFC0
0FC0
0FC0
0FC0
0FC0
0FC0
0FC0
0FC0
0FC0
0FC0
0FC0
0FC0
ENDCHAR
STARTCHAR uni2514
ENCODING 9492
SWIDTH 600 0
DWIDTH 12 0
BBX 8 15 5 5
BITMAP
C0
C0
C0
C0
C0
C0
C0
C0
C0
C0
C0
C0
C0
FF
FF
ENDCHAR
STARTCHAR uni2515
ENCODING 9493
SWIDTH 600 0
DWIDTH 12 0
BBX 8 16 5 3
BITMAP
C0
C0
C0
C0
C0
C0
C0
C0
C0
C0
C0
FF
FF
FF
FF
FF
ENDCHAR
STARTCHAR uni2516
ENCODING 9494
SWIDTH 600 0
DWIDTH 12 0
BBX 10 15 3 5
BITMAP
FC00
FC00
FC00
FC00
FC00
FC00
FC00
FC00
FC00
FC00
FC00
FC00
FC00
FFC0
FFC0
ENDCHAR
STARTCHAR uni2517
ENCODING 9495
SWIDTH 600 0
DWIDTH 12 0
BBX 10 16 3 3
BITMAP
FC00
FC00
FC00
FC00
FC00
FC00
FC00
FC00
FC00
FC00
FC00
FFC0
FFC0
FFC0
FFC0
FFC0
ENDCHAR
STARTCHAR uni2518
ENCODING 9496
SWIDTH 600 0
DWIDTH 12 0
BBX 8 15 -1 5
BITMAP
03
03
03
03
03
03
03
03
03
03
03
03
03
FF
FF
ENDCHAR
STARTCHAR uni2519
ENCODING 9497
SWIDTH 600 0
DWIDTH 12 0
BBX 8 16 -1 3
BITMAP
03
03
03
03
03
03
03
03
03
03
03
FF
FF
FF
FF
FF
ENDCHAR
STARTCHAR uni251A
ENCODING 9498
SWIDTH 600 0
DWIDTH 12 0
BBX 10 15 -1 5
BITMAP
0FC0
0FC0
0FC0
0FC0
0FC0
0FC0
0FC0
0FC0
0FC0
0FC0
0FC0
0FC0
0FC0
FFC0
FFC0
ENDCHAR
STARTCHAR uni251B
ENCODING 9499
SWIDTH 600 0
DWIDTH 12 0
BBX 10 16 -1 3
BITMAP
0FC0
0FC0
0FC0
0FC0
0FC0
0FC0
0FC0
0FC0
0FC0
0FC0
0FC0
FFC0
FFC0
FFC0
FFC0
FFC0
ENDCHAR
STARTCHAR uni251C
ENCODING 9500
SWIDTH 600 0
DWIDTH 12 0
BBX 8 28 5 -8
BITMAP
C0
C0
C0
C0
C0
C0
C0
C0
C0
C0
C0
C0
C0
FF
FF
C0
C0
C0
C0
C0
C0
C0
C0
C0
C0
C0
C0
C0
ENDCHAR
STARTCHAR uni251D
ENCODING 9501
SWIDTH 600 0
DWIDTH 12 0
BBX 8 27 5 -8
BITMAP
C0
C0
C0
C0
C0
C0
C0
C0
C0
C0
C0
FF
FF
FF
FF
FF
C0
C0
C0
C0
C0
C0
C0
C0
C0
C0
C0
ENDCHAR
STARTCHAR uni251E
ENCODING 9502
SWIDTH 600 0
DWIDTH 12 0
BBX 10 28 3 -8
BITMAP
FC00
FC00
FC00
FC00
FC00
FC00
FC00
FC00
FC00
FC00
FC00
FC00
FC00
FFC0
FFC0
3000
3000
3000
3000
3000
3000
3000
3000
3000
3000
3000
3000
3000
ENDCHAR
STARTCHAR uni251F
ENCODING 9503
SWIDTH 600 0
DWIDTH 12 0
BBX 10 28 3 -8
BITMAP
3000
3000
3000
3000
3000
3000
3000
3000
3000
3000
3000
3000
3000
FFC0
FFC0
FC00
FC00
FC00
FC00
FC00
FC00
FC00
FC00
FC00
FC00
FC00
FC00
FC00
ENDCHAR
STARTCHAR uni2520
ENCODING 9504
SWIDTH 600 0
DWIDTH 12 0
BBX 10 28 3 -8
BITMAP
FC00
FC00
FC00
FC00
FC00
FC00
FC00
FC00
FC00
FC00
FC00
FC00
FC00
FFC0
FFC0
FC00
FC00
FC00
FC00
FC00
FC00
FC00
FC00
FC00
FC00
FC00
FC00
FC00
ENDCHAR
STARTCHAR uni2521
ENCODING 9505
SWIDTH 600 0
DWIDTH 12 0
BBX 10 27 3 -8
BITMAP
FC00
FC00
FC00
FC00
FC00
FC00
FC00
FC00
FC00
FC00
FC00
FFC0
FFC0
FFC0
FFC0
FFC0
3000
3000
3000
3000
3000
3000
3000
3000
3000
3000
3000
ENDCHAR
STARTCHAR uni2522
ENCODING 9506
SWIDTH 600 0
DWIDTH 12 0
BBX 10 27 3 -8
BITMAP
3000
3000
3000
3000
3000
3000
3000
3000
3000
3000
3000
FFC0
FFC0
FFC0
FFC0
FFC0
FC00
FC00
FC00
FC00
FC00
FC00
FC00
FC00
FC00
FC00
FC00
ENDCHAR
STARTCHAR uni2523
ENCODING 9507
SWIDTH 600 0
DWIDTH 12 0
BBX 10 27 3 -8
BITMAP
FC00
FC00
FC00
FC00
FC00
FC00
FC00
FC00
FC00
FC00
FC00
FFC0
FFC0
FFC0
FFC0
FFC0
FC00
FC00
FC00
FC00
FC00
FC00
FC00
FC00
FC00
FC00
FC00
ENDCHAR
STARTCHAR uni2524
ENCODING 9508
SWIDTH 600 0
DWIDTH 12 0
BBX 8 28 -1 -8
BITMAP
03
03
03
03
03
03
03
03
03
03
03
03
03
FF
FF
03
03
03
03
03
03
03
03
03
03
03
03
03
ENDCHAR
STARTCHAR uni2525
ENCODING 9509
SWIDTH 600 0
DWIDTH 12 0
BBX 8 27 -1 -8
BITMAP
03
03
03
03
03
03
03
03
03
03
03
FF
FF
FF
FF
FF
03
03
03
03
03
03
03
03
03
03
03
ENDCHAR
STARTCHAR uni2526
ENCODING 9510
SWIDTH 600 0
DWIDTH 12 0
BBX 10 28 -1 -8
BITMAP
0FC0
0FC0
0FC0
0FC0
0FC0
0FC0
0FC0
0FC0
0FC0
0FC0
0FC0
0FC0
0FC0
FFC0
FFC0
0300
0300
0300
0300
0300
0300
0300
0300
0300
0300
0300
0300
0300
ENDCHAR
STARTCHAR uni2527
ENCODING 9511
SWIDTH 600 0
DWIDTH 12 0
BBX 10 28 -1 -8
BITMAP
0300
0300
0300
0300
0300
0300
0300
0300
0300
0300
0300
0300
0300
FFC0
FFC0
0FC0
0FC0
0FC0
0FC0
0FC0
0FC0
0FC0
0FC0
0FC0
0FC0
0FC0
0FC0
0FC0
ENDCHAR
STARTCHAR uni2528
ENCODING 9512
SWIDTH 600 0
DWIDTH 12 0
BBX 10 28 -1 -8
BITMAP
0FC0
0FC0
0FC0
0FC0
0FC0
0FC0
0FC0
0FC0
0FC0
0FC0
0FC0
0FC0
0FC0
FFC0
FFC0
0FC0
0FC0
0FC0
0FC0
0FC0
0FC0
0FC0
0FC0
0FC0
0FC0
0FC0
0FC0
0FC0
ENDCHAR
STARTCHAR uni2529
ENCODING 9513
SWIDTH 600 0
DWIDTH 12 0
BBX 10 27 -1 -8
BITMAP
0FC0
0FC0
0FC0
0FC0
0FC0
0FC0
0FC0
0FC0
0FC0
0FC0
0FC0
FFC0
FFC0
FFC0
FFC0
FFC0
0300
0300
0300
0300
0300
0300
0300
0300
0300
0300
0300
ENDCHAR
STARTCHAR uni252A
ENCODING 9514
SWIDTH 600 0
DWIDTH 12 0
BBX 10 27 -1 -8
BITMAP
0300
0300
0300
0300
0300
0300
0300
0300
0300
0300
0300
FFC0
FFC0
FFC0
FFC0
FFC0
0FC0
0FC0
0FC0
0FC0
0FC0
0FC0
0FC0
0FC0
0FC0
0FC0
0FC0
ENDCHAR
STARTCHAR uni252B
ENCODING 9515
SWIDTH 600 0
DWIDTH 12 0
BBX 10 27 -1 -8
BITMAP
0FC0
0FC0
0FC0
0FC0
0FC0
0FC0
0FC0
0FC0
0FC0
0FC0
0FC0
FFC0
FFC0
FFC0
FFC0
FFC0
0FC0
0FC0
0FC0
0FC0
0FC0
0FC0
0FC0
0FC0
0FC0
0FC0
0FC0
ENDCHAR
STARTCHAR uni252C
ENCODING 9516
SWIDTH 600 0
DWIDTH 12 0
BBX 14 15 -1 -8
BITMAP
FFFC
FFFC
0300
0300
0300
0300
0300
0300
0300
0300
0300
0300
0300
0300
0300
ENDCHAR
STARTCHAR uni252D
ENCODING 9517
SWIDTH 600 0
DWIDTH 12 0
BBX 14 16 -1 -8
BITMAP
FF00
FFFC
FFFC
FF00
FF00
0300
0300
0300
0300
0300
0300
0300
0300
0300
0300
0300
ENDCHAR
STARTCHAR uni252E
ENCODING 9518
SWIDTH 600 0
DWIDTH 12 0
BBX 14 16 -1 -8
BITMAP
03FC
FFFC
FFFC
03FC
03FC
0300
0300
0300
0300
0300
0300
0300
0300
0300
0300
0300
ENDCHAR
STARTCHAR uni252F
ENCODING 9519
SWIDTH 600 0
DWIDTH 12 0
BBX 14 16 -1 -8
BITMAP
FFFC
FFFC
FFFC
FFFC
FFFC
0300
0300
0300
0300
0300
0300
0300
0300
0300
0300
0300
ENDCHAR
STARTCHAR uni2530
ENCODING 9520
SWIDTH 600 0
DWIDTH 12 0
BBX 14 15 -1 -8
BITMAP
FFFC
FFFC
0FC0
0FC0
0FC0
0FC0
0FC0
0FC0
0FC0
0FC0
0FC0
0FC0
0FC0
0FC0
0FC0
ENDCHAR
STARTCHAR uni2531
ENCODING 9521
SWIDTH 600 0
DWIDTH 12 0
BBX 14 16 -1 -8
BITMAP
FFC0
FFFC
FFFC
FFC0
FFC0
0FC0
0FC0
0FC0
0FC0
0FC0
0FC0
0FC0
0FC0
0FC0
0FC0
0FC0
ENDCHAR
STARTCHAR uni2532
ENCODING 9522
SWIDTH 600 0
DWIDTH 12 0
BBX 14 16 -1 -8
BITMAP
0FFC
FFFC
FFFC
0FFC
0FFC
0FC0
0FC0
0FC0
0FC0
0FC0
0FC0
0FC0
0FC0
0FC0
0FC0
0FC0
ENDCHAR
STARTCHAR uni2533
ENCODING 9523
SWIDTH 600 0
DWIDTH 12 0
BBX 14 16 -1 -8
BITMAP
FFFC
FFFC
FFFC
FFFC
FFFC
0FC0
0FC0
0FC0
0FC0
0FC0
0FC0
0FC0
0FC0
0FC0
0FC0
0FC0
ENDCHAR
STARTCHAR uni2534
ENCODING 9524
SWIDTH 600 0
DWIDTH 12 0
BBX 14 15 -1 5
BITMAP
0300
0300
0300
0300
0300
0300
0300
0300
0300
0300
0300
0300
0300
FFFC
FFFC
ENDCHAR
STARTCHAR uni2535
ENCODING 9525
SWIDTH 600 0
DWIDTH 12 0
BBX 14 16 -1 3
BITMAP
0300
0300
0300
0300
0300
0300
0300
0300
0300
0300
0300
FF00
FFFC
FFFC
FF00
FF00
ENDCHAR
STARTCHAR uni2536
ENCODING 9526
SWIDTH 600 0
DWIDTH 12 0
BBX 14 16 -1 3
BITMAP
0300
0300
0300
0300
0300
0300
0300
0300
0300
0300
0300
03FC
FFFC
FFFC
03FC
03FC
ENDCHAR
STARTCHAR uni2537
ENCODING 9527
SWIDTH 600 0
DWIDTH 12 0
BBX 14 16 -1 3
BITMAP
0300
0300
0300
0300
0300
0300
0300
0300
0300
0300
0300
FFFC
FFFC
FFFC
FFFC
FFFC
ENDCHAR
STARTCHAR uni2538
ENCODING 9528
SWIDTH 600 0
DWIDTH 12 0
BBX 14 15 -1 5
BITMAP
0FC0
0FC0
0FC0
0FC0
0FC0
0FC0
0FC0
0FC0
0FC0
0FC0
0FC0
0FC0
0FC0
FFFC
FFFC
ENDCHAR
STARTCHAR uni2539
ENCODING 9529
SWIDTH 600 0
DWIDTH 12 0
BBX 14 16 -1 3
BITMAP
0FC0
0FC0
0FC0
0FC0
0FC0
0FC0
0FC0
0FC0
0FC0
0FC0
0FC0
FFC0
FFFC
FFFC
FFC0
FFC0
ENDCHAR
STARTCHAR uni253A
ENCODING 9530
SWIDTH 600 0
DWIDTH 12 0
BBX 14 16 -1 3
BITMAP
0FC0
0FC0
0FC0
0FC0
0FC0
0FC0
0FC0
0FC0
0FC0
0FC0
0FC0
0FFC
FFFC
FFFC
0FFC
0FFC
ENDCHAR
STARTCHAR uni253B
ENCODING 9531
SWIDTH 600 0
DWIDTH 12 0
BBX 14 16 -1 3
BITMAP
0FC0
0FC0
0FC0
0FC0
0FC0
0FC0
0FC0
0FC0
0FC0
0FC0
0FC0
FFFC
FFFC
FFFC
FFFC
FFFC
ENDCHAR
STARTCHAR uni253C
ENCODING 9532
SWIDTH 600 0
DWIDTH 12 0
BBX 14 28 -1 -8
BITMAP
0300
0300
0300
0300
0300
0300
0300
0300
0300
0300
0300
0300
0300
FFFC
FFFC
0300
0300
0300
0300
0300
0300
0300
0300
0300
0300
0300
0300
0300
ENDCHAR
STARTCHAR uni253D
ENCODING 9533
SWIDTH 600 0
DWIDTH 12 0
BBX 14 27 -1 -8
BITMAP
0300
0300
0300
0300
0300
0300
0300
0300
0300
0300
0300
FF00
FFFC
FFFC
FF00
FF00
0300
0300
0300
0300
0300
0300
0300
0300
0300
0300
0300
ENDCHAR
STARTCHAR uni253E
ENCODING 9534
SWIDTH 600 0
DWIDTH 12 0
BBX 14 27 -1 -8
BITMAP
0300
0300
0300
0300
0300
0300
0300
0300
0300
0300
0300
03FC
FFFC
FFFC
03FC
03FC
0300
0300
0300
0300
0300
0300
0300
0300
0300
0300
0300
ENDCHAR
STARTCHAR uni253F
ENCODING 9535
SWIDTH 600 0
DWIDTH 12 0
BBX 14 27 -1 -8
BITMAP
0300
0300
0300
0300
0300
0300
0300
0300
0300
0300
0300
FFFC
FFFC
FFFC
FFFC
FFFC
0300
0300
0300
0300
0300
0300
0300
0300
0300
0300
0300
ENDCHAR
STARTCHAR uni2540
ENCODING 9536
SWIDTH 600 0
DWIDTH 12 0
BBX 14 28 -1 -8
BITMAP
0FC0
0FC0
0FC0
0FC0
0FC0
0FC0
0FC0
0FC0
0FC0
0FC0
0FC0
0FC0
0FC0
FFFC
FFFC
0300
0300
0300
0300
0300
0300
0300
0300
0300
0300
0300
0300
0300
ENDCHAR
STARTCHAR uni2541
ENCODING 9537
SWIDTH 600 0
DWIDTH 12 0
BBX 14 28 -1 -8
BITMAP
0300
0300
0300
0300
0300
0300
0300
0300
0300
0300
0300
0300
0300
FFFC
FFFC
0FC0
0FC0
0FC0
0FC0
0FC0
0FC0
0FC0
0FC0
0FC0
0FC0
0FC0
0FC0
0FC0
ENDCHAR
STARTCHAR uni2542
ENCODING 9538
SWIDTH 600 0
DWIDTH 12 0
BBX 14 28 -1 -8
BITMAP
0FC0
0FC0
0FC0
0FC0
0FC0
0FC0
0FC0
0FC0
0FC0
0FC0
0FC0
0FC0
0FC0
FFFC
FFFC
0FC0
0FC0
0FC0
0FC0
0FC0
0FC0
0FC0
0FC0
0FC0
0FC0
0FC0
0FC0
0FC0
ENDCHAR
STARTCHAR uni2543
ENCODING 9539
SWIDTH 600 0
DWIDTH 12 0
BBX 14 27 -1 -8
BITMAP
0FC0
0FC0
0FC0
0FC0
0FC0
0FC0
0FC0
0FC0
0FC0
0FC0
0FC0
FFC0
FFFC
FFFC
FFC0
FFC0
0300
0300
0300
0300
0300
0300
0300
0300
0300
0300
0300
ENDCHAR
STARTCHAR uni2544
ENCODING 9540
SWIDTH 600 0
DWIDTH 12 0
BBX 14 27 -1 -8
BITMAP
0FC0
0FC0
0FC0
0FC0
0FC0
0FC0
0FC0
0FC0
0FC0
0FC0
0FC0
0FFC
FFFC
FFFC
0FFC
0FFC
0300
0300
0300
0300
0300
0300
0300
0300
0300
0300
0300
ENDCHAR
STARTCHAR uni2545
ENCODING 9541
SWIDTH 600 0
DWIDTH 12 0
BBX 14 27 -1 -8
BITMAP
0300
0300
0300
0300
0300
0300
0300
0300
0300
0300
0300
FFC0
FFFC
FFFC
FFC0
FFC0
0FC0
0FC0
0FC0
0FC0
0FC0
0FC0
0FC0
0FC0
0FC0
0FC0
0FC0
ENDCHAR
STARTCHAR uni2546
ENCODING 9542
SWIDTH 600 0
DWIDTH 12 0
BBX 14 27 -1 -8
BITMAP
0300
0300
0300
0300
0300
0300
0300
0300
0300
0300
0300
0FFC
FFFC
FFFC
0FFC
0FFC
0FC0
0FC0
0FC0
0FC0
0FC0
0FC0
0FC0
0FC0
0FC0
0FC0
0FC0
ENDCHAR
STARTCHAR uni2547
ENCODING 9543
SWIDTH 600 0
DWIDTH 12 0
BBX 14 27 -1 -8
BITMAP
0FC0
0FC0
0FC0
0FC0
0FC0
0FC0
0FC0
0FC0
0FC0
0FC0
0FC0
FFFC
FFFC
FFFC
FFFC
FFFC
0300
0300
0300
0300
0300
0300
0300
0300
0300
0300
0300
ENDCHAR
STARTCHAR uni2548
ENCODING 9544
SWIDTH 600 0
DWIDTH 12 0
BBX 14 27 -1 -8
BITMAP
0300
0300
0300
0300
0300
0300
0300
0300
0300
0300
0300
FFFC
FFFC
FFFC
FFFC
FFFC
0FC0
0FC0
0FC0
0FC0
0FC0
0FC0
0FC0
0FC0
0FC0
0FC0
0FC0
ENDCHAR
STARTCHAR uni2549
ENCODING 9545
SWIDTH 600 0
DWIDTH 12 0
BBX 14 27 -1 -8
BITMAP
0FC0
0FC0
0FC0
0FC0
0FC0
0FC0
0FC0
0FC0
0FC0
0FC0
0FC0
FFC0
FFFC
FFFC
FFC0
FFC0
0FC0
0FC0
0FC0
0FC0
0FC0
0FC0
0FC0
0FC0
0FC0
0FC0
0FC0
ENDCHAR
STARTCHAR uni254A
ENCODING 9546
SWIDTH 600 0
DWIDTH 12 0
BBX 14 27 -1 -8
BITMAP
0FC0
0FC0
0FC0
0FC0
0FC0
0FC0
0FC0
0FC0
0FC0
0FC0
0FC0
0FFC
FFFC
FFFC
0FFC
0FFC
0FC0
0FC0
0FC0
0FC0
0FC0
0FC0
0FC0
0FC0
0FC0
0FC0
0FC0
ENDCHAR
STARTCHAR uni254B
ENCODING 9547
SWIDTH 600 0
DWIDTH 12 0
BBX 14 27 -1 -8
BITMAP
0FC0
0FC0
0FC0
0FC0
0FC0
0FC0
0FC0
0FC0
0FC0
0FC0
0FC0
FFFC
FFFC
FFFC
FFFC
FFFC
0FC0
0FC0
0FC0
0FC0
0FC0
0FC0
0FC0
0FC0
0FC0
0FC0
0FC0
ENDCHAR
STARTCHAR uni254C
ENCODING 9548
SWIDTH 600 0
DWIDTH 12 0
BBX 10 2 1 5
BITMAP
F3C0
F3C0
ENDCHAR
STARTCHAR uni254D
ENCODING 9549
SWIDTH 600 0
DWIDTH 12 0
BBX 10 5 1 3
BITMAP
F3C0
F3C0
F3C0
F3C0
F3C0
ENDCHAR
STARTCHAR uni254E
ENCODING 9550
SWIDTH 600 0
DWIDTH 12 0
BBX 2 18 5 -3
BITMAP
C0
C0
C0
C0
C0
C0
00
00
00
00
00
00
C0
C0
C0
C0
C0
C0
ENDCHAR
STARTCHAR uni254F
ENCODING 9551
SWIDTH 600 0
DWIDTH 12 0
BBX 6 18 3 -3
BITMAP
FC
FC
FC
FC
FC
FC
00
00
00
00
00
00
FC
FC
FC
FC
FC
FC
ENDCHAR
STARTCHAR uni2550
ENCODING 9552
SWIDTH 600 0
DWIDTH 12 0
BBX 14 8 -1 2
BITMAP
FFFC
FFFC
0000
0000
0000
0000
FFFC
FFFC
ENDCHAR
STARTCHAR uni2551
ENCODING 9553
SWIDTH 600 0
DWIDTH 12 0
BBX 8 28 2 -8
BITMAP
E7
E7
E7
E7
E7
E7
E7
E7
E7
E7
E7
E7
E7
E7
E7
E7
E7
E7
E7
E7
E7
E7
E7
E7
E7
E7
E7
E7
ENDCHAR
STARTCHAR uni2552
ENCODING 9554
SWIDTH 600 0
DWIDTH 12 0
BBX 8 18 5 -8
BITMAP
FF
FF
C0
C0
C0
C0
FF
FF
C0
C0
C0
C0
C0
C0
C0
C0
C0
C0
ENDCHAR
STARTCHAR uni2553
ENCODING 9555
SWIDTH 600 0
DWIDTH 12 0
BBX 11 15 2 -8
BITMAP
FFE0
FFE0
E700
E700
E700
E700
E700
E700
E700
E700
E700
E700
E700
E700
E700
ENDCHAR
STARTCHAR uni2554
ENCODING 9556
SWIDTH 600 0
DWIDTH 12 0
BBX 11 18 2 -8
BITMAP
FFE0
FFE0
E000
E000
E000
E000
E7E0
E7E0
E700
E700
E700
E700
E700
E700
E700
E700
E700
0700
ENDCHAR
STARTCHAR uni2555
ENCODING 9557
SWIDTH 600 0
DWIDTH 12 0
BBX 8 18 -1 -8
BITMAP
FF
FF
03
03
03
03
FF
FF
03
03
03
03
03
03
03
03
03
03
ENDCHAR
STARTCHAR uni2556
ENCODING 9558
SWIDTH 600 0
DWIDTH 12 0
BBX 11 15 -1 -8
BITMAP
FFE0
FFE0
1CE0
1CE0
1CE0
1CE0
1CE0
1CE0
1CE0
1CE0
1CE0
1CE0
1CE0
1CE0
1CE0
ENDCHAR
STARTCHAR uni2557
ENCODING 9559
SWIDTH 600 0
DWIDTH 12 0
BBX 11 18 -1 -8
BITMAP
FFE0
FFE0
00E0
00E0
00E0
00E0
FCE0
FCE0
1CE0
1CE0
1CE0
1CE0
1CE0
1CE0
1CE0
1CE0
1CE0
1C00
ENDCHAR
STARTCHAR uni2558
ENCODING 9560
SWIDTH 600 0
DWIDTH 12 0
BBX 8 18 5 2
BITMAP
C0
C0
C0
C0
C0
C0
C0
C0
C0
C0
FF
FF
C0
C0
C0
C0
FF
FF
ENDCHAR
STARTCHAR uni2559
ENCODING 9561
SWIDTH 600 0
DWIDTH 12 0
BBX 11 15 2 5
BITMAP
E700
E700
E700
E700
E700
E700
E700
E700
E700
E700
E700
E700
E700
FFE0
FFE0
ENDCHAR
STARTCHAR uni255A
ENCODING 9562
SWIDTH 600 0
DWIDTH 12 0
BBX 11 18 2 2
BITMAP
0700
E700
E700
E700
E700
E700
E700
E700
E700
E700
E7E0
E7E0
E000
E000
E000
E000
FFE0
FFE0
ENDCHAR
STARTCHAR uni255B
ENCODING 9563
SWIDTH 600 0
DWIDTH 12 0
BBX 8 18 -1 2
BITMAP
03
03
03
03
03
03
03
03
03
03
FF
FF
03
03
03
03
FF
FF
ENDCHAR
STARTCHAR uni255C
ENCODING 9564
SWIDTH 600 0
DWIDTH 12 0
BBX 11 15 -1 5
BITMAP
1CE0
1CE0
1CE0
1CE0
1CE0
1CE0
1CE0
1CE0
1CE0
1CE0
1CE0
1CE0
1CE0
FFE0
FFE0
ENDCHAR
STARTCHAR uni255D
ENCODING 9565
SWIDTH 600 0
DWIDTH 12 0
BBX 11 18 -1 2
BITMAP
1C00
1CE0
1CE0
1CE0
1CE0
1CE0
1CE0
1CE0
1CE0
1CE0
FCE0
FCE0
00E0
00E0
00E0
00E0
FFE0
FFE0
ENDCHAR
STARTCHAR uni255E
ENCODING 9566
SWIDTH 600 0
DWIDTH 12 0
BBX 8 28 5 -8
BITMAP
C0
C0
C0
C0
C0
C0
C0
C0
C0
C0
FF
FF
C0
C0
C0
C0
FF
FF
C0
C0
C0
C0
C0
C0
C0
C0
C0
C0
ENDCHAR
STARTCHAR uni255F
ENCODING 9567
SWIDTH 600 0
DWIDTH 12 0
BBX 11 28 2 -8
BITMAP
E700
E700
E700
E700
E700
E700
E700
E700
E700
E700
E700
E700
E700
E7E0
E7E0
E700
E700
E700
E700
E700
E700
E700
E700
E700
E700
E700
E700
E700
ENDCHAR
STARTCHAR uni2560
ENCODING 9568
SWIDTH 600 0
DWIDTH 12 0
BBX 11 28 2 -8
BITMAP
E700
E700
E700
E700
E700
E700
E700
E700
E700
E700
E7E0
E7E0
E000
E000
E000
E000
E7E0
E7E0
E700
E700
E700
E700
E700
E700
E700
E700
E700
E700
ENDCHAR
STARTCHAR uni2561
ENCODING 9569
SWIDTH 600 0
DWIDTH 12 0
BBX 8 28 -1 -8
BITMAP
03
03
03
03
03
03
03
03
03
03
FF
FF
03
03
03
03
FF
FF
03
03
03
03
03
03
03
03
03
03
ENDCHAR
STARTCHAR uni2562
ENCODING 9570
SWIDTH 600 0
DWIDTH 12 0
BBX 11 28 -1 -8
BITMAP
1CE0
1CE0
1CE0
1CE0
1CE0
1CE0
1CE0
1CE0
1CE0
1CE0
1CE0
1CE0
1CE0
FCE0
FCE0
1CE0
1CE0
1CE0
1CE0
1CE0
1CE0
1CE0
1CE0
1CE0
1CE0
1CE0
1CE0
1CE0
ENDCHAR
STARTCHAR uni2563
ENCODING 9571
SWIDTH 600 0
DWIDTH 12 0
BBX 11 28 -1 -8
BITMAP
1CE0
1CE0
1CE0
1CE0
1CE0
1CE0
1CE0
1CE0
1CE0
1CE0
FCE0
FCE0
00E0
00E0
00E0
00E0
FCE0
FCE0
1CE0
1CE0
1CE0
1CE0
1CE0
1CE0
1CE0
1CE0
1CE0
1CE0
ENDCHAR
STARTCHAR uni2564
ENCODING 9572
SWIDTH 600 0
DWIDTH 12 0
BBX 14 18 -1 -8
BITMAP
FFFC
FFFC
0000
0000
0000
0000
FFFC
FFFC
0300
0300
0300
0300
0300
0300
0300
0300
0300
0300
ENDCHAR
STARTCHAR uni2565
ENCODING 9573
SWIDTH 600 0
DWIDTH 12 0
BBX 14 15 -1 -8
BITMAP
FFFC
FFFC
1CE0
1CE0
1CE0
1CE0
1CE0
1CE0
1CE0
1CE0
1CE0
1CE0
1CE0
1CE0
1CE0
ENDCHAR
STARTCHAR uni2566
ENCODING 9574
SWIDTH 600 0
DWIDTH 12 0
BBX 14 18 -1 -8
BITMAP
FFFC
FFFC
0000
0000
0000
0000
FCFC
FCFC
1CE0
1CE0
1CE0
1CE0
1CE0
1CE0
1CE0
1CE0
1CE0
1CE0
ENDCHAR
STARTCHAR uni2567
ENCODING 9575
SWIDTH 600 0
DWIDTH 12 0
BBX 14 18 -1 2
BITMAP
0300
0300
0300
0300
0300
0300
0300
0300
0300
0300
FFFC
FFFC
0000
0000
0000
0000
FFFC
FFFC
ENDCHAR
STARTCHAR uni2568
ENCODING 9576
SWIDTH 600 0
DWIDTH 12 0
BBX 14 15 -1 5
BITMAP
1CE0
1CE0
1CE0
1CE0
1CE0
1CE0
1CE0
1CE0
1CE0
1CE0
1CE0
1CE0
1CE0
FFFC
FFFC
ENDCHAR
STARTCHAR uni2569
ENCODING 9577
SWIDTH 600 0
DWIDTH 12 0
BBX 14 18 -1 2
BITMAP
1CE0
1CE0
1CE0
1CE0
1CE0
1CE0
1CE0
1CE0
1CE0
1CE0
FCFC
FCFC
0000
0000
0000
0000
FFFC
FFFC
ENDCHAR
STARTCHAR uni256A
ENCODING 9578
SWIDTH 600 0
DWIDTH 12 0
BBX 14 28 -1 -8
BITMAP
0300
0300
0300
0300
0300
0300
0300
0300
0300
0300
FFFC
FFFC
0300
0300
0300
0300
FFFC
FFFC
0300
0300
0300
0300
0300
0300
0300
0300
0300
0300
ENDCHAR
STARTCHAR uni256B
ENCODING 9579
SWIDTH 600 0
DWIDTH 12 0
BBX 14 28 -1 -8
BITMAP
1CE0
1CE0
1CE0
1CE0
1CE0
1CE0
1CE0
1CE0
1CE0
1CE0
1CE0
1CE0
1CE0
FFFC
FFFC
1CE0
1CE0
1CE0
1CE0
1CE0
1CE0
1CE0
1CE0
1CE0
1CE0
1CE0
1CE0
1CE0
ENDCHAR
STARTCHAR uni256C
ENCODING 9580
SWIDTH 600 0
DWIDTH 12 0
BBX 14 28 -1 -8
BITMAP
1CE0
1CE0
1CE0
1CE0
1CE0
1CE0
1CE0
1CE0
1CE0
1CE0
FCFC
FCFC
0000
0000
0000
0000
FCFC
FCFC
1CE0
1CE0
1CE0
1CE0
1CE0
1CE0
1CE0
1CE0
1CE0
1CE0
ENDCHAR
STARTCHAR uni256D
ENCODING 9581
SWIDTH 600 0
DWIDTH 12 0
BBX 8 15 5 -8
BITMAP
0F
3F
78
F0
E0
E0
C0
C0
C0
C0
C0
C0
C0
C0
C0
ENDCHAR
STARTCHAR uni256E
ENCODING 9582
SWIDTH 600 0
DWIDTH 12 0
BBX 8 15 -1 -8
BITMAP
F0
FC
1E
0F
07
07
03
03
03
03
03
03
03
03
03
ENDCHAR
STARTCHAR uni256F
ENCODING 9583
SWIDTH 600 0
DWIDTH 12 0
BBX 8 15 -1 5
BITMAP
03
03
03
03
03
03
03
03
03
07
07
0F
1E
FC
F0
ENDCHAR
STARTCHAR uni2570
ENCODING 9584
SWIDTH 600 0
DWIDTH 12 0
BBX 8 15 5 5
BITMAP
C0
C0
C0
C0
C0
C0
C0
C0
C0
E0
E0
F0
78
3F
0F
ENDCHAR
STARTCHAR uni2571
ENCODING 9585
SWIDTH 600 0
DWIDTH 12 0
BBX 12 24 0 -6
BITMAP
0030
0030
0070
0070
00E0
00E0
01C0
01C0
0380
0380
0700
0700
0E00
0E00
1C00
1C00
3800
3800
7000
7000
E000
E000
C000
C000
ENDCHAR
STARTCHAR uni2572
ENCODING 9586
SWIDTH 600 0
DWIDTH 12 0
BBX 12 24 0 -6
BITMAP
C000
C000
E000
E000
7000
7000
3800
3800
1C00
1C00
0E00
0E00
0700
0700
0380
0380
01C0
01C0
00E0
00E0
0070
0070
0030
0030
ENDCHAR
STARTCHAR uni2573
ENCODING 9587
SWIDTH 600 0
DWIDTH 12 0
BBX 12 24 0 -6
BITMAP
C030
C030
E070
E070
70E0
70E0
39C0
39C0
1F80
1F80
0F00
0F00
0F00
0F00
1F80
1F80
39C0
39C0
70E0
70E0
E070
E070
C030
C030
ENDCHAR
STARTCHAR uni2574
ENCODING 9588
SWIDTH 600 0
DWIDTH 12 0
BBX 8 2 -1 5
BITMAP
FF
FF
ENDCHAR
STARTCHAR uni2575
ENCODING 9589
SWIDTH 600 0
DWIDTH 12 0
BBX 2 15 5 5
BITMAP
C0
C0
C0
C0
C0
C0
C0
C0
C0
C0
C0
C0
C0
C0
C0
ENDCHAR
STARTCHAR uni2576
ENCODING 9590
SWIDTH 600 0
DWIDTH 12 0
BBX 8 2 5 5
BITMAP
FF
FF
ENDCHAR
STARTCHAR uni2577
ENCODING 9591
SWIDTH 600 0
DWIDTH 12 0
BBX 2 15 5 -8
BITMAP
C0
C0
C0
C0
C0
C0
C0
C0
C0
C0
C0
C0
C0
C0
C0
ENDCHAR
STARTCHAR uni2578
ENCODING 9592
SWIDTH 600 0
DWIDTH 12 0
BBX 8 5 -1 3
BITMAP
FF
FF
FF
FF
FF
ENDCHAR
STARTCHAR uni2579
ENCODING 9593
SWIDTH 600 0
DWIDTH 12 0
BBX 6 15 3 5
BITMAP
FC
FC
FC
FC
FC
FC
FC
FC
FC
FC
FC
FC
FC
FC
FC
ENDCHAR
STARTCHAR uni257A
ENCODING 9594
SWIDTH 600 0
DWIDTH 12 0
BBX 8 5 5 3
BITMAP
FF
FF
FF
FF
FF
ENDCHAR
STARTCHAR uni257B
ENCODING 9595
SWIDTH 600 0
DWIDTH 12 0
BBX 6 15 3 -8
BITMAP
FC
FC
FC
FC
FC
FC
FC
FC
FC
FC
FC
FC
FC
FC
FC
ENDCHAR
STARTCHAR uni257C
ENCODING 9596
SWIDTH 600 0
DWIDTH 12 0
BBX 14 4 -1 4
BITMAP
03FC
FFFC
FFFC
03FC
ENDCHAR
STARTCHAR uni257D
ENCODING 9597
SWIDTH 600 0
DWIDTH 12 0
BBX 6 28 3 -8
BITMAP
30
30
30
30
30
30
30
30
30
30
30
30
30
FC
FC
FC
FC
FC
FC
FC
FC
FC
FC
FC
FC
FC
FC
FC
ENDCHAR
STARTCHAR uni257E
ENCODING 9598
SWIDTH 600 0
DWIDTH 12 0
BBX 14 4 -1 4
BITMAP
FF00
FFFC
FFFC
FF00
ENDCHAR
STARTCHAR uni257F
ENCODING 9599
SWIDTH 600 0
DWIDTH 12 0
BBX 6 28 3 -8
BITMAP
FC
FC
FC
FC
FC
FC
FC
FC
FC
FC
FC
FC
FC
FC
FC
30
30
30
30
30
30
30
30
30
30
30
30
30
ENDCHAR
STARTCHAR uni2580
ENCODING 9600
SWIDTH 600 0
DWIDTH 12 0
BBX 12 14 0 6
BITMAP
FFF0
FFF0
FFF0
FFF0
FFF0
FFF0
FFF0
FFF0
FFF0
FFF0
FFF0
FFF0
FFF0
FFF0
ENDCHAR
STARTCHAR uni2581
ENCODING 9601
SWIDTH 600 0
DWIDTH 12 0
BBX 12 3 0 -8
BITMAP
FFF0
FFF0
FFF0
ENDCHAR
STARTCHAR uni2582
ENCODING 9602
SWIDTH 600 0
DWIDTH 12 0
BBX 12 7 0 -8
BITMAP
FFF0
FFF0
FFF0
FFF0
FFF0
FFF0
FFF0
ENDCHAR
STARTCHAR uni2583
ENCODING 9603
SWIDTH 600 0
DWIDTH 12 0
BBX 12 11 0 -8
BITMAP
FFF0
FFF0
FFF0
FFF0
FFF0
FFF0
FFF0
FFF0
FFF0
FFF0
FFF0
ENDCHAR
STARTCHAR uni2584
ENCODING 9604
SWIDTH 600 0
DWIDTH 12 0
BBX 12 14 0 -8
BITMAP
FFF0
FFF0
FFF0
FFF0
FFF0
FFF0
FFF0
FFF0
FFF0
FFF0
FFF0
FFF0
FFF0
FFF0
ENDCHAR
STARTCHAR uni2585
ENCODING 9605
SWIDTH 600 0
DWIDTH 12 0
BBX 12 18 0 -8
BITMAP
FFF0
FFF0
FFF0
FFF0
FFF0
FFF0
FFF0
FFF0
FFF0
FFF0
FFF0
FFF0
FFF0
FFF0
FFF0
FFF0
FFF0
FFF0
ENDCHAR
STARTCHAR uni2586
ENCODING 9606
SWIDTH 600 0
DWIDTH 12 0
BBX 12 21 0 -8
BITMAP
FFF0
FFF0
FFF0
FFF0
FFF0
FFF0
FFF0
FFF0
FFF0
FFF0
FFF0
FFF0
FFF0
FFF0
FFF0
FFF0
FFF0
FFF0
FFF0
FFF0
FFF0
ENDCHAR
STARTCHAR uni2587
ENCODING 9607
SWIDTH 600 0
DWIDTH 12 0
BBX 12 25 0 -8
BITMAP
FFF0
FFF0
FFF0
FFF0
FFF0
FFF0
FFF0
FFF0
FFF0
FFF0
FFF0
FFF0
FFF0
FFF0
FFF0
FFF0
FFF0
FFF0
FFF0
FFF0
FFF0
FFF0
FFF0
FFF0
FFF0
ENDCHAR
STARTCHAR uni2588
ENCODING 9608
SWIDTH 600 0
DWIDTH 12 0
BBX 12 28 0 -8
BITMAP
FFF0
FFF0
FFF0
FFF0
FFF0
FFF0
FFF0
FFF0
FFF0
FFF0
FFF0
FFF0
FFF0
FFF0
FFF0
FFF0
FFF0
FFF0
FFF0
FFF0
FFF0
FFF0
FFF0
FFF0
FFF0
FFF0
FFF0
FFF0
ENDCHAR
STARTCHAR uni2589
ENCODING 9609
SWIDTH 600 0
DWIDTH 12 0
BBX 11 28 0 -8
BITMAP
FFE0
FFE0
FFE0
FFE0
FFE0
FFE0
FFE0
FFE0
FFE0
FFE0
FFE0
FFE0
FFE0
FFE0
FFE0
FFE0
FFE0
FFE0
FFE0
FFE0
FFE0
FFE0
FFE0
FFE0
FFE0
FFE0
FFE0
FFE0
ENDCHAR
STARTCHAR uni258A
ENCODING 9610
SWIDTH 600 0
DWIDTH 12 0
BBX 9 28 0 -8
BITMAP
FF80
FF80
FF80
FF80
FF80
FF80
FF80
FF80
FF80
FF80
FF80
FF80
FF80
FF80
FF80
FF80
FF80
FF80
FF80
FF80
FF80
FF80
FF80
FF80
FF80
FF80
FF80
FF80
ENDCHAR
STARTCHAR uni258B
ENCODING 9611
SWIDTH 600 0
DWIDTH 12 0
BBX 8 28 0 -8
BITMAP
FF
FF
FF
FF
FF
FF
FF
FF
FF
FF
FF
FF
FF
FF
FF
FF
FF
FF
FF
FF
FF
FF
FF
FF
FF
FF
FF
FF
ENDCHAR
STARTCHAR uni258C
ENCODING 9612
SWIDTH 600 0
DWIDTH 12 0
BBX 6 28 0 -8
BITMAP
FC
FC
FC
FC
FC
FC
FC
FC
FC
FC
FC
FC
FC
FC
FC
FC
FC
FC
FC
FC
FC
FC
FC
FC
FC
FC
FC
FC
ENDCHAR
STARTCHAR uni258D
ENCODING 9613
SWIDTH 600 0
DWIDTH 12 0
BBX 5 28 0 -8
BITMAP
F8
F8
F8
F8
F8
F8
F8
F8
F8
F8
F8
F8
F8
F8
F8
F8
F8
F8
F8
F8
F8
F8
F8
F8
F8
F8
F8
F8
ENDCHAR
STARTCHAR uni258E
ENCODING 9614
SWIDTH 600 0
DWIDTH 12 0
BBX 3 28 0 -8
BITMAP
E0
E0
E0
E0
E0
E0
E0
E0
E0
E0
E0
E0
E0
E0
E0
E0
E0
E0
E0
E0
E0
E0
E0
E0
E0
E0
E0
E0
ENDCHAR
STARTCHAR uni258F
ENCODING 9615
SWIDTH 600 0
DWIDTH 12 0
BBX 2 28 0 -8
BITMAP
C0
C0
C0
C0
C0
C0
C0
C0
C0
C0
C0
C0
C0
C0
C0
C0
C0
C0
C0
C0
C0
C0
C0
C0
C0
C0
C0
C0
ENDCHAR
STARTCHAR uni2590
ENCODING 9616
SWIDTH 600 0
DWIDTH 12 0
BBX 6 28 6 -8
BITMAP
FC
FC
FC
FC
FC
FC
FC
FC
FC
FC
FC
FC
FC
FC
FC
FC
FC
FC
FC
FC
FC
FC
FC
FC
FC
FC
FC
FC
ENDCHAR
STARTCHAR uni2591
ENCODING 9617
SWIDTH 600 0
DWIDTH 12 0
BBX 11 27 0 -8
BITMAP
6660
0000
0000
0000
6660
6660
0000
0000
6660
6660
0000
0000
6660
6660
0000
0000
6660
6660
0000
0000
6660
6660
0000
0000
6660
6660
9100
ENDCHAR
STARTCHAR uni2592
ENCODING 9618
SWIDTH 600 0
DWIDTH 12 0
BBX 12 28 -1 -9
BITMAP
3330
3330
CCC0
CCC0
3330
3330
CCC0
CCC0
3330
3330
CCC0
CCC0
3330
3330
CCC0
CCC0
3330
3330
CCC0
CCC0
3330
3330
CCC0
CCC0
3330
3330
0000
CCC0
ENDCHAR
STARTCHAR uni2593
ENCODING 9619
SWIDTH 600 0
DWIDTH 12 0
BBX 13 29 -1 -9
BITMAP
3330
7FF8
3330
CCC0
FFF0
7FF8
7FF8
FFF0
FFF0
7FF8
7FF8
FFF0
FFF0
7FF8
7FF8
FFF0
FFF0
7FF8
7FF8
FFF0
FFF0
7FF8
7FF8
FFF0
FFF0
7FF8
7FF8
FFF0
CCC0
ENDCHAR
STARTCHAR uni2594
ENCODING 9620
SWIDTH 600 0
DWIDTH 12 0
BBX 12 3 0 17
BITMAP
FFF0
FFF0
FFF0
ENDCHAR
STARTCHAR uni2595
ENCODING 9621
SWIDTH 600 0
DWIDTH 12 0
BBX 2 28 10 -8
BITMAP
C0
C0
C0
C0
C0
C0
C0
C0
C0
C0
C0
C0
C0
C0
C0
C0
C0
C0
C0
C0
C0
C0
C0
C0
C0
C0
C0
C0
ENDCHAR
STARTCHAR uni2596
ENCODING 9622
SWIDTH 600 0
DWIDTH 12 0
BBX 6 14 0 -8
BITMAP
FC
FC
FC
FC
FC
FC
FC
FC
FC
FC
FC
FC
FC
FC
ENDCHAR
STARTCHAR uni2597
ENCODING 9623
SWIDTH 600 0
DWIDTH 12 0
BBX 6 14 6 -8
BITMAP
FC
FC
FC
FC
FC
FC
FC
FC
FC
FC
FC
FC
FC
FC
ENDCHAR
STARTCHAR uni2598
ENCODING 9624
SWIDTH 600 0
DWIDTH 12 0
BBX 6 14 0 6
BITMAP
FC
FC
FC
FC
FC
FC
FC
FC
FC
FC
FC
FC
FC
FC
ENDCHAR
STARTCHAR uni2599
ENCODING 9625
SWIDTH 600 0
DWIDTH 12 0
BBX 12 28 0 -8
BITMAP
FC00
FC00
FC00
FC00
FC00
FC00
FC00
FC00
FC00
FC00
FC00
FC00
FC00
FC00
FFF0
FFF0
FFF0
FFF0
FFF0
FFF0
FFF0
FFF0
FFF0
FFF0
FFF0
FFF0
FFF0
FFF0
ENDCHAR
STARTCHAR uni259A
ENCODING 9626
SWIDTH 600 0
DWIDTH 12 0
BBX 12 28 0 -8
BITMAP
FC00
FC00
FC00
FC00
FC00
FC00
FC00
FC00
FC00
FC00
FC00
FC00
FC00
FC00
03F0
03F0
03F0
03F0
03F0
03F0
03F0
03F0
03F0
03F0
03F0
03F0
03F0
03F0
ENDCHAR
STARTCHAR uni259B
ENCODING 9627
SWIDTH 600 0
DWIDTH 12 0
BBX 12 28 0 -8
BITMAP
FFF0
FFF0
FFF0
FFF0
FFF0
FFF0
FFF0
FFF0
FFF0
FFF0
FFF0
FFF0
FFF0
FFF0
FC00
FC00
FC00
FC00
FC00
FC00
FC00
FC00
FC00
FC00
FC00
FC00
FC00
FC00
ENDCHAR
STARTCHAR uni259C
ENCODING 9628
SWIDTH 600 0
DWIDTH 12 0
BBX 12 28 0 -8
BITMAP
FFF0
FFF0
FFF0
FFF0
FFF0
FFF0
FFF0
FFF0
FFF0
FFF0
FFF0
FFF0
FFF0
FFF0
03F0
03F0
03F0
03F0
03F0
03F0
03F0
03F0
03F0
03F0
03F0
03F0
03F0
03F0
ENDCHAR
STARTCHAR uni259D
ENCODING 9629
SWIDTH 600 0
DWIDTH 12 0
BBX 6 14 6 6
BITMAP
FC
FC
FC
FC
FC
FC
FC
FC
FC
FC
FC
FC
FC
FC
ENDCHAR
STARTCHAR uni259E
ENCODING 9630
SWIDTH 600 0
DWIDTH 12 0
BBX 12 28 0 -8
BITMAP
03F0
03F0
03F0
03F0
03F0
03F0
03F0
03F0
03F0
03F0
03F0
03F0
03F0
03F0
FC00
FC00
FC00
FC00
FC00
FC00
FC00
FC00
FC00
FC00
FC00
FC00
FC00
FC00
ENDCHAR
STARTCHAR uni259F
ENCODING 9631
SWIDTH 600 0
DWIDTH 12 0
BBX 12 28 0 -8
BITMAP
03F0
03F0
03F0
03F0
03F0
03F0
03F0
03F0
03F0
03F0
03F0
03F0
03F0
03F0
FFF0
FFF0
FFF0
FFF0
FFF0
FFF0
FFF0
FFF0
FFF0
FFF0
FFF0
FFF0
FFF0
FFF0
ENDCHAR
STARTCHAR uni25A0
ENCODING 9632
SWIDTH 600 0
DWIDTH 12 0
BBX 10 9 1 2
BITMAP
FFC0
FFC0
FFC0
FFC0
FFC0
FFC0
FFC0
FFC0
FFC0
ENDCHAR
STARTCHAR uni25A1
ENCODING 9633
SWIDTH 600 0
DWIDTH 12 0
BBX 10 10 1 1
BITMAP
FFC0
FFC0
C0C0
C0C0
C0C0
C0C0
C0C0
C0C0
FFC0
FFC0
ENDCHAR
STARTCHAR uni25AA
ENCODING 9642
SWIDTH 600 0
DWIDTH 12 0
BBX 6 6 3 2
BITMAP
FC
FC
FC
FC
FC
FC
ENDCHAR
STARTCHAR uni25AB
ENCODING 9643
SWIDTH 600 0
DWIDTH 12 0
BBX 6 7 3 2
BITMAP
FC
FC
84
84
84
FC
FC
ENDCHAR
STARTCHAR filledrect
ENCODING 9644
SWIDTH 600 0
DWIDTH 12 0
BBX 12 2 0 5
BITMAP
FFF0
FFF0
ENDCHAR
STARTCHAR triagup
ENCODING 9650
SWIDTH 600 0
DWIDTH 12 0
BBX 10 10 1 1
BITMAP
0800
0C00
0C00
1E00
1E00
3F00
3F00
7F80
7F80
FFC0
ENDCHAR
STARTCHAR uni25B3
ENCODING 9651
SWIDTH 600 0
DWIDTH 12 0
BBX 10 10 1 2
BITMAP
0800
0C00
0C00
1E00
1200
3300
2100
6180
7F80
FFC0
ENDCHAR
STARTCHAR uni25B4
ENCODING 9652
SWIDTH 600 0
DWIDTH 12 0
BBX 8 7 2 2
BITMAP
10
18
18
3C
3C
7E
FF
ENDCHAR
STARTCHAR uni25B5
ENCODING 9653
SWIDTH 600 0
DWIDTH 12 0
BBX 8 8 2 2
BITMAP
10
18
18
24
24
42
7E
FF
ENDCHAR
STARTCHAR uni25B6
ENCODING 9654
SWIDTH 600 0
DWIDTH 12 0
BBX 10 9 1 2
BITMAP
C000
F000
FC00
FF00
FFC0
FF00
FC00
F000
C000
ENDCHAR
STARTCHAR uni25B7
ENCODING 9655
SWIDTH 600 0
DWIDTH 12 0
BBX 10 9 1 2
BITMAP
C000
F000
FC00
CF00
C1C0
CF00
FC00
F000
C000
ENDCHAR
STARTCHAR uni25B8
ENCODING 9656
SWIDTH 600 0
DWIDTH 12 0
BBX 7 7 3 2
BITMAP
80
E0
F8
FE
F8
E0
80
ENDCHAR
STARTCHAR uni25B9
ENCODING 9657
SWIDTH 600 0
DWIDTH 12 0
BBX 7 8 3 1
BITMAP
80
E0
F0
9C
9E
F0
E0
80
ENDCHAR
STARTCHAR triagrt
ENCODING 9658
SWIDTH 600 0
DWIDTH 12 0
BBX 13 9 0 2
BITMAP
C000
F000
FE00
FFC0
FFF8
FFC0
FE00
F000
C000
ENDCHAR
STARTCHAR triagdn
ENCODING 9660
SWIDTH 600 0
DWIDTH 12 0
BBX 10 10 1 1
BITMAP
FFC0
7F80
7F80
3F00
3F00
1E00
1E00
0C00
0C00
0800
ENDCHAR
STARTCHAR uni25BD
ENCODING 9661
SWIDTH 600 0
DWIDTH 12 0
BBX 10 10 1 2
BITMAP
FFC0
7F80
6180
2100
3300
1200
1E00
0C00
0C00
0800
ENDCHAR
STARTCHAR uni25BE
ENCODING 9662
SWIDTH 600 0
DWIDTH 12 0
BBX 8 7 2 1
BITMAP
FF
7E
3C
3C
18
18
10
ENDCHAR
STARTCHAR uni25BF
ENCODING 9663
SWIDTH 600 0
DWIDTH 12 0
BBX 8 8 2 1
BITMAP
FF
7E
42
24
24
18
18
10
ENDCHAR
STARTCHAR uni25C0
ENCODING 9664
SWIDTH 600 0
DWIDTH 12 0
BBX 10 9 1 2
BITMAP
00C0
03C0
0FC0
3FC0
FFC0
3FC0
0FC0
03C0
00C0
ENDCHAR
STARTCHAR uni25C1
ENCODING 9665
SWIDTH 600 0
DWIDTH 12 0
BBX 10 9 1 2
BITMAP
00C0
03C0
0FC0
3CC0
E0C0
3CC0
0FC0
03C0
00C0
ENDCHAR
STARTCHAR uni25C2
ENCODING 9666
SWIDTH 600 0
DWIDTH 12 0
BBX 7 7 2 2
BITMAP
02
0E
3E
FE
3E
0E
02
ENDCHAR
STARTCHAR uni25C3
ENCODING 9667
SWIDTH 600 0
DWIDTH 12 0
BBX 7 8 2 1
BITMAP
02
0E
1E
72
F2
1E
0E
02
ENDCHAR
STARTCHAR triaglf
ENCODING 9668
SWIDTH 600 0
DWIDTH 12 0
BBX 13 9 -1 2
BITMAP
0018
0078
03F8
1FF8
FFF8
1FF8
03F8
0078
0018
ENDCHAR
STARTCHAR uni25C6
ENCODING 9670
SWIDTH 600 0
DWIDTH 12 0
BBX 12 11 0 1
BITMAP
0400
0F00
1F80
3FC0
7FE0
FFF0
7FE0
3FC0
1F80
0F00
0600
ENDCHAR
STARTCHAR uni25C9
ENCODING 9673
SWIDTH 600 0
DWIDTH 12 0
BBX 10 10 1 1
BITMAP
1E00
7F80
6D80
DEC0
DEC0
DEC0
CCC0
6180
7F80
1E00
ENDCHAR
STARTCHAR lozenge
ENCODING 9674
SWIDTH 600 0
DWIDTH 12 0
BBX 10 13 1 0
BITMAP
0C00
1E00
1E00
3300
7380
6180
E1C0
6180
3300
3300
1E00
1E00
0C00
ENDCHAR
STARTCHAR uni25CB
ENCODING 9675
SWIDTH 600 0
DWIDTH 12 0
BBX 10 10 1 1
BITMAP
1E00
7F80
E1C0
C0C0
C0C0
C0C0
C0C0
E1C0
7F80
1E00
ENDCHAR
STARTCHAR uni25CC
ENCODING 9676
SWIDTH 600 0
DWIDTH 12 0
BBX 10 10 1 0
BITMAP
3F00
3F00
4080
C0C0
C0C0
C0C0
4080
C0C0
3F00
3F00
ENDCHAR
STARTCHAR uni25CF
ENCODING 9679
SWIDTH 600 0
DWIDTH 12 0
BBX 10 10 1 2
BITMAP
1E00
7F80
7F80
FFC0
FFC0
FFC0
FFC0
7F80
7F80
1E00
ENDCHAR
STARTCHAR invbullet
ENCODING 9688
SWIDTH 600 0
DWIDTH 12 0
BBX 6 7 3 2
BITMAP
FC
84
84
84
84
84
FC
ENDCHAR
STARTCHAR invcircle
ENCODING 9689
SWIDTH 600 0
DWIDTH 12 0
BBX 10 10 1 2
BITMAP
FFC0
C0C0
9E40
BF40
BF40
BF40
BF40
BF40
9E40
FFC0
ENDCHAR
STARTCHAR uni25E6
ENCODING 9702
SWIDTH 600 0
DWIDTH 12 0
BBX 8 8 2 1
BITMAP
3C
7E
66
C3
C3
66
7E
3C
ENDCHAR
STARTCHAR uni2610
ENCODING 9744
SWIDTH 600 0
DWIDTH 12 0
BBX 14 14 -1 0
BITMAP
7FFC
FFFC
C00C
C00C
C00C
C00C
C00C
C00C
C00C
C00C
C00C
C00C
FFFC
FFF8
ENDCHAR
STARTCHAR uni2611
ENCODING 9745
SWIDTH 600 0
DWIDTH 12 0
BBX 15 16 -1 0
BITMAP
0004
000E
001C
7FFC
FFFC
C03C
C07C
C06C
D8CC
DCCC
CD8C
CD8C
C78C
C70C
C00C
FFF8
ENDCHAR
STARTCHAR uni2615
ENCODING 9749
SWIDTH 600 0
DWIDTH 12 0
BBX 14 13 -1 0
BITMAP
1F80
6040
4020
DFB8
F24C
DF8C
C02C
402C
4018
6070
30C0
3F80
0F00
ENDCHAR
STARTCHAR smileface
ENCODING 9786
SWIDTH 600 0
DWIDTH 12 0
BBX 12 13 0 0
BITMAP
1F80
3FC0
70E0
4920
D9B0
D9B0
8910
D0B0
DFB0
4F20
70E0
3FC0
1F80
ENDCHAR
STARTCHAR invsmileface
ENCODING 9787
SWIDTH 600 0
DWIDTH 12 0
BBX 12 11 0 1
BITMAP
1F80
3FC0
6660
7760
F6F0
FFF0
EF70
6060
70E0
3FC0
1F80
ENDCHAR
STARTCHAR sun
ENCODING 9788
SWIDTH 600 0
DWIDTH 12 0
BBX 12 13 0 0
BITMAP
0600
2640
7FE0
3FC0
39C0
F0F0
F0F0
30C0
30C0
7FE0
6660
4640
0600
ENDCHAR
STARTCHAR female
ENCODING 9792
SWIDTH 600 0
DWIDTH 12 0
BBX 10 15 1 -1
BITMAP
1E00
7F80
E1C0
C0C0
C0C0
C0C0
C0C0
6180
3F00
0C00
0C00
7F80
7F80
0C00
0C00
ENDCHAR
STARTCHAR male
ENCODING 9794
SWIDTH 600 0
DWIDTH 12 0
BBX 13 13 0 0
BITMAP
01F8
0178
00F8
3FD8
7F98
E398
C1C0
C0C0
C0C0
C1C0
E380
7F00
3E00
ENDCHAR
STARTCHAR spade
ENCODING 9824
SWIDTH 600 0
DWIDTH 12 0
BBX 12 14 0 0
BITMAP
0600
0F00
1F80
3FC0
3FC0
7FE0
FFF0
FFF0
FFF0
FFF0
76E0
0600
1F80
3FC0
ENDCHAR
STARTCHAR club
ENCODING 9827
SWIDTH 600 0
DWIDTH 12 0
BBX 12 14 0 0
BITMAP
0F00
1F80
1F80
1F80
0F00
7FE0
FFF0
FFF0
FFF0
FFF0
76E0
0600
1F80
3FC0
ENDCHAR
STARTCHAR heart
ENCODING 9829
SWIDTH 600 0
DWIDTH 12 0
BBX 12 14 0 0
BITMAP
79E0
7FE0
FFF0
FFF0
FFF0
FFF0
FFF0
7FE0
7FE0
3FC0
1F80
0F00
0600
0600
ENDCHAR
STARTCHAR diamond
ENCODING 9830
SWIDTH 600 0
DWIDTH 12 0
BBX 12 14 0 0
BITMAP
0400
0600
0F00
1F80
3FC0
7FE0
FFF0
FFF0
7FE0
3FC0
1F80
0F00
0600
0400
ENDCHAR
STARTCHAR musicalnote
ENCODING 9834
SWIDTH 600 0
DWIDTH 12 0
BBX 10 14 1 0
BITMAP
0600
0700
0780
05C0
04C0
04C0
04C0
04C0
0400
0400
7C00
FC00
FC00
7800
ENDCHAR
STARTCHAR musicalnotedbl
ENCODING 9835
SWIDTH 600 0
DWIDTH 12 0
BBX 12 15 0 0
BITMAP
0030
0FF0
0FF0
0FF0
0FF0
0C10
0C10
0C10
0C10
0C10
0C10
7CF0
FDF0
FBF0
F1E0
ENDCHAR
STARTCHAR uni2713
ENCODING 10003
SWIDTH 600 0
DWIDTH 12 0
BBX 12 14 0 0
BITMAP
0020
0070
0070
00E0
01C0
0180
0380
4300
E700
6600
7600
3C00
3C00
1C00
ENDCHAR
STARTCHAR uni2752
ENCODING 10066
SWIDTH 600 0
DWIDTH 12 0
BBX 10 10 1 1
BITMAP
7FC0
FFC0
80C0
80C0
80C0
80C0
80C0
80C0
FFC0
FF80
ENDCHAR
STARTCHAR uni2764
ENCODING 10084
SWIDTH 600 0
DWIDTH 12 0
BBX 14 12 -1 1
BITMAP
3CF0
FFFC
FFFC
FFFC
FFFC
FFFC
7FF8
7FF8
1FE0
0FC0
0300
0200
ENDCHAR
STARTCHAR uni27E6
ENCODING 10214
SWIDTH 600 0
DWIDTH 12 0
BBX 7 17 3 -3
BITMAP
FE
DE
D0
D0
D0
D0
D0
D0
D0
D0
D0
D0
D0
D0
D0
FE
FE
ENDCHAR
STARTCHAR uni27E7
ENCODING 10215
SWIDTH 600 0
DWIDTH 12 0
BBX 7 17 2 -3
BITMAP
FE
F6
16
16
16
16
16
16
16
16
16
16
16
16
16
FE
FE
ENDCHAR
STARTCHAR uni2E18
ENCODING 11800
SWIDTH 600 0
DWIDTH 12 0
BBX 9 14 2 -4
BITMAP
1C00
1C00
1C00
1C00
0000
0000
1800
3C00
6C00
EC00
CC00
E300
FF80
3E00
ENDCHAR
STARTCHAR uni2E22
ENCODING 11810
SWIDTH 600 0
DWIDTH 12 0
BBX 6 9 4 5
BITMAP
FC
FC
C0
C0
C0
C0
C0
C0
C0
ENDCHAR
STARTCHAR uni2E23
ENCODING 11811
SWIDTH 600 0
DWIDTH 12 0
BBX 6 9 2 5
BITMAP
FC
FC
0C
0C
0C
0C
0C
0C
0C
ENDCHAR
STARTCHAR uni2E24
ENCODING 11812
SWIDTH 600 0
DWIDTH 12 0
BBX 6 9 4 -3
BITMAP
C0
C0
C0
C0
C0
C0
C0
FC
FC
ENDCHAR
STARTCHAR uni2E25
ENCODING 11813
SWIDTH 600 0
DWIDTH 12 0
BBX 6 9 2 -3
BITMAP
0C
0C
0C
0C
0C
0C
0C
FC
FC
ENDCHAR
STARTCHAR uniE0A0
ENCODING 57504
SWIDTH 600 0
DWIDTH 12 0
BBX 12 27 1 -6
BITMAP
E000
E000
E000
E180
E3C0
E3C0
E7E0
E990
E180
E180
E180
E180
E380
E380
8780
0F80
3F00
7C00
7800
F000
E000
E000
E000
E000
E000
E000
E000
ENDCHAR
STARTCHAR uniE0A1
ENCODING 57505
SWIDTH 600 0
DWIDTH 12 0
BBX 10 21 1 -3
BITMAP
E000
E000
E000
E000
E000
E000
E000
FE00
FE00
0000
0000
0000
39C0
3DC0
3DC0
37C0
37C0
3EC0
3BC0
3BC0
39C0
ENDCHAR
STARTCHAR uniE0A2
ENCODING 57506
SWIDTH 600 0
DWIDTH 12 0
BBX 10 18 1 -1
BITMAP
1E00
3F00
7380
7380
7380
7380
FFC0
FFC0
FFC0
F3C0
E1C0
F3C0
F3C0
F3C0
F3C0
F3C0
FFC0
FFC0
ENDCHAR
STARTCHAR uniE0B0
ENCODING 57520
SWIDTH 600 0
DWIDTH 12 0
BBX 12 26 0 -5
BITMAP
8000
8000
C000
E000
F000
F800
FC00
FE00
FF00
FF80
FFC0
FFE0
FFF0
FFF0
FFE0
FFC0
FF80
FF00
FE00
FC00
F800
F000
E000
C000
8000
8000
ENDCHAR
ENDFONT
